<svg width="200" height="200" viewBox="0 0 200 200" fill="none" xmlns="http://www.w3.org/2000/svg">
<g clip-path="url(#clip0_107_60)">
<g clip-path="url(#clip1_107_60)">
<path d="M200 177.778C200 190.05 190.05 200 177.778 200H22.2222C9.95 200 0 190.05 0 177.778V22.2222C0 9.95 9.95 0 22.2222 0H177.778C190.05 0 200 9.95 200 22.2222V177.778Z" fill="#55ACEE"/>
</g>
<path d="M24.7667 41.2722C-0.4 43.0499 -1.76111 10.6555 45.8833 14.9499C93.5278 19.2444 145.683 33.8388 158.206 24.8888C168.144 17.7833 166.072 4.84438 163.572 2.23327C161.072 -0.372283 157.283 1.98327 159.2 6.02216C161.111 10.0666 158.856 20.8999 146.633 21.9944C134.417 23.0888 88.8556 14.4833 60.1056 10.4333C30.7444 6.31105 7.15 8.35549 2.02222 24.7777C-3.08333 41.1499 12.8222 46.2944 21.2333 47.0944C29.6444 47.8888 24.7667 41.2722 24.7667 41.2722Z" fill="#152F70"/>
<path d="M33.7944 37.2668C8.5611 37.2668 9.48887 4.86122 56.7111 12.5001C103.933 20.139 154.928 38.3723 168.056 30.3223C178.472 23.9334 177.311 10.8779 175 8.10011C172.689 5.32234 168.75 7.40567 170.372 11.5723C171.994 15.739 168.983 26.389 156.717 26.6168C144.45 26.8557 99.6111 15.0612 71.2166 9.00011C42.2222 2.81122 18.5389 3.19456 12.2666 19.2112C6.01665 35.1834 21.5278 41.4334 29.8611 42.8223C38.1944 44.2112 33.7944 37.2668 33.7944 37.2668Z" fill="#234EBB"/>
<path d="M185.433 73.5888C171.317 51.7666 147.85 36.761 122.906 32.011C82.2555 24.2721 26.7333 27.4333 11.1111 49.9999C7.98888 54.511 8.45555 75.9499 27.7778 83.3333C37.5722 87.0777 64.1222 82.4333 82.45 80.7666L81.2278 90.4166C80.8444 93.461 82.9944 96.2388 86.0389 96.6277C89.0833 97.011 91.8611 94.861 92.25 91.8166L93.7167 80.2499C98.1389 80.361 102.45 80.8055 106.694 81.5388L103.367 92.4222C102.467 95.3555 104.122 98.461 107.05 99.361C109.989 100.255 113.094 98.6055 113.989 95.6722L117.533 84.0722C121.656 85.311 125.75 86.8499 129.861 88.661L124.067 98.0777C122.456 100.694 123.278 104.111 125.883 105.722C128.506 107.322 131.922 106.511 133.528 103.9L139.861 93.5999C140.35 93.861 140.828 94.0944 141.317 94.3666C156.917 103.022 166.461 127.35 166.061 136.339C165.861 140.85 167 144.15 169.439 146.178C173.839 149.8 180.983 148.083 186.206 146.828C187.972 146.4 189.8 145.961 190.644 145.978L192.322 140.467L192.867 138.883C203.872 106.817 194.9 88.211 185.433 73.5888Z" fill="#234EBB"/>
<path d="M123.294 47.239C119.911 53.5946 124.044 52.439 128.989 47.6057C132.3 44.3668 137.55 40.839 143.106 38.3223C139.983 36.9723 136.811 35.7723 133.583 34.7612C129.222 38.9612 125.128 43.8057 123.294 47.239ZM156.522 64.439C163.583 60.939 172.228 63.2446 180.722 67.1112C176.922 62.2557 172.628 57.8335 167.967 53.839C163.983 54.0835 160.017 55.2835 156.667 57.7446C151.083 61.839 144.361 70.4557 156.522 64.439ZM177.983 86.1501C171.339 88.089 162.072 93.8835 175.55 92.3946C183.389 91.5279 190.722 96.6612 197.383 103.211C196.606 97.4001 195.039 92.239 193.039 87.5446C188.417 85.489 183.089 84.6612 177.983 86.1501ZM191.539 134.111C189.306 132.972 180.406 143.95 171.061 130.011C171.044 129.983 171.017 129.983 171 129.956C170.578 123.445 167.528 95.3946 138.289 80.0057C135.183 78.3723 131.811 76.8668 128.083 75.5612C123.389 73.9168 118.156 72.5779 112.378 71.6001C109.4 71.0946 106.3 70.6668 103.011 70.3723C102.439 70.3223 101.85 70.3112 101.272 70.2668C95.7722 69.8723 90.1389 69.9168 84.4666 70.2501C80.7722 70.4668 77.0611 70.789 73.3666 71.1834C51.3111 73.5334 29.7889 78.0835 15.0833 73.6946C17.8944 77.6168 21.9722 81.1168 27.7778 83.3335C36.0611 86.4946 56.3166 83.6668 73.4555 81.7112L73.4666 82.9779C73.4944 86.0446 76.0055 88.5112 79.0722 88.4835C82.1389 88.4557 84.6055 85.9501 84.5778 82.8779L84.5555 80.5946C87.8666 80.3279 90.8889 80.1723 93.3833 80.2279C95.2166 80.2668 97.0278 80.3835 98.8278 80.5335L98.2889 82.789C97.5778 85.7779 99.4278 88.7723 102.406 89.4779C105.389 90.189 108.383 88.3446 109.1 85.3612L109.861 82.1557C114.239 83.0723 118.561 84.3001 122.872 85.8612L121.4 88.7779C120.022 91.5223 121.122 94.8612 123.85 96.2446C126.589 97.6279 129.933 96.5279 131.322 93.7946L133.139 90.1946C135.85 91.4835 138.567 92.8446 141.317 94.3723C156.828 102.983 166.35 127.078 166.056 136.183C165.939 136.861 165.878 137.578 165.889 138.333C165.944 141.156 165.267 144.411 163.861 148.017C161.022 155.328 155.317 163.572 149.311 169.011C147 171.117 145.322 173.461 144.339 175.978C142.561 180.583 143.411 185.339 146.478 187.817C147.072 188.3 147.722 188.656 148.4 188.911C166.917 172.139 159.906 181.317 164.5 195.117C166.344 198.506 169.067 199.322 170.417 199.5C174.339 200.006 178.211 197.289 180.3 192.561L180.572 191.906C183.706 183.839 192.656 143.811 193.506 137.928C193.739 136.361 192.95 134.828 191.539 134.111Z" fill="#152F70"/>
<path d="M148.411 188.906C150.578 189.722 153.072 189.417 155.322 187.939C158.311 185.978 160.283 185.689 161.061 186.033C161.878 186.389 162.583 187.978 162.944 190.267C163.272 192.306 163.833 193.872 164.511 195.111C159.911 181.311 175.328 157.717 148.411 188.906Z" fill="black"/>
<path d="M38.8889 55.5554C41.9571 55.5554 44.4444 53.0681 44.4444 49.9999C44.4444 46.9316 41.9571 44.4443 38.8889 44.4443C35.8206 44.4443 33.3333 46.9316 33.3333 49.9999C33.3333 53.0681 35.8206 55.5554 38.8889 55.5554Z" fill="black"/>
</g>
<defs>
<clipPath id="clip0_107_60">
<rect width="200" height="200" fill="white"/>
</clipPath>
<clipPath id="clip1_107_60">
<rect width="200" height="200" fill="white"/>
</clipPath>
</defs>
</svg>
