<svg width="200" height="200" viewBox="0 0 200 200" fill="none" xmlns="http://www.w3.org/2000/svg">
<g clip-path="url(#clip0_122_174)">
<g clip-path="url(#clip1_122_174)">
<path d="M200 177.778C200 190.05 190.05 200 177.778 200H22.2222C9.95 200 0 190.05 0 177.778V22.2222C0 9.95 9.95 0 22.2222 0H177.778C190.05 0 200 9.95 200 22.2222V177.778Z" fill="#55ACEE"/>
</g>
<path fill-rule="evenodd" clip-rule="evenodd" d="M107.504 63.0511C110.56 59.8427 112.537 54.7301 112.537 48.971C112.537 39.2573 106.912 31.3828 99.9741 31.3828C93.0357 31.3828 87.4111 39.2573 87.4111 48.971C87.4111 54.7388 89.3942 59.8582 92.4579 63.0656C84.5602 66.0982 78.9543 73.7542 78.9543 82.7195C78.9543 94.3427 88.3768 103.765 100 103.765C111.623 103.765 121.046 94.3427 121.046 82.7195C121.046 73.7398 115.422 66.0737 107.504 63.0511Z" fill="white" fill-opacity="0.9"/>
<path fill-rule="evenodd" clip-rule="evenodd" d="M107.504 63.0511C110.56 59.8427 112.537 54.7301 112.537 48.971C112.537 39.2573 106.912 31.3828 99.9741 31.3828C93.0357 31.3828 87.4111 39.2573 87.4111 48.971C87.4111 54.7388 89.3942 59.8582 92.4579 63.0656C84.5602 66.0982 78.9543 73.7542 78.9543 82.7195C78.9543 94.3427 88.3768 103.765 100 103.765C111.623 103.765 121.046 94.3427 121.046 82.7195C121.046 73.7398 115.422 66.0737 107.504 63.0511Z" fill="white" fill-opacity="0.9"/>
<circle cx="99.9741" cy="82.7197" r="18.9287" fill="#F3D9BA" fill-opacity="0.9"/>
<circle cx="99.9741" cy="82.7197" r="18.9287" fill="#F3D9BA" fill-opacity="0.9"/>
<circle cx="99.9741" cy="82.7197" r="13.5205" fill="#FFA843" fill-opacity="0.9"/>
<circle cx="99.9741" cy="82.7197" r="8.11231" fill="#FF8A00" fill-opacity="0.9"/>
<ellipse cx="100" cy="48.9712" rx="10.5856" ry="14.8198" fill="#FF9999" fill-opacity="0.9"/>
<ellipse cx="100" cy="48.9712" rx="10.5856" ry="14.8198" fill="#FF9999" fill-opacity="0.9"/>
<ellipse cx="100" cy="48.9713" rx="7.56114" ry="10.5856" fill="#FF4343" fill-opacity="0.9"/>
<ellipse cx="100" cy="48.971" rx="4.53668" ry="6.35136" fill="#DB3C3C" fill-opacity="0.9"/>
<path fill-rule="evenodd" clip-rule="evenodd" d="M114.664 64.0284C119.887 60.056 123.222 54.0097 123.222 47.2376C123.222 35.2738 112.813 25.5752 99.9741 25.5752C87.1349 25.5752 76.7267 35.2738 76.7267 47.2376C76.7267 54.0097 80.0616 60.056 85.2847 64.0283C77.0433 74.8459 71.5337 94.4911 71.5337 116.931C71.5337 151.045 84.2669 178.7 99.9741 178.7C115.681 178.7 128.415 151.045 128.415 116.931C128.415 94.4911 122.905 74.846 114.664 64.0284Z" fill="#BFC9FF" fill-opacity="0.6"/>
<path d="M126.184 93.0279C125.21 89.3817 123.534 76.0675 114.684 64.0515C120.236 59.6341 143.408 55.5429 159.228 68.6943C169.361 77.1209 134.184 98.3977 126.184 93.0279Z" fill="#ABB8FF" fill-opacity="0.8"/>
<path d="M73.8498 93.0279C74.8247 89.3817 76.5004 76.0675 85.3503 64.0515C79.7979 59.6341 56.6264 55.5429 40.8066 68.6943C30.6734 77.1209 65.8504 98.3977 73.8498 93.0279Z" fill="#ABB8FF" fill-opacity="0.8"/>
<path fill-rule="evenodd" clip-rule="evenodd" d="M120.199 18.8874C120.489 16.2504 117.465 14.5623 115.373 16.193L103.088 25.7678C109.374 26.5518 114.865 29.6767 118.517 34.1705L120.199 18.8874Z" fill="#BFC9FF" fill-opacity="0.6"/>
<path fill-rule="evenodd" clip-rule="evenodd" d="M79.7797 18.8874C79.4895 16.2504 82.5135 14.5623 84.6059 16.193L96.8908 25.7678C90.6048 26.5518 85.114 29.6767 81.4613 34.1705L79.7797 18.8874Z" fill="#BFC9FF" fill-opacity="0.6"/>
</g>
<defs>
<clipPath id="clip0_122_174">
<rect width="200" height="200" fill="white"/>
</clipPath>
<clipPath id="clip1_122_174">
<rect width="200" height="200" fill="white"/>
</clipPath>
</defs>
</svg>
