<svg width="200" height="200" viewBox="0 0 200 200" fill="none" xmlns="http://www.w3.org/2000/svg">
<g clip-path="url(#clip0_107_78)">
<g clip-path="url(#clip1_107_78)">
<path d="M200 177.778C200 190.05 190.05 200 177.778 200H22.2222C9.95 200 0 190.05 0 177.778V22.2222C0 9.95 9.95 0 22.2222 0H177.778C190.05 0 200 9.95 200 22.2222V177.778Z" fill="#55ACEE"/>
</g>
<path d="M24.7667 41.2722C-0.4 43.0499 -1.76111 10.6555 45.8833 14.9499C93.5278 19.2444 145.683 33.8388 158.206 24.8888C168.144 17.7833 166.072 4.84438 163.572 2.23327C161.072 -0.372283 157.283 1.98327 159.2 6.02216C161.111 10.0666 158.856 20.8999 146.633 21.9944C134.417 23.0888 88.8556 14.4833 60.1056 10.4333C30.7444 6.31105 7.15 8.35549 2.02222 24.7777C-3.08333 41.1499 12.8222 46.2944 21.2333 47.0944C29.6444 47.8888 24.7667 41.2722 24.7667 41.2722Z" fill="#D7D7D7"/>
<path d="M33.7944 37.2668C8.5611 37.2668 9.48887 4.86122 56.7111 12.5001C103.933 20.139 154.928 38.3723 168.056 30.3223C178.472 23.9334 177.311 10.8779 175 8.10011C172.689 5.32234 168.75 7.40567 170.372 11.5723C171.994 15.739 168.983 26.389 156.717 26.6168C144.45 26.8557 99.6111 15.0612 71.2166 9.00011C42.2222 2.81122 18.5389 3.19456 12.2666 19.2112C6.01665 35.1834 21.5278 41.4334 29.8611 42.8223C38.1944 44.2112 33.7944 37.2668 33.7944 37.2668Z" fill="#D7D7D7"/>
<path d="M185.433 73.5891C171.317 51.7668 147.85 36.7613 122.906 32.0113C82.2556 24.2724 26.7334 27.4335 11.1112 50.0002C7.98894 54.5113 8.45561 75.9502 27.7778 83.3335C37.5723 87.078 64.1223 82.4335 82.4501 80.7668L81.2278 90.4168C80.8445 93.4613 82.9945 96.2391 86.0389 96.628C89.0834 97.0113 91.8612 94.8613 92.2501 91.8168L93.7167 80.2502C98.1389 80.3613 102.45 80.8057 106.694 81.5391L103.367 92.4224C102.467 95.3557 104.122 98.4613 107.05 99.3613C109.989 100.256 113.094 98.6057 113.989 95.6724L117.533 84.0724C121.656 85.3113 125.75 86.8502 129.861 88.6613L124.067 98.0779C122.456 100.695 123.278 104.111 125.883 105.722C128.506 107.322 131.922 106.511 133.528 103.9L139.861 93.6002C140.35 93.8613 140.828 94.0946 141.317 94.3668C156.917 103.022 166.461 127.35 166.061 136.339C165.861 140.85 167 144.15 169.439 146.178C173.839 149.8 180.983 148.084 186.206 146.828C187.972 146.4 189.8 145.961 190.645 145.978L192.322 140.467L192.867 138.884C203.872 106.817 194.9 88.2113 185.433 73.5891Z" fill="#D7D7D7"/>
<path d="M124.067 98.0783L129.861 88.6616H139.861V93.6005L133.528 103.901C131.922 106.512 128.506 107.323 125.883 105.723C123.278 104.112 122.456 100.695 124.067 98.0783Z" fill="#C20101"/>
<path d="M103.367 92.4226L106.694 81.5393H117.533V84.0726L113.989 95.6726C113.094 98.606 109.989 100.256 107.05 99.3615C104.122 98.4615 102.467 95.356 103.367 92.4226Z" fill="#C20101"/>
<path d="M81.2278 90.4169L82.5 80H93.75L92.2501 91.8169C91.8612 94.8614 89.0834 97.0114 86.0389 96.628C82.9945 96.2391 80.8445 93.4614 81.2278 90.4169Z" fill="#C20101"/>
<path d="M191.539 134.111C189.306 132.972 180.406 143.95 171.061 130.011C171.044 129.983 171.017 129.983 171 129.956C170.578 123.444 167.528 95.3945 138.289 80.0056C135.183 78.3723 131.811 76.8667 128.083 75.5611C123.389 73.9167 118.156 72.5778 112.378 71.6C109.4 71.0945 106.3 70.6667 103.011 70.3723C102.439 70.3223 101.85 70.3111 101.272 70.2667C95.7722 69.8723 90.1389 69.9167 84.4667 70.25C80.7722 70.4667 77.0611 70.7889 73.3667 71.1834C51.3111 73.5334 29.7889 78.0834 15.0833 73.6945C17.8944 77.6167 21.9722 81.1167 27.7778 83.3334C36.0611 86.4945 56.3166 83.6667 73.4555 81.7111L73.4666 82.9778C73.4944 86.0445 76.0055 88.5111 79.0722 88.4834C82.1389 88.4556 84.6055 85.95 84.5778 82.8778L84.5555 80.5945C87.8667 80.3278 90.8889 80.1723 93.3833 80.2278C95.2167 80.2667 97.0278 80.3834 98.8278 80.5334L98.2889 82.7889C97.5778 85.7778 99.4278 88.7723 102.406 89.4778C105.389 90.1889 108.383 88.3445 109.1 85.3611L109.861 82.1556C114.239 83.0723 118.561 84.3 122.872 85.8611L121.4 88.7778C120.022 91.5223 121.122 94.8611 123.85 96.2445C126.589 97.6278 129.933 96.5278 131.322 93.7945L133.139 90.1945C135.85 91.4834 138.567 92.8445 141.317 94.3723C156.828 102.983 166.35 127.078 166.056 136.183C165.939 136.861 165.878 137.578 165.889 138.333C165.944 141.156 165.267 144.411 163.861 148.017C161.022 155.328 155.317 163.572 149.311 169.011C147 171.117 145.322 173.461 144.339 175.978C142.561 180.583 143.411 185.339 146.478 187.817C147.072 188.3 147.722 188.656 148.4 188.911C166.917 172.139 159.906 181.317 164.5 195.117C166.344 198.506 169.067 199.322 170.417 199.5C174.339 200.006 178.211 197.289 180.3 192.561L180.572 191.906C183.706 183.839 192.656 143.811 193.506 137.928C193.739 136.361 192.95 134.828 191.539 134.111Z" fill="#D7D7D7"/>
<path d="M73.4666 82.9778L73.4666 81.4505L84.5777 80.2068L84.5777 82.8778C84.6055 85.95 82.1388 88.4556 79.0721 88.4833C76.0055 88.5111 73.4944 86.0444 73.4666 82.9778Z" fill="#F30000"/>
<path d="M98.2889 82.7886L98.9092 79.6357L110 81.4914L109.1 85.3608C108.383 88.3442 105.389 90.1886 102.406 89.4775C99.4278 88.772 97.5778 85.7775 98.2889 82.7886Z" fill="#F30000"/>
<path d="M121.4 88.778L123.314 85.0388L133.487 89.5446L131.322 93.7946C129.933 96.528 126.589 97.628 123.85 96.2446C121.122 94.8613 120.022 91.5224 121.4 88.778Z" fill="#F30000"/>
<path d="M175.014 99.7653C161.791 102.77 170.342 95.9642 176.725 93.2856C181.629 91.2283 189.638 89.5845 194.463 91.1036C195.562 93.5929 197.308 100.327 197.651 105.515C190.291 99.7611 182.704 98.0169 175.014 99.7653Z" fill="#F30000"/>
<path d="M176.184 121.653C163.13 117.984 173.893 116.083 180.779 116.774C186.071 117.306 193.48 119.137 196.996 122.774C196.996 125.474 194.494 133.211 193.52 137.704C189.798 129.135 183.777 123.786 176.184 121.653Z" fill="#F30000"/>
<path d="M186.348 75.0099C179.984 75.0099 176.521 76.1176 169.46 79.6176C155.034 86.7679 157.991 79.3046 168.926 71.2712C172.276 68.8101 176 66.3182 179.984 66.0737C183.472 70.3296 185.127 73.1349 186.348 75.0099Z" fill="#F30000"/>
<path d="M24.7727 82.0194C28.7475 78.8576 30.4566 76.4029 33.128 70.7087C38.5855 59.0759 40.4466 65.2064 37.6079 75.6568C36.7383 78.8583 35.6737 82.378 33.3072 84.5097C29.6457 84.2271 26.6708 83.0425 24.7727 82.0194Z" fill="#F30000"/>
<path d="M148.411 188.906C150.578 189.722 153.072 189.417 155.322 187.939C158.311 185.978 160.283 185.689 161.061 186.033C161.878 186.389 162.583 187.978 162.944 190.267C163.272 192.306 163.833 193.872 164.511 195.111C159.911 181.311 175.328 157.717 148.411 188.906Z" fill="#292F33"/>
<path d="M38.8889 55.5554C41.9571 55.5554 44.4444 53.0681 44.4444 49.9999C44.4444 46.9316 41.9571 44.4443 38.8889 44.4443C35.8206 44.4443 33.3333 46.9316 33.3333 49.9999C33.3333 53.0681 35.8206 55.5554 38.8889 55.5554Z" fill="#292F33"/>
<mask id="mask0_107_78" style="mask-type:alpha" maskUnits="userSpaceOnUse" x="9" y="28" width="189" height="121">
<path d="M122.906 32.0113C147.85 36.7613 171.317 51.7668 185.433 73.5891C194.9 88.2113 203.872 106.817 192.867 138.884L192.322 140.467L190.645 145.978C189.8 145.961 187.972 146.4 186.206 146.828C180.983 148.084 173.839 149.8 169.439 146.178C167 144.15 165.861 140.85 166.061 136.339C166.461 127.35 156.917 103.022 141.317 94.3668C140.828 94.0946 140.35 93.8613 139.861 93.6002L129.635 88.5618C125.6 86.7937 121.58 85.2885 117.533 84.0724L106.694 81.5391C102.45 80.8057 98.1389 80.3613 93.7167 80.2502L82.4501 80.7668C64.1223 82.4335 37.5723 87.078 27.7778 83.3335C8.45561 75.9502 7.98894 54.5113 11.1112 50.0002C26.7334 27.4335 82.2556 24.2724 122.906 32.0113Z" fill="#D9D9D9"/>
</mask>
<g mask="url(#mask0_107_78)">
<path d="M79.7953 30.8977C99.9706 23.0341 120.029 23.0341 140.205 30.8977C173.494 43.8726 139.337 94.3359 139.337 94.3359L80.9666 95C80.9666 95 46.506 43.8726 79.7953 30.8977Z" fill="#F30000"/>
</g>
<path d="M131.551 69.1385C133.244 69.1385 134.616 67.7662 134.616 66.0735C134.616 64.3808 133.244 63.0085 131.551 63.0085C129.859 63.0085 128.486 64.3808 128.486 66.0735C128.486 67.7662 129.859 69.1385 131.551 69.1385Z" fill="#D7D7D7"/>
<path d="M88.1532 70.5293C89.8459 70.5293 91.2181 69.1571 91.2181 67.4644C91.2181 65.7716 89.8459 64.3994 88.1532 64.3994C86.4604 64.3994 85.0882 65.7716 85.0882 67.4644C85.0882 69.1571 86.4604 70.5293 88.1532 70.5293Z" fill="#D7D7D7"/>
<path d="M90.6851 41.0708C92.3778 41.0708 93.75 39.6986 93.75 38.0059C93.75 36.3131 92.3778 34.9409 90.6851 34.9409C88.9923 34.9409 87.6201 36.3131 87.6201 38.0059C87.6201 39.6986 88.9923 41.0708 90.6851 41.0708Z" fill="#D7D7D7"/>
<path d="M126.788 32.8396C120.799 38.623 118.466 42.9734 115.002 52.6841C107.924 72.5223 103.925 62.8118 106.914 45.3145C107.83 39.954 109.071 34.2244 112.597 30.3744C116.242 30.6071 123.446 31.9494 126.788 32.8396Z" fill="#D7D7D7"/>
</g>
<defs>
<clipPath id="clip0_107_78">
<rect width="200" height="200" fill="white"/>
</clipPath>
<clipPath id="clip1_107_78">
<rect width="200" height="200" fill="white"/>
</clipPath>
</defs>
</svg>
