<svg width="200" height="200" viewBox="0 0 200 200" fill="none" xmlns="http://www.w3.org/2000/svg">
<g clip-path="url(#clip0_122_105)">
<g clip-path="url(#clip1_122_105)">
<path d="M200 178.383C200 190.656 190.05 200.606 177.778 200.606H22.2222C9.95 200.606 0 190.656 0 178.383V22.8279C0 10.5557 9.95 0.605713 22.2222 0.605713H177.778C190.05 0.605713 200 10.5557 200 22.8279V178.383Z" fill="#55ACEE"/>
</g>
<path d="M73.5546 46.7136C77.7133 30.0105 82.2065 23.7924 92.8579 21.2136C94.2552 20.8753 95.308 19.6668 95.2841 18.2293C95.2732 17.5755 95.2513 16.9539 95.2144 16.3396C95.0621 13.8018 97.7198 11.9237 100.215 12.4107C101.265 12.6155 102.189 12.6137 103.094 12.4329C104.565 12.1392 106.139 12.5032 107.171 13.5912C108.807 15.3155 110.529 16.0909 112.928 16.3775C114.762 16.5965 115.977 18.3248 116.738 20.008C116.964 20.5077 117.289 20.9627 117.723 21.3902C119.329 22.9752 119.541 26.1309 117.718 27.4614C116.786 28.1423 116.47 29.5439 117.045 30.545C121.633 38.5275 122.354 43.7372 120.612 52.9115C117.532 62.8427 116.427 69.2653 116.122 77.8767C116.03 80.4534 119.059 81.8298 120.997 80.1291L129.913 72.3036C132.188 70.3073 135.779 72.6066 135.421 75.6118C135.065 78.6013 135.19 81.4006 135.846 84.7466C135.932 85.1847 135.927 85.638 135.826 86.0729C134.482 91.8362 134.379 94.6249 135.4 96.4659C136.006 97.5578 136.47 98.8092 136.097 100.001C134.523 105.027 134.422 107.69 135.949 109.705C136.629 110.602 136.664 112.806 136.355 113.888C135.732 116.07 131.066 114.471 128.099 113.236C127.148 112.84 126.026 112.895 125.33 113.653C122.203 117.059 121.857 123.848 122.982 130.183C124.136 181.752 94.5969 191.73 82.2728 190.823C72.0209 190.735 63.7095 181.512 63.7095 171.26C63.7095 161.008 72.0206 152.697 82.2728 152.697C88.116 152.697 89.2441 163.05 83.2728 163.05C78.4103 163.05 74.4684 166.992 74.4684 171.854C74.4684 176.717 78.4257 180.272 83.2728 180.659C99.9185 181.987 113.646 154.734 91.4124 135.918C72.5808 119.98 66.7088 94.317 88.3701 70.7908C91.4969 67.3947 81.5205 55.3425 77.2037 57.3129C72.512 59.4545 70.2313 61.3521 67.7622 64.1237C66.8171 65.1847 65.2715 65.5045 64.0165 64.8382C59.5561 62.47 56.7853 60.5284 58.3205 53.6025C58.5839 52.4142 59.62 51.5734 60.829 51.4326C66.2501 50.8013 69.1819 50.082 72.107 48.5941C72.8432 48.2196 73.3551 47.5152 73.5546 46.7136Z" fill="#AE7F53"/>
<path d="M116.738 20.008C116.964 20.5077 117.289 20.9627 117.723 21.3902C119.329 22.9752 119.541 26.1309 117.718 27.4614C116.786 28.1423 116.47 29.5439 117.045 30.545C109.393 23.3579 104.104 21.2692 92.8579 21.2136C94.2552 20.8753 95.308 19.6668 95.2841 18.2293C95.2732 17.5755 95.2513 16.9539 95.2144 16.3396C95.0621 13.8018 97.7198 11.9237 100.215 12.4107C101.265 12.6155 102.189 12.6137 103.094 12.4329C104.565 12.1392 106.139 12.5032 107.171 13.5912C108.807 15.3155 110.529 16.0909 112.928 16.3775C114.762 16.5965 115.977 18.3248 116.738 20.008Z" fill="#865B32"/>
<path d="M107.755 96.4256C107.755 111.306 127.774 123.373 137.696 123.373C147.619 123.373 137.696 111.306 137.696 96.4256C137.696 81.5447 147.619 69.4783 137.696 69.4783C127.774 69.4783 107.755 81.5447 107.755 96.4256Z" fill="#865B32"/>
<path d="M86.7827 41.1663C88.9919 41.1663 90.7827 39.3754 90.7827 37.1663C90.7827 34.9571 88.9919 33.1663 86.7827 33.1663C84.5736 33.1663 82.7827 34.9571 82.7827 37.1663C82.7827 39.3754 84.5736 41.1663 86.7827 41.1663Z" fill="#292F33"/>
</g>
<defs>
<clipPath id="clip0_122_105">
<rect width="200" height="200" fill="white"/>
</clipPath>
<clipPath id="clip1_122_105">
<rect width="200" height="200" fill="white" transform="translate(0 0.605713)"/>
</clipPath>
</defs>
</svg>
