<svg width="200" height="200" viewBox="0 0 200 200" fill="none" xmlns="http://www.w3.org/2000/svg">
<g clip-path="url(#clip0_120_77)">
<g clip-path="url(#clip1_120_77)">
<path d="M200 177.383C200 189.656 190.05 199.606 177.778 199.606H22.2222C9.95 199.606 0 189.656 0 177.383V21.8279C0 9.55571 9.95 -0.394287 22.2222 -0.394287H177.778C190.05 -0.394287 200 9.55571 200 21.8279V177.383Z" fill="#55ACEE"/>
</g>
<path d="M79.4408 41.7681C81.637 12.0698 110.055 14.3978 122.912 25.8712C136.218 40.213 104.877 68.5867 113.038 91.8179C115.655 99.2687 129.108 117.951 128.849 125.509C130.003 177.078 100.464 187.056 88.1396 186.149C77.8878 186.061 69.5764 176.838 69.5764 166.586C69.5764 156.334 77.8875 148.023 88.1396 148.023C93.9829 148.023 95.111 158.376 89.1396 158.376C84.2771 158.376 80.3353 162.318 80.3353 167.18C80.3353 172.043 84.2926 175.598 89.1396 175.985C105.785 177.313 127.721 143.365 104.708 125.509C95.5686 118.418 85.3164 89.27 100.132 59.4497C102.186 55.3154 87.3874 50.6686 83.0706 52.6389C78.3789 54.7805 76.0982 56.6781 73.6291 59.4497C72.684 60.5107 71.1384 60.8305 69.8834 60.1642C65.423 57.796 62.6522 55.8544 64.1874 48.9285C64.4508 47.7402 65.4869 46.8994 66.6959 46.7586C72.117 46.1273 75.0488 45.4081 77.9739 43.9202C78.6313 43.5858 79.1098 42.9883 79.3468 42.2935C79.4036 42.1268 79.4278 41.9437 79.4408 41.7681Z" fill="#F04927"/>
<path d="M115.132 13.7437C115.398 14.1109 115.737 14.4256 116.158 14.7002C117.721 15.7182 118.414 18.2387 117.158 19.6174C116.515 20.3229 116.527 21.2133 117.158 21.9289C109.668 18.441 105.003 17.2854 95.9934 18.6672C97.069 18.1623 97.7218 17.0096 97.4648 15.8495C97.3479 15.3218 97.2274 14.8221 97.096 14.3307C96.5532 12.3007 98.395 10.3406 100.496 10.3224C101.38 10.3148 102.128 10.1606 102.831 9.86456C103.974 9.38361 105.308 9.41821 106.324 10.1287C107.934 11.2546 109.456 11.5979 111.447 11.4334C112.968 11.3076 114.238 12.5064 115.132 13.7437Z" fill="#F04927"/>
<path d="M92.6497 36.4922C94.8588 36.4922 96.6497 34.7013 96.6497 32.4922C96.6497 30.283 94.8588 28.4922 92.6497 28.4922C90.4405 28.4922 88.6497 30.283 88.6497 32.4922C88.6497 34.7013 90.4405 36.4922 92.6497 36.4922Z" fill="#292F33"/>
<circle cx="125.056" cy="41.2107" r="7.35767" fill="white"/>
<circle cx="100.007" cy="60.7366" r="7.35767" fill="white"/>
<circle cx="114.723" cy="84.5073" r="7.35767" fill="white"/>
<circle cx="92.6497" cy="99.2227" r="7.35767" fill="white"/>
<circle cx="128.882" cy="118.466" r="7.35767" fill="white"/>
<circle cx="105.867" cy="125.823" r="7.35767" fill="white"/>
<circle cx="126.013" cy="146.481" r="7.35767" fill="white"/>
<circle cx="113.225" cy="105.165" r="7.35767" fill="white"/>
<circle cx="89.3763" cy="186.204" r="7.35767" fill="white"/>
<circle cx="78.4761" cy="149.311" r="7.35767" fill="white"/>
<circle cx="105.457" cy="11.0997" r="5.45009" fill="white"/>
<circle cx="111.317" cy="27.0421" r="5.45009" fill="white"/>
<circle cx="76.5685" cy="43.1183" r="5.45009" fill="white"/>
<circle cx="116.63" cy="58.829" r="5.45009" fill="white"/>
<circle cx="94.0997" cy="79.0573" r="5.45009" fill="white"/>
<circle cx="110.907" cy="159.289" r="5.45009" fill="white"/>
<circle cx="109.273" cy="178.846" r="5.45009" fill="white"/>
<circle cx="73.026" cy="173.396" r="5.45009" fill="white"/>
<circle cx="103.822" cy="41.9423" r="5.45009" fill="white"/>
</g>
<defs>
<clipPath id="clip0_120_77">
<rect width="200" height="200" fill="white"/>
</clipPath>
<clipPath id="clip1_120_77">
<rect width="200" height="200" fill="white" transform="translate(0 -0.394287)"/>
</clipPath>
</defs>
</svg>
