<svg width="200" height="200" viewBox="0 0 200 200" fill="none" xmlns="http://www.w3.org/2000/svg">
<g clip-path="url(#clip0_120_24)">
<g clip-path="url(#clip1_120_24)">
<path d="M200 177.778C200 190.05 190.05 200 177.778 200H22.2222C9.95 200 0 190.05 0 177.778V22.2222C0 9.95 9.95 0 22.2222 0H177.778C190.05 0 200 9.95 200 22.2222V177.778Z" fill="#55ACEE"/>
</g>
<path d="M73.5546 46.7136C77.7133 30.0105 82.2065 23.7924 92.8579 21.2136C94.2552 20.8753 95.308 19.6668 95.2841 18.2293C95.2732 17.5755 95.2513 16.9539 95.2144 16.3396C95.0621 13.8018 97.7199 11.9237 100.215 12.4107C101.265 12.6155 102.189 12.6137 103.094 12.4329C104.565 12.1392 106.139 12.5032 107.171 13.5912C108.807 15.3155 110.529 16.0909 112.928 16.3775C114.762 16.5965 115.977 18.3248 116.738 20.008C116.964 20.5077 117.289 20.9627 117.723 21.3902C119.329 22.9752 119.541 26.1309 117.718 27.4614C116.786 28.1423 116.47 29.5439 117.045 30.545C121.633 38.5275 122.354 43.7372 120.612 52.9115C117.532 62.8427 116.427 69.2653 116.122 77.8767C116.03 80.4534 119.059 81.8298 120.997 80.1291L129.913 72.3036C132.188 70.3073 135.779 72.6066 135.421 75.6118C135.065 78.6013 135.19 81.4006 135.846 84.7466C135.932 85.1847 135.927 85.638 135.826 86.0729C134.482 91.8362 134.379 94.6249 135.4 96.4659C136.006 97.5578 136.47 98.8092 136.097 100.001C134.523 105.027 134.422 107.69 135.949 109.705C136.629 110.602 136.664 112.806 136.355 113.888C135.732 116.07 131.066 114.471 128.099 113.236C127.148 112.84 126.026 112.895 125.33 113.653C122.204 117.059 121.857 123.848 122.982 130.183C124.136 181.752 94.597 191.73 82.2728 190.823C72.021 190.735 63.7095 181.512 63.7095 171.26C63.7095 161.008 72.0206 152.697 82.2728 152.697C88.116 152.697 89.2441 163.05 83.2728 163.05C78.4103 163.05 74.4684 166.992 74.4684 171.854C74.4684 176.717 78.4257 180.272 83.2728 180.659C99.9185 181.987 113.646 154.734 91.4124 135.918C72.5808 119.98 66.7088 94.317 88.3701 70.7908C91.497 67.3947 81.5205 55.3425 77.2037 57.3129C72.5121 59.4545 70.2313 61.3521 67.7622 64.1237C66.8171 65.1847 65.2715 65.5045 64.0165 64.8382C59.5561 62.47 56.7854 60.5284 58.3205 53.6025C58.5839 52.4142 59.62 51.5734 60.829 51.4326C66.2501 50.8013 69.1819 50.082 72.107 48.5941C72.8433 48.2196 73.3551 47.5152 73.5546 46.7136Z" fill="#292F33"/>
<path d="M116.738 20.008C116.964 20.5077 117.289 20.9627 117.723 21.3902C119.329 22.9752 119.541 26.1309 117.718 27.4614C116.786 28.1423 116.47 29.5439 117.045 30.545C109.393 23.3579 104.104 21.2692 92.8579 21.2136C94.2552 20.8753 95.308 19.6668 95.2841 18.2293C95.2732 17.5755 95.2513 16.9539 95.2144 16.3396C95.0622 13.8018 97.7199 11.9237 100.215 12.4107C101.265 12.6155 102.189 12.6137 103.094 12.4329C104.565 12.1392 106.139 12.5032 107.171 13.5912C108.807 15.3155 110.529 16.0909 112.928 16.3775C114.762 16.5965 115.977 18.3248 116.738 20.008Z" fill="#292F33"/>
<path d="M107.755 96.4258C107.755 111.307 127.774 123.373 137.696 123.373C147.619 123.373 137.696 111.307 137.696 96.4258C137.696 81.5449 147.619 69.4785 137.696 69.4785C127.774 69.4785 107.755 81.5449 107.755 96.4258Z" fill="#292F33"/>
<path d="M85.7513 41.166C87.9605 41.166 89.7513 39.3752 89.7513 37.166C89.7513 34.9569 87.9605 33.166 85.7513 33.166C83.5422 33.166 81.7513 34.9569 81.7513 37.166C81.7513 39.3752 83.5422 41.166 85.7513 41.166Z" fill="#E1E8ED"/>
<mask id="mask0_120_24" style="mask-type:alpha" maskUnits="userSpaceOnUse" x="57" y="12" width="86" height="179">
<path d="M73.5546 46.7136C77.7133 30.0105 82.2065 23.7924 92.8579 21.2136C94.2552 20.8753 95.308 19.6668 95.2841 18.2293C95.2732 17.5755 95.2513 16.9539 95.2144 16.3396C95.0621 13.8018 97.7199 11.9237 100.215 12.4107C101.265 12.6155 102.189 12.6137 103.094 12.4329C104.565 12.1392 106.139 12.5032 107.171 13.5912C108.807 15.3155 110.529 16.0909 112.928 16.3775C114.762 16.5965 115.977 18.3248 116.738 20.008C116.964 20.5077 117.289 20.9627 117.723 21.3902C119.329 22.9752 119.541 26.1309 117.718 27.4614C116.786 28.1423 116.47 29.5439 117.045 30.545C121.633 38.5275 122.354 43.7372 120.612 52.9115C117.532 62.8427 116.427 69.2653 116.122 77.8767C116.03 80.4534 119.059 81.8298 120.997 80.1291L129.913 72.3036C132.188 70.3073 135.779 72.6066 135.421 75.6118C135.065 78.6013 135.19 81.4006 135.846 84.7466C135.932 85.1847 135.927 85.638 135.826 86.0729C134.482 91.8362 134.379 94.6249 135.4 96.4659C136.006 97.5578 136.47 98.8092 136.097 100.001C134.523 105.027 134.422 107.69 135.949 109.705C136.629 110.602 136.664 112.806 136.355 113.888C135.732 116.07 131.066 114.471 128.099 113.236C127.148 112.84 126.026 112.895 125.33 113.653C122.204 117.059 121.857 123.848 122.982 130.183C124.136 181.752 94.597 191.73 82.2728 190.823C72.021 190.735 63.7095 181.512 63.7095 171.26C63.7095 161.008 72.0206 152.697 82.2728 152.697C88.116 152.697 89.2441 163.05 83.2728 163.05C78.4103 163.05 74.4684 166.992 74.4684 171.854C74.4684 176.717 78.4257 180.272 83.2728 180.659C99.9185 181.987 113.646 154.734 91.4124 135.918C72.5808 119.98 66.7088 94.317 88.3701 70.7908C91.497 67.3947 81.5205 55.3425 77.2037 57.3129C72.5121 59.4545 70.2313 61.3521 67.7622 64.1237C66.8171 65.1847 65.2715 65.5045 64.0165 64.8382C59.5561 62.47 56.7854 60.5284 58.3205 53.6025C58.5839 52.4142 59.62 51.5734 60.829 51.4326C66.2501 50.8013 69.1819 50.082 72.107 48.5941C72.8433 48.2196 73.3551 47.5152 73.5546 46.7136Z" fill="#292F33"/>
<path d="M116.738 20.008C116.964 20.5077 117.289 20.9627 117.723 21.3902C119.329 22.9752 119.541 26.1309 117.718 27.4614C116.786 28.1423 116.47 29.5439 117.045 30.545C109.393 23.3579 104.104 21.2692 92.8579 21.2136C94.2552 20.8753 95.308 19.6668 95.2841 18.2293C95.2732 17.5755 95.2513 16.9539 95.2144 16.3396C95.0621 13.8018 97.7199 11.9237 100.215 12.4107C101.265 12.6155 102.189 12.6137 103.094 12.4329C104.565 12.1392 106.139 12.5032 107.171 13.5912C108.807 15.3155 110.529 16.0909 112.928 16.3775C114.762 16.5965 115.977 18.3248 116.738 20.008Z" fill="#292F33"/>
<path d="M107.755 96.4256C107.755 111.306 127.774 123.373 137.696 123.373C147.619 123.373 137.696 111.306 137.696 96.4256C137.696 81.5447 147.619 69.4783 137.696 69.4783C127.774 69.4783 107.755 81.5447 107.755 96.4256Z" fill="#292F33"/>
</mask>
<g mask="url(#mask0_120_24)">
<path d="M116.903 87.6449C119.96 89.1656 124.052 96.0215 124.052 96.0215C125.381 98.0798 118.665 99.9818 118.665 99.9818C118.665 99.9818 116.308 95.9139 113.814 92.9949C111.321 90.076 104.74 85.2966 106.802 84.2724C108.865 83.2482 113.847 86.1241 116.903 87.6449Z" fill="#E1E8ED"/>
<path d="M116.501 157.757C119.909 157.546 126.88 161.437 126.88 161.437C129.061 162.555 124.195 167.561 124.195 167.561C124.195 167.561 120.12 165.216 116.501 163.935C112.882 162.654 104.793 161.805 106.067 159.887C107.342 157.969 113.094 157.969 116.501 157.757Z" fill="#E1E8ED"/>
<path d="M87.5881 179.99C84.9929 177.772 82.6904 170.127 82.6904 170.127C81.9009 167.807 88.8786 167.595 88.8786 167.595C88.8786 167.595 90.1761 172.114 91.885 175.552C93.5939 178.989 98.8158 185.225 96.5659 185.717C94.3159 186.209 90.1833 182.208 87.5881 179.99Z" fill="#E1E8ED"/>
<path d="M83.9441 189.059C84.1554 192.466 80.2641 199.438 80.2641 199.438C79.1464 201.618 74.1409 196.753 74.1409 196.753C74.1409 196.753 76.4852 192.677 77.7664 189.059C79.0476 185.44 79.8961 177.351 81.8145 178.625C83.7329 179.899 83.7329 185.651 83.9441 189.059Z" fill="#E1E8ED"/>
<path d="M76.0758 167.994C72.8391 169.08 65.0979 167.126 65.0979 167.126C62.7021 166.611 66.1066 160.516 66.1066 160.516C66.1066 160.516 70.6499 161.726 74.4769 162.027C78.3039 162.328 86.3372 161.054 85.6027 163.237C84.8683 165.42 79.3125 166.908 76.0758 167.994Z" fill="#E1E8ED"/>
<path d="M113.814 139.101C109.738 144.027 97.2177 148.293 97.2177 148.293L97.9405 155.409C97.9405 155.409 110.184 151.553 114.493 149.293C121.286 145.725 124.514 141.31 124.514 141.31V123.988C124.514 123.988 117.889 134.175 113.814 139.101Z" fill="#E1E8ED"/>
<path d="M97.1558 38.1214C96.5099 43.5408 100.977 46.6684 99.991 48.5822C99.0052 50.496 94.0197 43.7596 93.4083 38.6772C92.797 33.5947 92.8979 33.4166 89.9091 28.9736C86.9203 24.5306 85.4426 21.3155 85.4426 21.3155L88.3843 17.7795C88.3843 17.7795 90.9621 20.5991 92.9049 23.3754C94.8477 26.1517 97.8017 32.7021 97.1558 38.1214Z" fill="#E1E8ED"/>
<path d="M98.1715 129.571C94.7801 130.258 90.8174 134.23 88.9755 135.896C87.1337 137.563 93.2106 141.187 93.2106 141.187C93.2106 141.187 96.5854 137.822 99.7921 135.619C102.999 133.415 110.696 130.463 108.945 128.919C107.194 127.375 101.563 128.884 98.1715 129.571Z" fill="#E1E8ED"/>
<path d="M134.531 83.8016C138.577 84.0524 144.265 80.7594 146.854 79.4324C149.443 78.1055 143.666 72.1626 143.666 72.1626C143.666 72.1626 138.827 74.9459 134.531 76.4671C130.235 77.9882 120.631 78.9955 122.144 81.2732C123.657 83.5508 130.485 83.5508 134.531 83.8016Z" fill="#E1E8ED"/>
<path d="M116.604 92.5942C126.562 96.5766 138.505 84.6294 141.636 87.474C144.767 90.3186 125.711 101.415 115.753 99.9901C105.794 98.5656 104.07 95.4843 94.116 98.8978C84.1623 102.311 70.9063 109.969 70.9063 109.969L73.3758 99.9901C73.3758 99.9901 80.7016 96.1386 86.9597 93.8629C94.116 90.4172 106.645 88.6118 116.604 92.5942Z" fill="#E1E8ED"/>
<path d="M107.379 168.232C117.337 172.214 129.28 160.267 132.411 163.112C135.542 165.956 116.486 177.052 106.528 175.628C96.5693 174.203 94.8446 171.122 84.8909 174.535C74.9372 177.949 61.6812 185.607 61.6812 185.607L64.1507 175.628C64.1507 175.628 71.4765 171.776 77.7346 169.501C84.8909 166.055 97.4204 164.25 107.379 168.232Z" fill="#E1E8ED"/>
<path d="M132.48 105.998C142.438 109.98 154.381 98.0328 157.512 100.877C160.644 103.722 141.587 114.818 131.629 113.393C121.671 111.969 119.946 108.888 109.992 112.301C100.039 115.715 75.8377 139.622 75.8377 139.622L78.3072 129.642C78.3072 129.642 96.578 109.542 102.836 107.266C109.992 103.821 122.522 102.015 132.48 105.998Z" fill="#E1E8ED"/>
<path d="M107.871 106.168C107.871 106.168 98.6395 104.608 87.4033 108.675C72.118 114.204 65.8302 109.998 65.8302 109.998L62.1126 113.249C62.1126 113.249 72.6067 119.294 84.3626 115.603C99.8377 112.544 103.226 112.544 103.226 112.544L107.871 106.168Z" fill="#E1E8ED"/>
<path d="M102.702 66.118C105.817 64.3324 118.729 61.7545 118.729 61.7545L117.82 68.348C117.82 68.348 113.352 66.6903 103.54 71.142C91.7325 76.4978 84.0171 74.049 84.0171 74.049L88.1028 68.8395C88.1028 68.8395 96.7797 69.514 102.702 66.118Z" fill="#E1E8ED"/>
<path d="M69.1916 56.2874C72.7728 56.5444 84.9253 61.6124 84.9253 61.6124L80.4908 66.5758C80.4908 66.5758 77.7083 62.7062 67.0828 60.9238C54.2961 58.7771 49.2611 52.4388 49.2611 52.4388L55.5589 50.3968C55.5589 50.3968 62.382 55.7995 69.1916 56.2874Z" fill="#E1E8ED"/>
<path d="M98.8727 60.3743C96.167 62.7344 84.0079 67.7866 84.0079 67.7866L83.6105 61.1427C83.6105 61.1427 88.3169 61.8948 97.0686 55.6111C107.602 48.0503 125.927 48.7339 125.927 48.7339L124.347 54.69C124.347 54.69 104.017 55.886 98.8727 60.3743Z" fill="#E1E8ED"/>
<path d="M116.676 123.369C119.271 124.965 125.572 125.274 125.572 125.274L126.239 120.502C126.239 120.502 120.26 119.397 116.979 118.668C113.698 117.94 107.234 119.314 107.562 121.088C107.893 122.86 114.086 121.775 116.676 123.369Z" fill="#E1E8ED"/>
<path d="M115.68 41.7546C119.337 41.856 126.074 38.3939 126.074 38.3939L123.903 33.0317C123.903 33.0317 117.023 35.4722 113.173 36.6843C109.324 37.8964 103.428 43.2064 104.834 44.8538C106.242 46.4977 112.03 41.6517 115.68 41.7546Z" fill="#E1E8ED"/>
<path d="M104.153 19.0189C104.255 15.3628 100.793 8.62521 100.793 8.62521L95.4305 10.7966C95.4305 10.7966 97.871 17.6766 99.0831 21.5258C100.295 25.3751 105.605 31.2715 107.253 29.8654C108.897 28.4572 104.05 22.6693 104.153 19.0189Z" fill="#E1E8ED"/>
<path d="M121.168 26.8262C124.726 25.9779 130.338 20.8899 130.338 20.8899L126.853 16.2725C126.853 16.2725 120.839 20.4105 117.435 22.5776C114.03 24.7446 109.709 31.3997 111.494 32.6272C113.279 33.8506 117.616 27.6716 121.168 26.8262Z" fill="#E1E8ED"/>
<path d="M79.2545 44.4868C77.5143 41.2699 71.1472 37.166 71.1472 37.166L67.5892 41.7276C67.5892 41.7276 73.1427 46.4655 76.117 49.1931C79.0914 51.9206 86.6381 54.372 87.3618 52.3306C88.0814 50.2891 80.9906 47.6996 79.2545 44.4868Z" fill="#E1E8ED"/>
<path d="M89.0465 80.7502C84.9493 79.7249 76.4897 81.9498 76.4897 81.9498L77.602 88.537C77.602 88.537 85.9676 87.4994 90.6099 87.0919C95.2522 86.6843 103.224 82.1662 102.049 79.9582C100.871 77.7538 93.1369 81.7758 89.0465 80.7502Z" fill="#E1E8ED"/>
</g>
</g>
<defs>
<clipPath id="clip0_120_24">
<rect width="200" height="200" fill="white"/>
</clipPath>
<clipPath id="clip1_120_24">
<rect width="200" height="200" fill="white"/>
</clipPath>
</defs>
</svg>
