<svg width="201" height="200" viewBox="0 0 201 200" fill="none" xmlns="http://www.w3.org/2000/svg">
<g clip-path="url(#clip0_118_9)">
<path d="M84.2306 21.4528C91.5437 8.78618 109.826 8.78621 117.14 21.4529L195.857 157.795C203.17 170.462 194.029 186.295 179.402 186.295H21.9676C7.34142 186.295 -1.79993 170.462 5.51318 157.795L84.2306 21.4528Z" fill="#FFC0CB"/>
<path d="M108.609 115.714C119.29 116.327 127.518 118.933 133.293 123.533C139.068 128.081 141.956 134.265 141.956 142.085C141.956 151.08 137.663 158.541 129.077 164.469C120.491 170.398 109.503 173.362 96.1129 173.362C84.1028 173.362 74.5714 171.42 67.5187 167.536C60.517 163.652 57.0162 158.464 57.0162 151.974C57.0162 147.988 58.2939 144.768 60.8492 142.315C63.4557 139.862 66.8798 138.635 71.1217 138.635C72.5527 138.635 74.0092 138.763 75.4913 139.018C76.9734 139.274 78.5066 139.657 80.0909 140.168L85.3805 160.79C87.3737 161.199 89.0857 161.505 90.5167 161.71C91.9988 161.914 93.2765 162.016 94.3497 162.016C99.9715 162.016 104.52 160.253 107.995 156.727C111.47 153.149 113.208 148.473 113.208 142.698C113.208 136.872 111.189 132.298 107.152 128.976C103.166 125.603 97.6972 123.916 90.7467 123.916C88.9069 123.916 87.1181 124.018 85.3805 124.223C83.6429 124.427 81.9308 124.734 80.2443 125.143V111.497C81.3686 111.651 82.4419 111.778 83.464 111.881C84.4861 111.932 85.4572 111.957 86.3771 111.957C93.532 111.957 99.1282 110.399 103.166 107.281C107.254 104.112 109.298 99.7939 109.298 94.3254C109.298 88.4993 107.459 83.9252 103.779 80.6033C100.099 77.2302 95.0141 75.5437 88.5236 75.5437C88.2169 75.5437 87.757 75.5693 87.1437 75.6204C86.5304 75.6715 86.0449 75.697 85.6871 75.697V97.6218C83.8984 98.5417 82.0841 99.2317 80.2443 99.6917C78.4555 100.101 76.6157 100.305 74.7247 100.305C70.2784 100.305 66.7265 99.1295 64.069 96.7786C61.4625 94.4277 60.1593 91.3101 60.1593 87.426C60.1593 80.6288 63.8134 75.0582 71.1217 70.7141C78.4811 66.37 88.1147 64.198 100.023 64.198C111.522 64.198 120.695 66.6256 127.544 71.4807C134.392 76.2847 137.816 82.6475 137.816 90.5691C137.816 97.0597 135.286 102.503 130.227 106.898C125.167 111.242 117.961 114.18 108.609 115.714Z" fill="#FF6681"/>
</g>
<defs>
<clipPath id="clip0_118_9">
<rect width="200" height="200" fill="white" transform="translate(0.685059)"/>
</clipPath>
</defs>
</svg>
