<svg width="201" height="200" viewBox="0 0 201 200" fill="none" xmlns="http://www.w3.org/2000/svg">
<g clip-path="url(#clip0_118_3)">
<path d="M84.4405 21.4528C91.7536 8.78618 110.036 8.78621 117.349 21.4529L196.067 157.795C203.38 170.462 194.239 186.295 179.612 186.295H22.1776C7.55138 186.295 -1.58996 170.462 5.72314 157.795L84.4405 21.4528Z" fill="#4A8BC3"/>
<path d="M108.818 115.714C119.5 116.327 127.728 118.933 133.503 123.533C139.278 128.081 142.166 134.265 142.166 142.085C142.166 151.08 137.873 158.541 129.287 164.469C120.701 170.398 109.713 173.362 96.3229 173.362C84.3128 173.362 74.7814 171.42 67.7286 167.536C60.727 163.652 57.2262 158.464 57.2262 151.974C57.2262 147.988 58.5039 144.768 61.0592 142.315C63.6656 139.862 67.0898 138.635 71.3317 138.635C72.7627 138.635 74.2192 138.763 75.7013 139.018C77.1834 139.274 78.7166 139.657 80.3009 140.168L85.5905 160.79C87.5836 161.199 89.2957 161.505 90.7267 161.71C92.2088 161.914 93.4865 162.016 94.5597 162.016C100.181 162.016 104.73 160.253 108.205 156.727C111.68 153.149 113.418 148.473 113.418 142.698C113.418 136.872 111.399 132.298 107.362 128.976C103.376 125.603 97.9072 123.916 90.9567 123.916C89.1168 123.916 87.3281 124.018 85.5905 124.223C83.8528 124.427 82.1407 124.734 80.4542 125.143V111.497C81.5786 111.651 82.6518 111.778 83.674 111.881C84.6961 111.932 85.6671 111.957 86.587 111.957C93.742 111.957 99.3382 110.399 103.376 107.281C107.464 104.112 109.508 99.7939 109.508 94.3254C109.508 88.4993 107.669 83.9252 103.989 80.6033C100.309 77.2302 95.2241 75.5437 88.7335 75.5437C88.4269 75.5437 87.9669 75.5693 87.3536 75.6204C86.7404 75.6715 86.2548 75.697 85.8971 75.697V97.6218C84.1084 98.5417 82.2941 99.2317 80.4542 99.6917C78.6655 100.101 76.8256 100.305 74.9347 100.305C70.4884 100.305 66.9365 99.1295 64.2789 96.7786C61.6725 94.4277 60.3693 91.3101 60.3693 87.426C60.3693 80.6288 64.0234 75.0582 71.3317 70.7141C78.691 66.37 88.3247 64.198 100.233 64.198C111.732 64.198 120.905 66.6256 127.754 71.4807C134.602 76.2847 138.026 82.6475 138.026 90.5691C138.026 97.0597 135.496 102.503 130.437 106.898C125.377 111.242 118.171 114.18 108.818 115.714Z" fill="#C2E2FE"/>
</g>
<defs>
<clipPath id="clip0_118_3">
<rect width="200" height="200" fill="white" transform="translate(0.89502)"/>
</clipPath>
</defs>
</svg>
