<svg width="201" height="200" viewBox="0 0 201 200" fill="none" xmlns="http://www.w3.org/2000/svg">
<g clip-path="url(#clip0_118_12)">
<path d="M84.1256 21.4528C91.4387 8.78618 109.721 8.78621 117.035 21.4529L195.752 157.795C203.065 170.462 193.924 186.295 179.297 186.295H21.8626C7.23644 186.295 -1.90491 170.462 5.4082 157.795L84.1256 21.4528Z" fill="#FFC107"/>
<path d="M108.504 115.714C119.185 116.327 127.413 118.933 133.188 123.533C138.963 128.081 141.851 134.265 141.851 142.085C141.851 151.08 137.558 158.541 128.972 164.469C120.386 170.398 109.398 173.362 96.0079 173.362C83.9978 173.362 74.4664 171.42 67.4137 167.536C60.4121 163.652 56.9113 158.464 56.9113 151.974C56.9113 147.988 58.1889 144.768 60.7443 142.315C63.3507 139.862 66.7749 138.635 71.0167 138.635C72.4477 138.635 73.9043 138.763 75.3864 139.018C76.8684 139.274 78.4017 139.657 79.986 140.168L85.2755 160.79C87.2687 161.199 88.9808 161.505 90.4117 161.71C91.8938 161.914 93.1715 162.016 94.2448 162.016C99.8665 162.016 104.415 160.253 107.89 156.727C111.366 153.149 113.103 148.473 113.103 142.698C113.103 136.872 111.084 132.298 107.047 128.976C103.061 125.603 97.5922 123.916 90.6417 123.916C88.8019 123.916 87.0131 124.018 85.2755 124.223C83.5379 124.427 81.8258 124.734 80.1393 125.143V111.497C81.2636 111.651 82.3369 111.778 83.359 111.881C84.3811 111.932 85.3522 111.957 86.2721 111.957C93.427 111.957 99.0232 110.399 103.061 107.281C107.149 104.112 109.193 99.7939 109.193 94.3254C109.193 88.4993 107.354 83.9252 103.674 80.6033C99.9943 77.2302 94.9091 75.5437 88.4186 75.5437C88.1119 75.5437 87.652 75.5693 87.0387 75.6204C86.4254 75.6715 85.9399 75.697 85.5822 75.697V97.6218C83.7934 98.5417 81.9791 99.2317 80.1393 99.6917C78.3505 100.101 76.5107 100.305 74.6198 100.305C70.1735 100.305 66.6215 99.1295 63.964 96.7786C61.3575 94.4277 60.0543 91.3101 60.0543 87.426C60.0543 80.6288 63.7085 75.0582 71.0167 70.7141C78.3761 66.37 88.0097 64.198 99.9176 64.198C111.417 64.198 120.59 66.6256 127.439 71.4807C134.287 76.2847 137.711 82.6475 137.711 90.5691C137.711 97.0597 135.181 102.503 130.122 106.898C125.062 111.242 117.856 114.18 108.504 115.714Z" fill="#725500"/>
</g>
<defs>
<clipPath id="clip0_118_12">
<rect width="200" height="200" fill="white" transform="translate(0.580078)"/>
</clipPath>
</defs>
</svg>
