<svg width="201" height="200" viewBox="0 0 201 200" fill="none" xmlns="http://www.w3.org/2000/svg">
<g clip-path="url(#clip0_118_6)">
<path d="M84.3356 21.4528C91.6487 8.78618 109.931 8.78621 117.245 21.4529L195.962 157.795C203.275 170.462 194.134 186.295 179.507 186.295H22.0726C7.4464 186.295 -1.69495 170.462 5.61816 157.795L84.3356 21.4528Z" fill="#BE4AC3"/>
<path d="M108.714 115.714C119.395 116.327 127.623 118.933 133.398 123.533C139.173 128.081 142.061 134.265 142.061 142.085C142.061 151.08 137.768 158.541 129.182 164.469C120.596 170.398 109.608 173.362 96.2179 173.362C84.2078 173.362 74.6764 171.42 67.6237 167.536C60.622 163.652 57.1212 158.464 57.1212 151.974C57.1212 147.988 58.3989 144.768 60.9542 142.315C63.5607 139.862 66.9848 138.635 71.2267 138.635C72.6577 138.635 74.1142 138.763 75.5963 139.018C77.0784 139.274 78.6116 139.657 80.1959 140.168L85.4855 160.79C87.4786 161.199 89.1907 161.505 90.6217 161.71C92.1038 161.914 93.3815 162.016 94.4547 162.016C100.076 162.016 104.625 160.253 108.1 156.727C111.575 153.149 113.313 148.473 113.313 142.698C113.313 136.872 111.294 132.298 107.257 128.976C103.271 125.603 97.8022 123.916 90.8517 123.916C89.0118 123.916 87.2231 124.018 85.4855 124.223C83.7478 124.427 82.0358 124.734 80.3492 125.143V111.497C81.4736 111.651 82.5468 111.778 83.569 111.881C84.5911 111.932 85.5621 111.957 86.4821 111.957C93.637 111.957 99.2332 110.399 103.271 107.281C107.359 104.112 109.403 99.7939 109.403 94.3254C109.403 88.4993 107.564 83.9252 103.884 80.6033C100.204 77.2302 95.1191 75.5437 88.6285 75.5437C88.3219 75.5437 87.8619 75.5693 87.2487 75.6204C86.6354 75.6715 86.1499 75.697 85.7921 75.697V97.6218C84.0034 98.5417 82.1891 99.2317 80.3492 99.6917C78.5605 100.101 76.7207 100.305 74.8297 100.305C70.3834 100.305 66.8315 99.1295 64.174 96.7786C61.5675 94.4277 60.2643 91.3101 60.2643 87.426C60.2643 80.6288 63.9184 75.0582 71.2267 70.7141C78.5861 66.37 88.2197 64.198 100.128 64.198C111.627 64.198 120.8 66.6256 127.649 71.4807C134.497 76.2847 137.921 82.6475 137.921 90.5691C137.921 97.0597 135.391 102.503 130.332 106.898C125.272 111.242 118.066 114.18 108.714 115.714Z" fill="#FCB8FF"/>
</g>
<defs>
<clipPath id="clip0_118_6">
<rect width="200" height="200" fill="white" transform="translate(0.790039)"/>
</clipPath>
</defs>
</svg>
