<svg width="200" height="200" viewBox="0 0 200 200" fill="none" xmlns="http://www.w3.org/2000/svg">
<mask id="mask0_201_19" style="mask-type:alpha" maskUnits="userSpaceOnUse" x="5" y="5" width="195" height="195">
<path d="M58.2113 124.661C58.2113 124.661 62.1113 137.333 56.3391 169.067C55.3057 174.761 53.7835 180.578 53.0113 185.344C43.2502 185.344 42.728 196.467 44.8002 196.467H56.4335C63.8613 196.467 72.9391 177.944 77.8446 152.239C82.7502 126.533 58.2113 124.661 58.2113 124.661ZM130.667 145.228C130.667 145.228 143.289 152.006 142.822 167.9C142.639 174.183 141.439 179.517 140.85 184.7C130.672 184.7 130.634 195.728 133.6 195.728H143.911C149.039 195.728 160.584 178.183 162.684 155.278C164.789 132.378 130.667 145.228 130.667 145.228Z" fill="#F18F26"/>
<path d="M200 46.9278C200 19.5833 176.994 5.55554 150 5.55554C146.928 5.55554 144.444 8.04443 144.444 11.1111C144.444 14.1778 146.928 16.6667 150 16.6667C160.022 16.6667 187.316 21.8555 187.316 46.9278C187.316 62.9333 178.611 77.2722 166.372 80.1611C165.461 79.7555 164.455 79.5833 163.544 79.0944C123.328 57.3333 88.7831 84.1055 78.9554 77.4833C69.222 70.9167 75.9609 59.4 63.2665 48.3555C61.4331 38.1278 57.3054 23.4833 53.2998 23.4833C50.2498 23.4833 46.272 33.6222 43.6331 43.7944C40.3498 36.1222 36.0609 28.4833 33.2998 28.4833C29.7442 28.4833 26.1998 41.1111 24.4443 52.0111C15.1109 58.3833 8.2998 67.6167 8.2998 78.4833C8.2998 93.4833 30.7998 97.1333 38.2998 97.4333C45.7998 97.7333 55.0943 117.222 58.2165 125.611C65.1165 149.872 69.6109 173.939 73.2054 187.739C64.0442 187.739 63.1831 199.467 65.7165 199.467C69.6776 199.467 76.5665 199.45 78.0776 199.467C85.7498 199.544 89.3331 173.322 89.3331 150.306C89.3331 149.128 89.272 146.822 89.272 146.822C89.272 146.822 99.9943 149.628 122.816 145.667C136.394 143.311 150.761 150.383 154.739 163.239C157.666 172.706 162.511 181.6 165.116 188.15C156.289 188.15 156.533 199.467 159.094 199.467C163.466 199.467 169.1 199.544 171.222 199.467C179.378 199.161 174.794 157.389 176.944 143.372C179.094 129.356 183.983 112.383 175.672 94.5C193.65 84.6444 200 63.9167 200 46.9278Z" fill="#FFCC4E"/>
<path d="M33.2998 70.3778C36.0612 70.3778 38.2998 68.1392 38.2998 65.3778C38.2998 62.6164 36.0612 60.3778 33.2998 60.3778C30.5384 60.3778 28.2998 62.6164 28.2998 65.3778C28.2998 68.1392 30.5384 70.3778 33.2998 70.3778Z" fill="#292F33"/>
<path d="M16.5776 71.4445C12.8165 73.7945 12.8165 81.3167 10.9387 81.3167C9.06092 81.3167 5.29981 76.8945 5.29981 71.4445C5.29425 65.9945 21.1998 68.5556 16.5776 71.4445Z" fill="#E75A70"/>
<path d="M36.5445 79.6834C36.3168 79.8278 36.0445 79.8834 35.7557 79.8278C35.6557 79.8056 27.1557 78.4889 21.6168 80.6389C20.9001 80.9167 19.7223 80.5112 19.3223 79.5778C18.9223 78.6445 19.4501 77.5501 20.1668 77.2723C28.1668 74.1112 36.039 75.9723 36.4668 76.0612C37.239 76.2223 37.5501 77.1167 37.5112 78.1278C37.489 78.7612 36.9334 79.4334 36.5445 79.6834ZM33.9223 92.6778C33.6557 92.7278 33.3834 92.6723 33.139 92.5056C33.0557 92.4501 25.7445 87.8945 19.7945 87.7667C19.0279 87.7501 18.1001 86.9112 18.1001 85.8723C18.1001 84.8389 19.0168 84.0112 19.789 84.0223C28.4112 84.1556 34.9223 88.9723 35.2834 89.2278C35.9334 89.6834 35.8612 90.6445 35.4334 91.5834C35.1612 92.1778 34.3834 92.5945 33.9223 92.6778Z" fill="#FEE7B8"/>
<path d="M43.6334 43.7833C43.6334 43.7833 45.7001 43.5667 48.4056 43.9667C49.6112 41.4111 51.6556 39.0389 51.6556 39.0389C51.6556 39.0389 53.2167 42.75 53.8001 45.5889C53.939 46.2556 55.0112 46.2389 55.589 46.6389C55.589 46.6389 55.8001 27.4 50.7945 25.3278C50.8001 25.3167 46.6001 31.5722 43.6334 43.7833ZM24.439 52C24.439 52 26.5723 50.5167 29.3445 48.8111C30.5501 45.3444 32.5001 41.4056 32.5001 41.4056C32.5001 41.4056 34.2056 44.75 34.4167 45.9055C35.5834 45.2722 35.5834 45.3167 36.6556 44.85C36.6556 44.85 36.0223 32.15 30.5501 30.8111C30.5501 30.8111 26.4834 38.4333 24.439 52Z" fill="#F18F26"/>
<path d="M102.5 131.356C87.7835 134.522 89.2779 146.811 89.2779 146.811C89.2779 146.811 100 149.617 122.822 145.656C128.75 144.628 134.783 145.489 140.083 147.75C131.156 130.822 116.111 128.422 102.5 131.356Z" fill="#FFDD99"/>
<path d="M81.5889 78.3833C84.2333 82.1388 94.9055 91.5388 96.8389 90.3777C98.7166 89.25 100.117 78.9611 98.7389 75.3444C91.3555 77.3389 85.4889 79 81.5889 78.3833ZM120.611 93.3222C124.072 94.0888 128.983 76.7722 128.444 70.4166C120.394 70.5111 113 71.8388 106.417 73.4C108.278 79.4 117.267 92.5777 120.611 93.3222ZM135.206 70.6444C135.439 74.6611 140.661 85.1055 142.344 85.85C144.05 86.6111 151.706 78.5222 152.711 74.4C146.678 72.3 140.811 71.0833 135.206 70.6444Z" fill="#F18F26"/>
</mask>
<g mask="url(#mask0_201_19)">
<path d="M58.2113 124.661C58.2113 124.661 62.1113 137.333 56.3391 169.067C55.3057 174.761 53.7835 180.578 53.0113 185.344C43.2502 185.344 42.728 196.467 44.8002 196.467H56.4335C63.8613 196.467 72.9391 177.944 77.8446 152.239C82.7502 126.533 58.2113 124.661 58.2113 124.661ZM130.667 145.228C130.667 145.228 143.289 152.006 142.822 167.9C142.639 174.183 141.439 179.517 140.85 184.7C130.672 184.7 130.634 195.728 133.6 195.728H143.911C149.039 195.728 160.584 178.183 162.684 155.278C164.789 132.378 130.667 145.228 130.667 145.228Z" fill="#A0A0A0"/>
<path d="M200 46.9278C200 19.5833 176.994 5.55554 150 5.55554C146.928 5.55554 144.444 8.04443 144.444 11.1111C144.444 14.1778 146.928 16.6667 150 16.6667C160.022 16.6667 187.316 21.8555 187.316 46.9278C187.316 62.9333 178.611 77.2722 166.372 80.1611C165.461 79.7555 164.455 79.5833 163.544 79.0944C123.328 57.3333 88.7831 84.1055 78.9554 77.4833C69.222 70.9167 75.9609 59.4 63.2665 48.3555C61.4331 38.1278 57.3054 23.4833 53.2998 23.4833C50.2498 23.4833 46.272 33.6222 43.6331 43.7944C40.3498 36.1222 36.0609 28.4833 33.2998 28.4833C29.7442 28.4833 26.1998 41.1111 24.4442 52.0111C15.1109 58.3833 8.2998 67.6167 8.2998 78.4833C8.2998 93.4833 30.7998 97.1333 38.2998 97.4333C45.7998 97.7333 55.0943 117.222 58.2165 125.611C65.1165 149.872 69.6109 173.939 73.2054 187.739C64.0442 187.739 63.1831 199.467 65.7165 199.467C69.6776 199.467 76.5665 199.45 78.0776 199.467C85.7498 199.544 89.3331 173.322 89.3331 150.306C89.3331 149.128 89.272 146.822 89.272 146.822C89.272 146.822 99.9943 149.628 122.816 145.667C136.394 143.311 150.761 150.383 154.739 163.239C157.666 172.706 162.511 181.6 165.116 188.15C156.289 188.15 156.533 199.467 159.094 199.467C163.466 199.467 169.1 199.544 171.222 199.467C179.378 199.161 174.794 157.389 176.944 143.372C179.094 129.356 183.983 112.383 175.672 94.5C193.65 84.6444 200 63.9167 200 46.9278Z" fill="#F8F8F8"/>
<path d="M43.4519 87.243C37.5327 83.7308 51.1388 57.0265 108.441 46.2711C108.545 56.5276 92.8845 59.4676 105.73 75.4958C92.1712 82.7622 49.2012 90.6543 43.4519 87.243Z" fill="#F18F26"/>
<path d="M43.4519 87.243C37.5327 83.7308 51.1388 57.0265 108.441 46.2711C108.545 56.5276 92.8845 59.4676 105.73 75.4958C92.1712 82.7622 49.2012 90.6543 43.4519 87.243Z" fill="#F18F26"/>
<path d="M33.2998 70.3778C36.0612 70.3778 38.2998 68.1392 38.2998 65.3778C38.2998 62.6164 36.0612 60.3778 33.2998 60.3778C30.5384 60.3778 28.2998 62.6164 28.2998 65.3778C28.2998 68.1392 30.5384 70.3778 33.2998 70.3778Z" fill="#292F33"/>
<path d="M16.5776 71.4445C12.8165 73.7945 12.8165 81.3167 10.9387 81.3167C9.06092 81.3167 5.29981 76.8945 5.29981 71.4445C5.29425 65.9945 21.1998 68.5556 16.5776 71.4445Z" fill="#E75A70"/>
<path d="M90.5416 34.975C90.5416 42.35 78.377 48.3286 63.3712 48.3286C50.6365 54.0298 44.6212 59.4525 44.6212 52.0775C42.7864 45.0017 41.028 19.8781 63.3712 21.6213C78.377 21.6213 90.5416 27.6 90.5416 34.975Z" fill="#F18F26"/>
<path d="M36.5445 79.6834C36.3168 79.8278 36.0445 79.8834 35.7557 79.8278C35.6557 79.8056 27.1557 78.4889 21.6168 80.6389C20.9001 80.9167 19.7223 80.5112 19.3223 79.5778C18.9223 78.6445 19.4501 77.5501 20.1668 77.2723C28.1668 74.1112 36.039 75.9723 36.4668 76.0612C37.239 76.2223 37.5501 77.1167 37.5112 78.1278C37.489 78.7612 36.9334 79.4334 36.5445 79.6834ZM33.9223 92.6778C33.6557 92.7278 33.3834 92.6723 33.139 92.5056C33.0557 92.45 25.7445 87.8945 19.7945 87.7667C19.0279 87.7501 18.1001 86.9112 18.1001 85.8723C18.1001 84.8389 19.0168 84.0112 19.789 84.0223C28.4112 84.1556 34.9223 88.9723 35.2834 89.2278C35.9334 89.6834 35.8612 90.6445 35.4334 91.5834C35.1612 92.1778 34.3834 92.5945 33.9223 92.6778Z" fill="#292F33"/>
<path d="M17.2672 58.9603C13.5607 56.8488 12.4136 34.8357 36.6282 24.6901C39.3511 31.6944 45.5535 42.612 43.069 45.3449C38.57 50.9722 20.8673 61.0111 17.2672 58.9603Z" fill="#292F33"/>
<path d="M43.7051 43.6039C43.7051 43.6039 45.7717 43.3873 48.4773 43.7873C49.6829 41.2317 51.7273 38.8595 51.7273 38.8595C51.7273 38.8595 53.2884 42.5706 53.8717 45.4095C54.0106 46.0762 55.0829 46.0595 55.6606 46.4595C55.6606 46.4595 53.2551 21.2778 50.8662 25.1484C48.4773 29.0189 46.6717 31.3928 43.7051 43.6039Z" fill="#C6741D"/>
<path d="M29.3445 48.8112C26.5723 50.5167 24.439 52.0001 24.439 52.0001C26.4834 38.4334 28.329 34.8341 30.5501 30.8112C32.7712 26.7882 36.6556 44.8501 36.6556 44.8501C35.5834 45.3167 35.5834 45.2723 34.4167 45.9056C34.2056 44.7501 32.5001 41.4056 32.5001 41.4056C32.5001 41.4056 30.5501 45.3445 29.3445 48.8112Z" fill="#584B3D"/>
<path d="M102.5 131.356C87.7835 134.522 89.2779 146.811 89.2779 146.811C89.2779 146.811 100 149.617 122.822 145.656C128.75 144.628 134.783 145.489 140.083 147.75C131.156 130.822 116.111 128.422 102.5 131.356Z" fill="#D8D8D8"/>
<path d="M134.558 131.939C144.948 134.241 157.536 85.7366 155.919 66.6577C131.753 66.9412 109.556 70.9271 89.793 75.6134C95.3799 93.625 124.519 129.705 134.558 131.939Z" fill="#F18F26"/>
<path d="M99.4009 126.53C93.1099 130.309 64.6568 114.551 70.3312 68.8737C83.0217 70.8803 81.4717 83.3641 105.497 76.8742C109.98 88.6428 105.511 122.861 99.4009 126.53Z" fill="#F18F26"/>
<path d="M96.1695 109.153C91.5874 111.905 70.8633 100.428 74.9964 67.158C84.2396 68.6195 83.1106 77.7122 100.609 72.9852C103.875 81.5569 100.62 106.48 96.1695 109.153Z" fill="#292F33"/>
<path d="M54.9315 75.6031C51.2725 73.5739 50.9417 55.0326 75.1134 44.8128C77.7404 51.651 71.1344 54.4445 81.1879 64.4572C76.655 70.0259 58.4854 77.5739 54.9315 75.6031Z" fill="#292F33"/>
<path d="M132.472 106.506C138.197 107.774 146.321 79.1296 145.429 68.6166C132.113 68.7728 118.296 69.8796 107.407 72.4619C110.485 82.3868 126.94 105.274 132.472 106.506Z" fill="#292F33"/>
<path d="M200 46.2042C200.239 81.2678 179.338 96.5565 164.389 98.0361C144.602 98.0361 128.347 74.8185 128.347 46.2042C128.347 17.59 144.387 -5.60645 164.173 -5.60645C183.96 -5.60645 199.761 11.1406 200 46.2042Z" fill="#292F33"/>
<circle cx="147.564" cy="8.30328" r="3.67938" fill="#D8D8D8"/>
</g>
</svg>
