<svg width="200" height="200" viewBox="0 0 200 200" fill="none" xmlns="http://www.w3.org/2000/svg">
<g clip-path="url(#clip0_314_2)">
<path d="M0 112.275L38.9889 78.1597L116.967 83.0333L121.84 161.011L87.7251 200C87.7251 200 87.73 170.763 58.4834 141.517C29.2368 112.27 0 112.275 0 112.275Z" fill="#78492B"/>
<path d="M194.788 4.09028C184.763 -5.90704 146.379 20.5016 77.8077 77.6444C43.522 106.216 31.522 145.644 42.9506 157.073C54.3792 168.502 93.8077 156.501 122.379 122.216C179.522 53.6443 204.813 14.0876 194.788 4.09028Z" fill="#9C582D"/>
<path d="M27.5276 171.501C27.5276 171.501 27.5276 148.644 33.2419 142.93C38.9562 137.216 107.533 80.0785 113.242 85.787C118.95 91.4956 61.8076 160.073 56.0933 165.787C50.379 171.501 27.5276 171.501 27.5276 171.501Z" fill="#60351B"/>
<circle cx="156.347" cy="51.8011" r="2.69031" fill="#D7773B"/>
<circle cx="127.974" cy="63.5851" r="2.69031" fill="#D7773B"/>
<circle cx="41.443" cy="95.1136" r="2.69031" fill="#B95618"/>
<circle cx="104.697" cy="126.368" r="4.69666" fill="#D7773B"/>
<circle cx="182.875" cy="22.349" r="4.69666" fill="#D7773B"/>
<circle cx="93.3116" cy="80.6901" r="4.69666" fill="#D7773B"/>
<circle cx="93.3116" cy="172.706" r="4.69666" fill="#B95618"/>
</g>
<defs>
<clipPath id="clip0_314_2">
<rect width="200" height="200" fill="white"/>
</clipPath>
</defs>
</svg>
