<svg width="200" height="200" viewBox="0 0 200 200" fill="none" xmlns="http://www.w3.org/2000/svg">
<g clip-path="url(#clip0_304_138)">
<path d="M50.2771 149.673C51.7385 149.398 53.302 149.877 54.3626 151.071C65.5703 163.701 79.9599 161.442 84.6897 160.704C87.0781 160.326 89.3173 161.961 89.6905 164.345C90.0676 166.734 88.3823 168.906 86.0489 169.346C70.2254 171.829 57.36 167.637 47.814 156.881C46.2113 155.074 46.3723 152.305 48.1833 150.698C48.804 150.156 49.5307 149.814 50.2771 149.673Z" fill="#C6823E"/>
<path d="M85.3773 152.78C87.2826 154.183 88.9442 155.239 90.1778 156.009L91.0381 156.555C93.073 157.867 95.7757 157.278 97.0878 155.243C98.3959 153.212 97.8066 150.478 95.7757 149.194L94.8486 148.604C89.616 145.297 77.332 137.562 73.9732 118.702C73.545 116.325 71.2705 114.734 68.9017 115.162C66.5211 115.586 64.938 117.861 65.3622 120.234C68.5246 138.01 78.4791 147.697 85.3773 152.78Z" fill="#C6823E"/>
<path d="M84.2381 162.098C86.4969 162.794 90.826 163.784 90.826 163.784C93.1791 164.345 95.5361 162.9 96.1018 160.543C96.6635 158.198 95.1983 155.805 92.8609 155.267L91.7884 155.02C85.7584 153.633 71.6084 150.404 62.1842 133.72C60.9939 131.618 58.3226 130.872 56.221 132.062C54.1153 133.249 53.3729 135.924 54.5632 138.025C63.4452 153.743 76.0514 159.584 84.2381 162.098Z" fill="#C6823E"/>
<path d="M153.458 149.157C151.996 148.882 150.433 149.361 149.372 150.556C138.165 163.185 123.775 160.927 119.045 160.188C116.657 159.811 114.418 161.445 114.044 163.83C113.667 166.218 115.353 168.39 117.686 168.83C133.509 171.313 146.375 167.122 155.921 156.366C157.524 154.559 157.363 151.789 155.552 150.182C154.931 149.64 154.204 149.299 153.458 149.157Z" fill="#C6823E"/>
<path d="M118.358 152.265C116.452 153.667 114.791 154.724 113.557 155.494L112.697 156.04C110.662 157.352 107.959 156.763 106.647 154.728C105.339 152.697 105.928 149.963 107.959 148.678L108.886 148.089C114.119 144.781 126.403 137.046 129.762 118.186C130.19 115.809 132.464 114.218 134.833 114.646C137.214 115.071 138.797 117.345 138.373 119.718C135.21 137.494 125.256 147.181 118.358 152.265Z" fill="#C6823E"/>
<path d="M119.497 161.583C117.238 162.278 112.909 163.268 112.909 163.268C110.556 163.83 108.199 162.384 107.633 160.027C107.071 157.682 108.537 155.29 110.874 154.751L111.946 154.504C117.976 153.117 132.126 149.888 141.551 133.204C142.741 131.103 145.412 130.356 147.514 131.547C149.62 132.733 150.362 135.408 149.172 137.51C140.29 153.227 127.683 159.069 119.497 161.583Z" fill="#C6823E"/>
<path d="M73.6385 95.8109C71.2336 95.8109 70.5911 102.251 82.7771 105.151C94.9631 108.052 88.5048 101.928 86.6249 99.0309C84.2164 95.3262 73.6385 95.8109 73.6385 95.8109Z" fill="#C6823E"/>
<path d="M128.005 176.798C130.733 179.206 125.014 187.155 108.285 178.244C91.5564 169.333 105.015 168.852 110.048 167.448C116.486 165.653 128.005 176.798 128.005 176.798Z" fill="#C6823E"/>
<path d="M74.2818 176.893C71.5536 179.301 77.273 187.25 94.0016 178.339C110.73 169.428 97.2715 168.947 92.2383 167.543C85.8007 165.748 74.2818 176.893 74.2818 176.893Z" fill="#C6823E"/>
<path d="M85.9162 155.011C84.8773 160.494 85.4996 189.55 102.366 191.744V152.822L85.9162 155.011Z" fill="#A86F37"/>
<path d="M138.166 90.6277C141.805 90.6277 142.777 100.372 124.338 104.761C105.899 109.15 115.672 99.8833 118.516 95.5C122.155 89.8944 138.166 90.6277 138.166 90.6277Z" fill="#C6823E"/>
<path d="M97.4493 86.4445C96.016 86.4445 94.7937 85.3389 94.6826 83.8834C91.916 48.6056 80.0437 7.97226 61.2493 5.77782C59.7271 5.60004 58.6326 4.22226 58.816 2.69448C58.9937 1.17781 60.3382 0.094482 61.8993 0.261149C79.5325 0.261149 96.1771 31.8889 100.222 83.45C100.338 84.9778 99.1993 86.3167 97.6715 86.4389L97.4493 86.4445ZM105.327 86.4445L105.105 86.4389C103.577 86.3223 102.433 84.9834 102.555 83.45C106.599 31.8889 124.458 0.261149 140.883 0.261149C142.383 0.0500375 143.783 1.17226 143.966 2.69448C144.138 4.2167 143.049 5.60004 141.527 5.77782C122.733 7.97226 110.86 48.6056 108.094 83.8834C107.983 85.3389 106.766 86.4445 105.327 86.4445Z" fill="#C6823E"/>
<path d="M105.058 80.7954C104.871 81.7776 103.955 82.4369 102.98 82.3276L102.829 82.3069C101.799 82.1073 101.125 81.1093 101.321 80.0783C108.003 45.2941 121.742 25.0367 133.743 26.3805C134.818 26.386 135.651 27.2258 135.656 28.2716C135.664 29.3254 134.815 30.1797 133.765 30.1847C120.806 30.2459 109.629 56.9962 105.058 80.7954Z" fill="#CF8A44"/>
<path d="M98.0089 80.6355C98.1954 81.6176 99.1115 82.2769 100.087 82.1677L100.238 82.147C101.268 81.9474 101.941 80.9493 101.746 79.9184C95.0636 45.1342 81.325 24.8768 69.3239 26.2206C68.2487 26.2261 67.4162 27.0659 67.4108 28.1117C67.4025 29.1654 68.2524 30.0198 69.3019 30.0247C82.2607 30.086 93.4375 56.8363 98.0089 80.6355Z" fill="#CF8A44"/>
<path d="M102.116 142C102.116 147.556 102.222 160.478 102.222 169.089C99.0217 169.089 93.9384 169 88.6773 167.422C80.3606 164.922 82.4939 145.75 85.2661 141.306L102.116 142Z" fill="#BB8045"/>
<path d="M101.861 120.884C101.861 127.067 101.983 141.45 101.983 151.039C98.3442 151.039 92.5608 150.945 86.5775 149.184C77.1164 146.4 79.5442 125.061 82.6942 120.111L101.861 120.884Z" fill="#C6823E"/>
<path d="M101.86 79.1724C101.86 91.2224 103.41 128.183 103.41 131.933C95.6493 131.933 73.9604 133.806 75.1771 114.522C76.3882 95.2446 88.2771 79.1724 101.86 79.1724Z" fill="#EA9A4A"/>
<path d="M117.511 155.011C118.549 160.494 117.927 189.55 101.061 191.744V152.822L117.511 155.011Z" fill="#A86F37"/>
<path d="M101.305 142C101.305 147.556 100.46 160.478 100.46 169.089C103.66 169.089 109.483 169 114.738 167.422C123.055 164.922 120.922 145.75 118.149 141.306L101.305 142Z" fill="#BB8045"/>
<path d="M101.566 120.884C101.566 127.067 100.649 141.45 100.649 151.039C104.288 151.039 110.872 150.945 116.849 149.184C126.311 146.4 123.883 125.061 120.733 120.111L101.566 120.884Z" fill="#C6823E"/>
<path d="M100.4 131.933C100.4 128.183 101.567 91.2224 101.567 79.1724C115.15 79.1724 127.039 95.239 128.25 114.522C129.461 133.806 108.161 131.933 100.4 131.933Z" fill="#EA9A4A"/>
<path d="M93.4918 93.7346C96.5581 93.1902 98.4198 89.2345 97.6501 84.8994C96.8804 80.5643 93.7707 77.4913 90.7044 78.0357C87.6381 78.5801 85.7763 82.5358 86.546 86.8709C87.3157 91.2061 90.4254 94.2791 93.4918 93.7346Z" fill="#C6823E"/>
<path d="M115.968 86.6294C116.737 82.2941 114.875 78.3387 111.809 77.7946C108.742 77.2506 105.633 80.3239 104.864 84.6592C104.095 88.9944 105.957 92.9498 109.023 93.4939C112.09 94.0379 115.199 90.9646 115.968 86.6294Z" fill="#C6823E"/>
<path d="M92.7974 89.802C95.8637 89.2576 97.7255 85.3019 96.9558 80.9668C96.1861 76.6316 93.0764 73.5587 90.0101 74.1031C86.9437 74.6475 85.082 78.6032 85.8517 82.9383C86.6214 87.2735 89.7311 90.3464 92.7974 89.802Z" fill="#292F33"/>
<path d="M116.607 82.9409C117.377 78.6056 115.514 74.6502 112.448 74.1062C109.382 73.5621 106.272 76.6355 105.503 80.9707C104.734 85.3059 106.596 89.2614 109.663 89.8054C112.729 90.3495 115.838 87.2761 116.607 82.9409Z" fill="#292F33"/>
<path d="M79.8608 119.033C81.422 123.722 84.5497 128.755 101.216 128.755C112.85 128.755 124.305 126.672 123.961 118.167C119.622 121.811 114.239 123.378 101.216 123.378C87.3275 123.378 79.8608 119.033 79.8608 119.033Z" fill="#CD8843"/>
<path d="M84.8438 141.35C86.0549 144.655 88.4715 148.205 101.372 148.205C110.372 148.205 119.244 146.739 118.972 140.739C115.61 143.311 111.449 144.411 101.372 144.411C90.6215 144.405 84.8438 141.35 84.8438 141.35Z" fill="#EA9A4A"/>
<path d="M85.4219 158.939C86.5608 162.244 88.8385 165.794 100.994 165.794C109.477 165.794 117.833 164.328 117.583 158.328C114.416 160.9 110.494 162 100.994 162C90.8663 162 85.4219 158.939 85.4219 158.939Z" fill="#D68E47"/>
<path d="M101.39 198.376C111.104 198.376 118.98 185.308 118.98 178.831C118.98 172.354 111.104 178.831 101.39 178.831C91.6763 178.831 83.7998 172.354 83.7998 178.831C83.7998 185.308 91.6763 198.376 101.39 198.376Z" fill="#7B5127"/>
<path d="M146.707 69.473C144.923 67.8167 144.642 65.8287 144.743 64.8601C144.769 64.6179 145.011 64.6434 144.986 64.8855C144.96 65.1277 146.075 66.9865 147.745 67.4066C147.308 68.4937 146.707 69.473 146.707 69.473Z" fill="#292F33"/>
<path d="M147.915 66.3256C146.13 64.6693 145.849 62.6812 145.951 61.7126C145.976 61.4705 146.218 61.4959 146.193 61.7381C146.168 61.9802 147.283 63.839 148.952 64.2591C148.516 65.3463 147.915 66.3256 147.915 66.3256Z" fill="#292F33"/>
<path d="M148.963 62.6376C147.179 60.9813 146.898 58.9932 147 58.0246C147.025 57.7825 147.267 57.8079 147.242 58.0501C147.216 58.2922 148.332 60.151 150.001 60.5712C149.565 61.6583 148.963 62.6376 148.963 62.6376Z" fill="#292F33"/>
<path d="M149.758 59.4935C147.974 57.8372 147.693 55.8492 147.795 54.8806C147.82 54.6384 148.062 54.6639 148.037 54.906C148.011 55.1482 149.127 57.007 150.796 57.4271C150.36 58.5142 149.758 59.4935 149.758 59.4935Z" fill="#292F33"/>
<path d="M150.514 56.7152C148.73 55.0589 148.449 53.0709 148.55 52.1023C148.576 51.8601 148.818 51.8856 148.793 52.1277C148.767 52.3699 149.882 54.2286 151.552 54.6488C151.115 55.7359 150.514 56.7152 150.514 56.7152Z" fill="#292F33"/>
<path d="M152.5 51.0839C150.715 49.4276 150.435 47.4395 150.536 46.4709C150.562 46.2288 150.804 46.2542 150.778 46.4964C150.753 46.7385 151.868 48.5973 153.538 49.0174C153.101 50.1046 152.5 51.0839 152.5 51.0839Z" fill="#292F33"/>
<path d="M153.256 48.306C151.472 46.6497 151.191 44.6617 151.293 43.6931C151.318 43.4509 151.56 43.4764 151.535 43.7185C151.509 43.9607 152.625 45.8195 154.294 46.2396C153.858 47.3267 153.256 48.306 153.256 48.306Z" fill="#292F33"/>
<path d="M144.102 78.41C142.318 76.7537 142.037 74.7657 142.138 73.7971C142.164 73.555 142.406 73.5804 142.381 73.8225C142.355 74.0647 143.47 75.9235 145.14 76.3436C144.703 77.4307 144.102 78.41 144.102 78.41Z" fill="#292F33"/>
<path d="M144.792 75.2118C143.007 73.5555 142.726 71.5674 142.828 70.5989C142.853 70.3567 143.095 70.3821 143.07 70.6243C143.045 70.8664 144.16 72.7252 145.829 73.1454C145.393 74.2325 144.792 75.2118 144.792 75.2118Z" fill="#292F33"/>
<path d="M145.547 72.4335C143.763 70.7772 143.482 68.7891 143.584 67.8205C143.609 67.5784 143.851 67.6038 143.826 67.846C143.8 68.0881 144.916 69.9469 146.585 70.3671C146.149 71.4542 145.547 72.4335 145.547 72.4335Z" fill="#292F33"/>
<path d="M154.012 45.5277C152.228 43.8714 151.947 41.8834 152.049 40.9148C152.074 40.6726 152.316 40.6981 152.291 40.9402C152.265 41.1824 153.38 43.0411 155.05 43.4613C154.613 44.5484 154.012 45.5277 154.012 45.5277Z" fill="#292F33"/>
<path d="M151.744 53.8622C149.96 52.2059 149.679 50.2178 149.78 49.2492C149.806 49.0071 150.048 49.0325 150.023 49.2747C149.997 49.5168 151.112 51.3756 152.782 51.7958C152.345 52.8829 151.744 53.8622 151.744 53.8622Z" fill="#292F33"/>
<path d="M156.01 43.2308C153.979 41.8882 153.377 39.9728 153.319 39.0006C153.305 38.7576 153.548 38.7431 153.562 38.9861C153.577 39.2292 154.98 40.8808 156.696 41.0226C156.443 42.1664 156.01 43.2308 156.01 43.2308Z" fill="#292F33"/>
<path d="M156.376 40.2911C154.345 38.9486 153.743 37.0331 153.685 36.0609C153.67 35.8179 153.913 35.8034 153.928 36.0464C153.942 36.2895 155.346 37.9411 157.062 38.0829C156.809 39.2267 156.376 40.2911 156.376 40.2911Z" fill="#292F33"/>
<path d="M157.157 37.3047C155.126 35.9622 154.524 34.0468 154.466 33.0746C154.452 32.8315 154.695 32.8171 154.709 33.0601C154.724 33.3032 156.127 34.9548 157.843 35.0965C157.59 36.2404 157.157 37.3047 157.157 37.3047Z" fill="#292F33"/>
<path d="M158.217 34.3008C156.185 32.9583 155.584 31.0429 155.526 30.0707C155.511 29.8276 155.754 29.8132 155.769 30.0562C155.783 30.2993 157.187 31.9509 158.903 32.0926C158.65 33.2365 158.217 34.3008 158.217 34.3008Z" fill="#292F33"/>
<path d="M158.509 31.4366C156.477 30.0941 155.876 28.1786 155.818 27.2064C155.803 26.9634 156.046 26.9489 156.061 27.1919C156.075 27.435 157.479 29.0866 159.195 29.2284C158.942 30.3722 158.509 31.4366 158.509 31.4366Z" fill="#292F33"/>
<path d="M159.548 25.5564C157.517 24.2139 156.915 22.2985 156.857 21.3263C156.843 21.0832 157.086 21.0688 157.1 21.3118C157.115 21.5549 158.519 23.2065 160.234 23.3482C159.981 24.4921 159.548 25.5564 159.548 25.5564Z" fill="#292F33"/>
<path d="M159.84 22.6922C157.809 21.3497 157.207 19.4342 157.149 18.462C157.135 18.219 157.378 18.2045 157.392 18.4476C157.407 18.6906 158.811 20.3422 160.526 20.484C160.273 21.6278 159.84 22.6922 159.84 22.6922Z" fill="#292F33"/>
<path d="M160.872 20.2933C158.841 18.9507 158.239 17.0353 158.181 16.0631C158.167 15.8201 158.41 15.8056 158.424 16.0486C158.439 16.2917 159.843 17.9433 161.559 18.0851C161.305 19.2289 160.872 20.2933 160.872 20.2933Z" fill="#292F33"/>
<path d="M159.256 28.4205C157.224 27.0779 156.623 25.1625 156.565 24.1903C156.55 23.9473 156.793 23.9328 156.808 24.1758C156.822 24.4189 158.226 26.0705 159.942 26.2123C159.689 27.3561 159.256 28.4205 159.256 28.4205Z" fill="#292F33"/>
<path d="M141.125 64.6164C143.506 64.1062 144.764 62.5417 145.172 61.6574C145.274 61.4364 145.053 61.3343 144.951 61.5554C144.849 61.7765 142.94 62.8031 141.291 62.31C141.11 63.4674 141.125 64.6164 141.125 64.6164Z" fill="#292F33"/>
<path d="M141.508 61.031C143.888 60.5208 145.147 58.9563 145.555 58.072C145.657 57.8509 145.436 57.7489 145.334 57.97C145.232 58.191 143.323 59.2177 141.673 58.7246C141.492 59.882 141.508 61.031 141.508 61.031Z" fill="#292F33"/>
<path d="M141.755 57.8205C144.136 57.3103 145.394 55.7458 145.802 54.8615C145.904 54.6405 145.683 54.5384 145.581 54.7595C145.479 54.9806 143.57 56.0072 141.921 55.5141C141.74 56.6715 141.755 57.8205 141.755 57.8205Z" fill="#292F33"/>
<path d="M142.681 54.7131C145.062 54.2029 146.32 52.6384 146.728 51.7541C146.83 51.533 146.609 51.431 146.507 51.6521C146.405 51.8732 144.496 52.8998 142.846 52.4067C142.665 53.5641 142.681 54.7131 142.681 54.7131Z" fill="#292F33"/>
<path d="M143.453 51.9397C145.834 51.4295 147.092 49.865 147.5 48.9807C147.602 48.7596 147.381 48.6576 147.279 48.8787C147.177 49.0997 145.268 50.1264 143.618 49.6332C143.437 50.7907 143.453 51.9397 143.453 51.9397Z" fill="#292F33"/>
<path d="M144.627 46.0842C147.007 45.574 148.266 44.0095 148.674 43.1252C148.776 42.9041 148.555 42.8021 148.453 43.0232C148.351 43.2443 146.442 44.2709 144.792 43.7778C144.611 44.9352 144.627 46.0842 144.627 46.0842Z" fill="#292F33"/>
<path d="M145.399 43.3108C147.779 42.8006 149.038 41.2361 149.446 40.3518C149.548 40.1307 149.327 40.0287 149.225 40.2497C149.123 40.4708 147.214 41.4975 145.564 41.0043C145.383 42.1618 145.399 43.3108 145.399 43.3108Z" fill="#292F33"/>
<path d="M137.864 73.8606C140.244 73.3504 141.503 71.7859 141.911 70.9016C142.013 70.6805 141.792 70.5785 141.69 70.7996C141.588 71.0206 139.679 72.0473 138.029 71.5541C137.848 72.7116 137.864 73.8606 137.864 73.8606Z" fill="#292F33"/>
<path d="M138.907 70.7595C141.288 70.2493 142.547 68.6848 142.955 67.8005C143.057 67.5794 142.836 67.4774 142.734 67.6985C142.632 67.9195 140.722 68.9462 139.073 68.4531C138.892 69.6105 138.907 70.7595 138.907 70.7595Z" fill="#292F33"/>
<path d="M139.679 67.9856C142.06 67.4754 143.318 65.9109 143.726 65.0266C143.828 64.8055 143.607 64.7035 143.505 64.9246C143.403 65.1456 141.494 66.1723 139.844 65.6791C139.663 66.8366 139.679 67.9856 139.679 67.9856Z" fill="#292F33"/>
<path d="M145.222 40.7419C147.603 40.2317 148.862 38.6672 149.27 37.7829C149.372 37.5619 149.151 37.4598 149.049 37.6809C148.947 37.902 147.037 38.9286 145.388 38.4355C145.207 39.5929 145.222 40.7419 145.222 40.7419Z" fill="#292F33"/>
<path d="M143.856 48.8591C146.236 48.3489 147.495 46.7844 147.903 45.9001C148.005 45.679 147.784 45.577 147.682 45.7981C147.58 46.0192 145.671 47.0458 144.021 46.5527C143.84 47.7101 143.856 48.8591 143.856 48.8591Z" fill="#292F33"/>
<path d="M145.782 37.4702C148.214 37.3557 149.711 36.0178 150.258 35.2121C150.395 35.0107 150.194 34.8739 150.057 35.0753C149.92 35.2768 147.869 35.9777 146.322 35.2217C145.954 36.334 145.782 37.4702 145.782 37.4702Z" fill="#292F33"/>
<path d="M146.112 34.7807C148.544 34.6663 150.041 33.3284 150.588 32.5226C150.725 32.3212 150.523 32.1844 150.386 32.3859C150.25 32.5873 148.199 33.2883 146.652 32.5323C146.284 33.6446 146.112 34.7807 146.112 34.7807Z" fill="#292F33"/>
<path d="M146.881 31.6545C149.313 31.5401 150.81 30.2022 151.357 29.3964C151.494 29.195 151.292 29.0582 151.156 29.2597C151.019 29.4611 148.968 30.1621 147.421 29.4061C147.053 30.5184 146.881 31.6545 146.881 31.6545Z" fill="#292F33"/>
<path d="M148.301 28.7394C150.733 28.625 152.23 27.2871 152.777 26.4814C152.914 26.28 152.713 26.1432 152.576 26.3446C152.439 26.546 150.388 27.247 148.841 26.491C148.473 27.6033 148.301 28.7394 148.301 28.7394Z" fill="#292F33"/>
<path d="M149.515 26.1286C151.948 26.0142 153.445 24.6763 153.992 23.8706C154.128 23.6691 153.927 23.5323 153.79 23.7338C153.654 23.9352 151.602 24.6362 150.056 23.8802C149.688 24.9925 149.515 26.1286 149.515 26.1286Z" fill="#292F33"/>
<path d="M151.631 20.5444C154.063 20.43 155.56 19.0921 156.107 18.2863C156.244 18.0849 156.042 17.9481 155.906 18.1495C155.769 18.351 153.718 19.052 152.171 18.296C151.803 19.4083 151.631 20.5444 151.631 20.5444Z" fill="#292F33"/>
<path d="M152.845 17.934C155.277 17.8196 156.774 16.4817 157.321 15.676C157.458 15.4745 157.257 15.3378 157.12 15.5392C156.983 15.7406 154.932 16.4416 153.385 15.6856C153.017 16.7979 152.845 17.934 152.845 17.934Z" fill="#292F33"/>
<path d="M154.059 15.3237C156.492 15.2093 157.989 13.8713 158.536 13.0656C158.672 12.8642 158.471 12.7274 158.334 12.9288C158.197 13.1303 156.146 13.8312 154.599 13.0753C154.232 14.1876 154.059 15.3237 154.059 15.3237Z" fill="#292F33"/>
<path d="M150.417 23.1555C152.849 23.041 154.346 21.7031 154.893 20.8974C155.03 20.696 154.828 20.5592 154.692 20.7606C154.555 20.9621 152.504 21.663 150.957 20.9071C150.589 22.0194 150.417 23.1555 150.417 23.1555Z" fill="#292F33"/>
<path d="M136.227 97.9255C132.112 96.7274 133.832 93.8913 136.967 90.4358C167.36 17.0779 157.684 13.2172 159.629 13.8357C168.754 16.7372 146.235 87.1116 145.037 91.227C143.832 95.3503 140.348 99.1258 136.227 97.9255Z" fill="#C6823E"/>
<path d="M133.862 97.2677C134.921 93.6725 140.185 90.8306 139.523 86.2128C147.901 5.8244 161.26 12.8146 158.85 10.6097C147.697 7.5571 142.602 45.3061 130.313 86.7852C129.003 90.8761 129.775 95.9548 133.862 97.2677Z" fill="#EA9A4A"/>
<path d="M74.4554 67.9556C72.1322 67.2269 71.0243 65.5525 70.6999 64.6342C70.6188 64.4046 70.8484 64.3235 70.9295 64.5531C71.0106 64.7827 72.8163 65.9819 74.5044 65.6438C74.5774 66.813 74.4554 67.9556 74.4554 67.9556Z" fill="#292F33"/>
<path d="M74.4554 64.5152C72.1322 63.7865 71.0243 62.1121 70.6999 61.1938C70.6188 60.9642 70.8484 60.8831 70.9295 61.1127C71.0106 61.3423 72.8163 62.5415 74.5044 62.2034C74.5774 63.3726 74.4554 64.5152 74.4554 64.5152Z" fill="#292F33"/>
<path d="M73.9222 60.8907C71.599 60.162 70.4911 58.4876 70.1667 57.5693C70.0856 57.3397 70.3152 57.2586 70.3963 57.4882C70.4774 57.7178 72.2831 58.917 73.9712 58.5788C74.0442 59.7481 73.9222 60.8907 73.9222 60.8907Z" fill="#292F33"/>
<path d="M75.3387 77.5245C73.0155 76.7958 71.9076 75.1214 71.5832 74.2031C71.5021 73.9735 71.7317 73.8924 71.8128 74.122C71.8939 74.3516 73.6996 75.5507 75.3877 75.2126C75.4607 76.3819 75.3387 77.5245 75.3387 77.5245Z" fill="#292F33"/>
<path d="M75.3387 80.3985C73.0155 79.6698 71.9076 77.9954 71.5832 77.0771C71.5021 76.8475 71.7317 76.7664 71.8128 76.996C71.8939 77.2256 73.6996 78.4248 75.3877 78.0867C75.4607 79.2559 75.3387 80.3985 75.3387 80.3985Z" fill="#292F33"/>
<path d="M75.3387 83.2452C73.0155 82.5165 71.9076 80.8421 71.5832 79.9238C71.5021 79.6942 71.7317 79.6131 71.8128 79.8427C71.8939 80.0723 73.6996 81.2714 75.3877 80.9333C75.4607 82.1026 75.3387 83.2452 75.3387 83.2452Z" fill="#292F33"/>
<path d="M74.7963 74.3135C72.4731 73.5849 71.3651 71.9104 71.0407 70.9921C70.9596 70.7626 71.1892 70.6815 71.2703 70.911C71.3514 71.1406 73.1571 72.3398 74.8453 72.0017C74.9182 73.1709 74.7963 74.3135 74.7963 74.3135Z" fill="#292F33"/>
<path d="M74.5663 71.274C72.2431 70.5453 71.1351 68.8709 70.8107 67.9526C70.7296 67.723 70.9592 67.6419 71.0403 67.8715C71.1214 68.1011 72.9271 69.3003 74.6153 68.9621C74.6883 70.1314 74.5663 71.274 74.5663 71.274Z" fill="#292F33"/>
<path d="M66.1806 66.0634C68.1111 64.5796 68.575 62.6262 68.5635 61.6523C68.5606 61.4089 68.3172 61.4118 68.32 61.6552C68.3229 61.8987 67.0403 63.6461 65.3389 63.9097C65.6728 65.0326 66.1806 66.0634 66.1806 66.0634Z" fill="#292F33"/>
<path d="M65.2192 62.5746C67.1496 61.0909 67.6136 59.1374 67.6021 58.1636C67.5992 57.9201 67.3557 57.923 67.3586 58.1664C67.3615 58.4099 66.0788 60.1573 64.3775 60.4209C64.7114 61.5438 65.2192 62.5746 65.2192 62.5746Z" fill="#292F33"/>
<path d="M67.208 75.8119C69.1384 74.3282 69.6023 72.3747 69.5908 71.4009C69.588 71.1574 69.3445 71.1603 69.3474 71.4038C69.3503 71.6472 68.0676 73.3946 66.3662 73.6582C66.7001 74.7811 67.208 75.8119 67.208 75.8119Z" fill="#292F33"/>
<path d="M67.9912 78.6977C69.9216 77.2139 70.3855 75.2605 70.3741 74.2866C70.3712 74.0432 70.1277 74.046 70.1306 74.2895C70.1335 74.533 68.8508 76.2804 67.1494 76.544C67.4834 77.6669 67.9912 78.6977 67.9912 78.6977Z" fill="#292F33"/>
<path d="M68.4164 81.8969C70.3469 80.4131 70.8108 78.4597 70.7993 77.4858C70.7965 77.2424 70.553 77.2453 70.5559 77.4887C70.5588 77.7322 69.2761 79.4796 67.5747 79.7432C67.9086 80.8661 68.4164 81.8969 68.4164 81.8969Z" fill="#292F33"/>
<path d="M66.8178 72.5634C68.7483 71.0796 69.2122 69.1262 69.2007 68.1523C69.1978 67.9089 68.9544 67.9118 68.9572 68.1552C68.9601 68.3987 67.6775 70.1461 65.9761 70.4097C66.31 71.5326 66.8178 72.5634 66.8178 72.5634Z" fill="#292F33"/>
<path d="M66.3227 69.7275C68.2532 68.2437 68.7171 66.2903 68.7056 65.3164C68.7027 65.0729 68.4593 65.0758 68.4621 65.3193C68.465 65.5627 67.1824 67.3102 65.481 67.5737C65.8149 68.6967 66.3227 69.7275 66.3227 69.7275Z" fill="#292F33"/>
<path d="M76.0717 98.2451C71.801 100.404 72.1758 95.6314 73.521 91.1644C74.2342 52.0934 70.0158 55.717 72.0536 55.6022C79.0428 55.2083 79.3524 83.778 79.4422 88.0307C79.5321 92.2833 76.4452 97.5752 76.0717 98.2451Z" fill="#C6823E"/>
<path d="M73.6545 98.6667C75.8339 94.9214 75.5902 90.6811 73.0077 86.796C64.584 76.8147 67.8812 57.5511 64.7578 56.5957C61.666 59.2138 62.0094 65.0259 65.9453 90.7267C66.52 94.9837 69.4 99.2376 73.6545 98.6667Z" fill="#EA9A4A"/>
</g>
<defs>
<clipPath id="clip0_304_138">
<rect width="200" height="200" fill="white"/>
</clipPath>
</defs>
</svg>
