<svg width="200" height="200" viewBox="0 0 200 200" fill="none" xmlns="http://www.w3.org/2000/svg">
<g clip-path="url(#clip0_305_317)">
<path d="M116.565 70.9002C116.565 66.1659 127.343 66.0702 127.343 70.9002V193.593H116.565V70.9002Z" fill="#ECECEC"/>
<mask id="mask0_305_317" style="mask-type:alpha" maskUnits="userSpaceOnUse" x="116" y="67" width="12" height="127">
<path d="M116.565 70.9002C116.565 66.1659 127.343 66.0702 127.343 70.9002V193.593H116.565V70.9002Z" fill="#ECECEC"/>
</mask>
<g mask="url(#mask0_305_317)">
<path d="M112.678 76.3691H133.804" stroke="black" stroke-width="6"/>
<path d="M113.033 88.4409H134.159" stroke="black" stroke-width="6"/>
<path d="M113.211 101.755H134.336" stroke="black" stroke-width="6"/>
<path d="M113.211 114.893H134.336" stroke="black" stroke-width="6"/>
<path d="M113.033 128.924H134.159" stroke="black" stroke-width="6"/>
<path d="M113.033 143.659H134.159" stroke="black" stroke-width="6"/>
</g>
<path d="M91.3576 99.4765C91.0583 94.7516 101.809 93.9747 102.114 98.7951L106.871 172.242L96.115 172.924L91.3576 99.4765Z" fill="#ECECEC"/>
<mask id="mask1_305_317" style="mask-type:alpha" maskUnits="userSpaceOnUse" x="91" y="95" width="16" height="78">
<path d="M91.3576 99.4765C91.0583 94.7516 101.809 93.9747 102.114 98.7951L106.871 172.242L96.115 172.924L91.3576 99.4765Z" fill="#ECECEC"/>
</mask>
<g mask="url(#mask1_305_317)">
<path d="M87.0894 105.207L107.439 103.496" stroke="black" stroke-width="6"/>
<path d="M87.0894 119.4L107.439 117.69" stroke="black" stroke-width="6"/>
<path d="M87.2603 134.925L107.61 133.214" stroke="black" stroke-width="6"/>
</g>
<path d="M9.65985 184.383C5.0952 183.127 7.86276 172.71 12.5197 173.992L130.814 206.547L127.954 216.939L9.65985 184.383Z" fill="#ECECEC"/>
<mask id="mask2_305_317" style="mask-type:alpha" maskUnits="userSpaceOnUse" x="7" y="173" width="124" height="44">
<path d="M9.65985 184.383C5.0952 183.127 7.86276 172.71 12.5197 173.992L130.814 206.547L127.954 216.939L9.65985 184.383Z" fill="#ECECEC"/>
</mask>
<g mask="url(#mask2_305_317)">
<path d="M18.5562 170.94L12.4399 192.744" stroke="black" stroke-width="6"/>
<path d="M30.2563 171.789L24.1401 193.593" stroke="black" stroke-width="6"/>
<path d="M41.9565 174.83L35.8403 196.634" stroke="black" stroke-width="6"/>
<path d="M53.6567 177.721L47.5405 199.525" stroke="black" stroke-width="6"/>
</g>
<path d="M191.439 168.233C195.956 166.812 199.281 177.065 194.673 178.514L77.6333 215.327L74.3995 205.045L191.439 168.233Z" fill="#ECECEC"/>
<mask id="mask3_305_317" style="mask-type:alpha" maskUnits="userSpaceOnUse" x="74" y="168" width="123" height="48">
<path d="M191.439 168.233C195.956 166.812 199.281 177.065 194.673 178.514L77.6333 215.327L74.3995 205.045L191.439 168.233Z" fill="#ECECEC"/>
</mask>
<g mask="url(#mask3_305_317)">
<path d="M185.108 167.218L189.714 183.694" stroke="black" stroke-width="6"/>
<path d="M173.77 171.115L178.376 187.591" stroke="black" stroke-width="6"/>
<path d="M162.432 172.382L167.038 188.858" stroke="black" stroke-width="6"/>
</g>
<path d="M163.616 75.3582C165.335 70.9468 175.412 74.7703 173.658 79.2708L129.118 193.593L119.075 189.681L163.616 75.3582Z" fill="#ECECEC"/>
<mask id="mask4_305_317" style="mask-type:alpha" maskUnits="userSpaceOnUse" x="119" y="73" width="55" height="121">
<path d="M163.616 75.3582C165.335 70.9468 175.412 74.7703 173.658 79.2708L129.118 193.593L119.075 189.681L163.616 75.3582Z" fill="#ECECEC"/>
</mask>
<g mask="url(#mask4_305_317)">
<path d="M158.963 80.1367L175.439 86.5146" stroke="black" stroke-width="6"/>
<path d="M156.128 93.6221L172.604 100" stroke="black" stroke-width="6"/>
<path d="M150.643 107.107L167.119 113.485" stroke="black" stroke-width="6"/>
<path d="M143.521 120.592L159.997 126.97" stroke="black" stroke-width="6"/>
<path d="M137.32 134.077L153.796 140.455" stroke="black" stroke-width="6"/>
<path d="M133.068 147.562L149.544 153.939" stroke="black" stroke-width="6"/>
</g>
<mask id="mask5_305_317" style="mask-type:alpha" maskUnits="userSpaceOnUse" x="18" y="72" width="62" height="119">
<path d="M19.1619 78.2666C17.2325 73.9432 27.0357 69.4635 29.0041 73.8742L79.0061 185.916L69.1639 190.308L19.1619 78.2666Z" fill="#CFB082"/>
</mask>
<g mask="url(#mask5_305_317)">
<path d="M19.1619 78.2666C17.2325 73.9432 27.0357 69.4635 29.0041 73.8742L79.0061 185.916L69.1639 190.308L19.1619 78.2666Z" fill="#ECECEC"/>
<path d="M9.37598 95.27L53.9966 71.4653" stroke="black" stroke-width="6"/>
<path d="M19.376 105.27L63.9966 81.4653" stroke="black" stroke-width="6"/>
<path d="M29.376 115.27L73.9966 91.4653" stroke="black" stroke-width="6"/>
<path d="M39.376 125.27L83.9966 101.465" stroke="black" stroke-width="6"/>
<path d="M29.376 147.27L73.9966 123.465" stroke="black" stroke-width="6"/>
<path d="M29.376 165.27L73.9966 141.465" stroke="black" stroke-width="6"/>
</g>
<path d="M101.271 148.434C58.0835 148.434 22.9662 188.728 62.5609 201.227H152.795C171.919 175.26 143.57 148.434 101.271 148.434Z" fill="#540000"/>
<path d="M13.522 147.611C9.89466 144.569 16.7477 136.25 20.4483 139.354L68.4811 179.643C67.3955 183.97 65.9445 185.819 61.5548 187.9L13.522 147.611Z" fill="#FFF4F4"/>
<mask id="mask6_305_317" style="mask-type:alpha" maskUnits="userSpaceOnUse" x="12" y="138" width="57" height="50">
<path d="M13.522 147.611C9.89466 144.569 16.7477 136.25 20.4483 139.354L68.4811 179.643C67.3955 183.97 65.9445 185.819 61.5548 187.9L13.522 147.611Z" fill="#FFF4F4"/>
</mask>
<g mask="url(#mask6_305_317)">
<path d="M27.3311 139.296L11.9082 156.847" stroke="black" stroke-width="6"/>
<path d="M36.106 148.434L20.6831 165.984" stroke="black" stroke-width="6"/>
<path d="M45.2905 157.28L29.8677 174.831" stroke="black" stroke-width="6"/>
<path d="M53.2251 164.265L37.8022 181.815" stroke="black" stroke-width="6"/>
<path d="M60.9365 172.758L45.5137 190.308" stroke="black" stroke-width="6"/>
</g>
<path d="M179.316 130.134C182.493 126.624 190.548 133.785 187.307 137.366L145.238 183.848C140.955 182.6 139.162 181.081 137.247 176.616L179.316 130.134Z" fill="#FFF4F4"/>
<mask id="mask7_305_317" style="mask-type:alpha" maskUnits="userSpaceOnUse" x="137" y="129" width="52" height="55">
<path d="M179.316 130.134C182.493 126.624 190.548 133.785 187.307 137.366L145.238 183.848C140.955 182.6 139.162 181.081 137.247 176.616L179.316 130.134Z" fill="#FFF4F4"/>
</mask>
<g mask="url(#mask7_305_317)">
<path d="M172.959 131.336L186.955 143.383" stroke="black" stroke-width="6"/>
<path d="M164.632 140.194L178.628 152.241" stroke="black" stroke-width="6"/>
<path d="M157.546 150.19L171.542 162.237" stroke="black" stroke-width="6"/>
<path d="M148.985 159.226L162.98 171.272" stroke="black" stroke-width="6"/>
<path d="M141.013 168.807L155.009 180.854" stroke="black" stroke-width="6"/>
</g>
<path d="M54.1779 83.1341C52.9202 78.5699 63.2854 75.6146 64.5685 80.2711L91.222 170.711C87.8711 173.656 85.6266 174.354 80.8314 173.574L54.1779 83.1341Z" fill="#FFF4F4"/>
<mask id="mask8_305_317" style="mask-type:alpha" maskUnits="userSpaceOnUse" x="54" y="77" width="38" height="97">
<path d="M54.1779 83.1341C52.9202 78.5699 63.2854 75.6146 64.5685 80.2711L91.222 170.711C87.8711 173.656 85.6266 174.354 80.8314 173.574L54.1779 83.1341Z" fill="#FFF4F4"/>
</mask>
<g mask="url(#mask8_305_317)">
<path d="M48.3535 91.895L77.4272 82.3921" stroke="black" stroke-width="6"/>
<path d="M49.7109 105.923L78.7847 96.4199" stroke="black" stroke-width="6"/>
<path d="M51.4077 119.951L80.4814 110.448" stroke="black" stroke-width="6"/>
<path d="M53.9712 133.675L83.0449 124.172" stroke="black" stroke-width="6"/>
<path d="M56.1431 146.852L85.2168 137.349" stroke="black" stroke-width="6"/>
<path d="M59.4512 160.029L88.5249 150.526" stroke="black" stroke-width="6"/>
<path d="M66.5283 171.625L95.6021 162.122" stroke="black" stroke-width="6"/>
</g>
<circle cx="101.17" cy="151.033" r="11.9207" fill="#0E0047"/>
<circle cx="92.5403" cy="151.696" r="1.01245" fill="white"/>
<circle cx="97.1125" cy="146.793" r="1.01245" fill="white"/>
<circle cx="105.268" cy="147.805" r="1.01245" fill="white"/>
<circle cx="95.5305" cy="143.114" r="1.01245" fill="white"/>
<circle cx="100.014" cy="152.045" r="1.01245" fill="white"/>
<circle cx="104.215" cy="144.1" r="1.01245" fill="white"/>
<circle cx="95.2239" cy="155.42" r="1.01245" fill="white"/>
<circle cx="103.243" cy="159.29" r="1.01245" fill="white"/>
<circle cx="106.281" cy="156.433" r="1.01245" fill="white"/>
<circle cx="109.293" cy="154.07" r="1.01245" fill="white"/>
<circle cx="96.2366" cy="151.032" r="1.01245" fill="white"/>
<circle cx="101.027" cy="146.793" r="1.01245" fill="white"/>
<circle cx="109.861" cy="150.021" r="1.01245" fill="white"/>
<circle cx="101.423" cy="155.42" r="1.01245" fill="white"/>
<circle cx="104.215" cy="151.696" r="1.01245" fill="white"/>
<circle cx="99.3982" cy="141.937" r="1.01245" fill="white"/>
<circle cx="108.698" cy="145.139" r="1.01245" fill="white"/>
<circle cx="99.0012" cy="159.027" r="1.01245" fill="white"/>
<circle cx="93.1985" cy="147.164" r="1.01245" fill="white"/>
<path d="M140.425 86.3379C142.215 81.9552 152.229 85.9427 150.402 90.414L114.692 173.45C110.24 173.737 108.036 172.919 104.715 169.374L140.425 86.3379Z" fill="#FFF4F4"/>
<mask id="mask9_305_317" style="mask-type:alpha" maskUnits="userSpaceOnUse" x="104" y="84" width="47" height="90">
<path d="M140.425 86.3379C142.215 81.9552 152.229 85.9427 150.402 90.414L114.692 173.45C110.24 173.737 108.036 172.919 104.715 169.374L140.425 86.3379Z" fill="#FFF4F4"/>
</mask>
<g mask="url(#mask9_305_317)">
<path d="M133.449 88.874L152.267 97.2178" stroke="black" stroke-width="6"/>
<path d="M131.141 103.254L149.959 111.598" stroke="black" stroke-width="6"/>
<path d="M124.928 116.568L143.746 124.912" stroke="black" stroke-width="6"/>
<path d="M119.075 130.948L137.893 139.292" stroke="black" stroke-width="6"/>
<path d="M112.545 145.328L131.363 153.672" stroke="black" stroke-width="6"/>
<path d="M106.151 159.708L124.969 168.052" stroke="black" stroke-width="6"/>
</g>
</g>
<defs>
<clipPath id="clip0_305_317">
<rect width="200" height="200" fill="white"/>
</clipPath>
</defs>
</svg>
