<svg width="200" height="200" viewBox="0 0 200 200" fill="none" xmlns="http://www.w3.org/2000/svg">
<g clip-path="url(#clip0_304_63)">
<g clip-path="url(#clip1_304_63)">
<path d="M82.4832 124.456H82.1277C70.3666 124.072 54.7999 118.867 47.4277 96.25C46.6777 93.9555 47.9221 91.45 50.2221 90.7C52.5221 89.95 54.9832 91.1722 55.7332 93.4722L55.7499 93.5333C57.4832 98.8611 62.7666 115.067 82.4166 115.706C84.8333 115.789 86.7277 117.806 86.6499 120.217C86.5721 122.522 84.7388 124.344 82.4832 124.456ZM52.7721 155.772C53.611 154.544 55.0555 153.778 56.6499 153.872C73.5055 154.878 82.0833 143.106 84.9055 139.239C86.3277 137.283 89.0666 136.856 91.0166 138.278C92.9721 139.7 93.3166 142.428 91.9777 144.389C82.5444 157.333 70.4832 163.467 56.1277 162.611C53.7166 162.467 51.8721 160.394 52.0166 157.978C52.0721 157.156 52.3444 156.4 52.7721 155.772Z" fill="#2C4CBE"/>
<path d="M79.7891 133.15C82.1279 132.794 84.0502 132.367 85.4668 132.039L86.4613 131.817C88.8279 131.306 90.3224 128.978 89.8113 126.611C89.3002 124.25 86.9502 122.733 84.6057 123.261L83.5335 123.5C77.4946 124.861 63.3391 128.078 47.6279 117.117C45.6446 115.739 42.9113 116.222 41.539 118.2C40.1557 120.183 40.6446 122.911 42.6224 124.289C57.4279 134.622 71.3168 134.433 79.7891 133.15Z" fill="#2C4CBE"/>
<path d="M85.5722 140.544C87.6611 139.439 91.4222 137.078 91.4222 137.078C93.4833 135.811 94.1278 133.122 92.8611 131.056C91.6 129 88.8722 128.344 86.8389 129.617L85.9055 130.2C80.6611 133.483 68.3722 141.206 49.9111 136.072C47.5833 135.428 45.1666 136.789 44.5222 139.117C43.8722 141.444 45.2389 143.861 47.5666 144.506C64.9611 149.339 78.0055 144.556 85.5722 140.544Z" fill="#2C4CBE"/>
<path d="M121.294 124.456H121.65C133.411 124.072 148.978 118.867 156.35 96.25C157.1 93.9555 155.855 91.45 153.555 90.7C151.255 89.95 148.794 91.1722 148.044 93.4722L148.028 93.5333C146.294 98.8611 141.011 115.067 121.361 115.706C118.944 115.789 117.05 117.806 117.128 120.217C117.211 122.522 119.039 124.344 121.294 124.456ZM151.005 155.772C150.167 154.544 148.722 153.778 147.128 153.872C130.272 154.878 121.694 143.106 118.872 139.239C117.45 137.283 114.711 136.856 112.761 138.278C110.805 139.7 110.461 142.428 111.8 144.389C121.233 157.333 133.294 163.467 147.65 162.611C150.061 162.467 151.905 160.394 151.761 157.978C151.711 157.156 151.439 156.4 151.005 155.772Z" fill="#2C4CBE"/>
<path d="M123.989 133.15C121.65 132.794 119.727 132.367 118.311 132.039L117.316 131.817C114.95 131.306 113.455 128.978 113.966 126.611C114.477 124.25 116.827 122.733 119.172 123.261L120.244 123.5C126.283 124.861 140.439 128.078 156.15 117.117C158.133 115.739 160.866 116.222 162.239 118.2C163.622 120.183 163.133 122.911 161.155 124.289C146.355 134.622 132.461 134.433 123.989 133.15Z" fill="#2C4CBE"/>
<path d="M118.205 140.544C116.116 139.439 112.355 137.078 112.355 137.078C110.294 135.811 109.65 133.122 110.916 131.056C112.178 129 114.905 128.344 116.939 129.617L117.872 130.2C123.116 133.483 135.405 141.206 153.866 136.072C156.194 135.428 158.611 136.789 159.255 139.117C159.905 141.444 158.539 143.861 156.211 144.506C138.816 149.339 125.772 144.556 118.205 140.544Z" fill="#2C4CBE"/>
<path d="M98.6391 168.422C94.6057 170.25 75.028 180.483 74.4502 198.755C74.8335 203.139 89.6169 191.811 102.284 191.811V172.622L98.6391 168.422Z" fill="#2C4CBE"/>
<path d="M58.7391 16.4888C62.7724 24.7832 54.0835 34.1277 49.9058 38.4554C49.9058 38.4554 52.4502 66.1332 58.4058 66.8943C96.278 50.7054 64.0113 16.9165 58.7391 16.4888Z" fill="#693C27"/>
<path d="M42.4167 66.739C43.1556 74.6778 58.9445 82.789 70.3222 84.6667C71.7778 81.5001 62.8 72.239 57.95 66.6334C55.2389 63.5001 54.0556 56.0556 45.8111 59.2945C37.5667 62.5334 42.4167 66.739 42.4167 66.739Z" fill="#693C27"/>
<path d="M129.939 198.756C129.361 180.483 109.783 170.25 105.75 168.422L102.105 172.622V191.811C114.772 191.811 129.555 203.139 129.939 198.756Z" fill="#2C4CBE"/>
<path d="M65.2334 76.6277C61.5945 76.6277 60.6222 86.3722 79.0611 90.7611C97.5 95.15 87.7278 85.8833 84.8834 81.5C81.2389 75.8944 65.2334 76.6277 65.2334 76.6277Z" fill="#693C27"/>
<path d="M85.9167 141.011C84.8778 146.494 85.5001 175.55 102.367 177.744V138.822L85.9167 141.011Z" fill="#473D54"/>
<path d="M153.494 38.4554C149.317 34.1277 140.628 24.7832 144.661 16.4888C139.389 16.9165 107.122 50.7054 144.994 66.8943C150.95 66.1332 153.494 38.4554 153.494 38.4554Z" fill="#693C27"/>
<path d="M160.978 66.739C160.239 74.6778 144.45 82.789 133.072 84.6667C131.617 81.5001 140.594 72.239 145.444 66.6334C148.156 63.5001 149.339 56.0556 157.583 59.2945C165.828 62.5334 160.978 66.739 160.978 66.739Z" fill="#693C27"/>
<path d="M138.167 76.6277C141.805 76.6277 142.778 86.3722 124.339 90.7611C105.9 95.15 115.672 85.8833 118.517 81.5C122.155 75.8944 138.167 76.6277 138.167 76.6277Z" fill="#693C27"/>
<path d="M157.728 0.233398C172.356 3.95562 183.7 28.5223 180.917 43.8278C176.572 67.7278 164.295 75.9778 150.761 78.0723C146.606 77.7501 132.467 58.7723 147.561 43.2278C162.656 27.6834 161.478 10.6945 157.728 0.233398Z" fill="#61101A"/>
<path d="M97.4498 69.4445C96.0164 69.4445 94.7942 68.3389 94.6831 66.8834C91.9164 31.6056 80.0442 10.9723 61.2498 8.77782C59.7276 8.60004 58.6331 7.22226 58.8164 5.69448C58.9942 4.17781 60.3387 3.09448 61.8998 3.26115C74.4776 4.72782 96.1776 14.8889 100.222 66.45C100.339 67.9778 99.1998 69.3167 97.672 69.4389L97.4498 69.4445ZM105.328 69.4445L105.105 69.4389C103.578 69.3223 102.433 67.9834 102.555 66.45C106.6 14.8889 128.305 4.72782 140.883 3.26115C142.383 3.05004 143.783 4.17226 143.966 5.69448C144.139 7.2167 143.05 8.60004 141.528 8.77782C122.733 10.9723 110.861 31.6056 108.094 66.8834C107.983 68.3389 106.766 69.4445 105.328 69.4445Z" fill="#BE1931"/>
<path d="M102.117 128C102.117 133.556 102.222 146.478 102.222 155.089C99.0222 155.089 93.9389 155 88.6777 153.422C80.3611 150.922 82.4944 131.75 85.2666 127.306L102.117 128Z" fill="#312A3C"/>
<path d="M101.861 106.883C101.861 113.067 101.984 127.45 101.984 137.039C98.3446 137.039 92.5613 136.944 86.578 135.183C77.1169 132.4 79.5446 111.061 82.6946 106.111L101.861 106.883Z" fill="#5D506E"/>
<path d="M101.861 65.1721C101.861 77.2221 103.411 114.183 103.411 117.933C95.6498 117.933 73.9609 119.805 75.1776 100.522C76.3887 81.2443 88.2776 65.1721 101.861 65.1721Z" fill="#7A6991"/>
<path d="M117.511 141.011C118.55 146.494 117.928 175.55 101.061 177.744V138.822L117.511 141.011Z" fill="#473D54"/>
<path d="M101.305 128C101.305 133.556 100.461 146.478 100.461 155.089C103.661 155.089 109.483 155 114.739 153.422C123.055 150.922 120.922 131.75 118.15 127.306L101.305 128Z" fill="#312A3C"/>
<path d="M101.567 106.883C101.567 113.067 100.65 127.45 100.65 137.039C104.289 137.039 110.872 136.944 116.85 135.183C126.311 132.4 123.883 111.061 120.733 106.111L101.567 106.883Z" fill="#5D506E"/>
<path d="M101.567 65.1721C101.567 77.2221 100.4 114.183 100.4 117.933C108.161 117.933 129.461 119.805 128.25 100.522C127.039 81.2388 115.15 65.1721 101.567 65.1721Z" fill="#7A6991"/>
<path d="M22.4779 43.8278C19.6946 28.5223 31.039 3.95562 45.6668 0.233398C41.9224 10.6945 40.739 27.6834 55.8335 43.2278C70.9279 58.7723 56.789 77.7501 52.6335 78.0723C39.1001 75.9779 26.8224 67.7278 22.4779 43.8278Z" fill="#61101A"/>
<path d="M93.4922 79.7346C96.5586 79.1902 98.4203 75.2345 97.6506 70.8994C96.8809 66.5643 93.7712 63.4913 90.7049 64.0357C87.6386 64.5801 85.7768 68.5358 86.5465 72.8709C87.3162 77.2061 90.4259 80.2791 93.4922 79.7346Z" fill="#A491BD"/>
<path d="M115.969 72.6296C116.738 68.2944 114.876 64.3389 111.809 63.7949C108.743 63.2508 105.634 66.3242 104.864 70.6594C104.095 74.9946 105.957 78.9501 109.024 79.4941C112.09 80.0382 115.2 76.9648 115.969 72.6296Z" fill="#A491BD"/>
<path d="M92.7979 75.8023C95.8642 75.2578 97.726 71.3022 96.9563 66.967C96.1866 62.6319 93.0769 59.5589 90.0105 60.1033C86.9442 60.6478 85.0825 64.6034 85.8522 68.9386C86.6219 73.2737 89.7316 76.3467 92.7979 75.8023Z" fill="#292F33"/>
<path d="M116.608 68.9406C117.377 64.6054 115.515 60.65 112.448 60.1059C109.382 59.5619 106.273 62.6352 105.504 66.9704C104.734 71.3057 106.597 75.2611 109.663 75.8052C112.729 76.3492 115.839 73.2759 116.608 68.9406Z" fill="#292F33"/>
<path d="M79.8613 105.033C81.4224 109.722 84.5502 114.756 101.217 114.756C112.85 114.756 124.306 112.672 123.961 104.167C119.622 107.811 114.239 109.378 101.217 109.378C87.328 109.378 79.8613 105.033 79.8613 105.033Z" fill="#8873A5"/>
<path d="M84.8442 127.35C86.0553 130.655 88.472 134.205 101.372 134.205C110.372 134.205 119.244 132.739 118.972 126.739C115.611 129.311 111.45 130.411 101.372 130.411C90.622 130.405 84.8442 127.35 84.8442 127.35Z" fill="#7A6991"/>
<path d="M85.4224 144.939C86.5613 148.245 88.839 151.795 100.995 151.795C109.478 151.795 117.833 150.328 117.583 144.328C114.417 146.9 110.495 148 100.995 148C90.8668 148 85.4224 144.939 85.4224 144.939Z" fill="#5D506E"/>
<path d="M48.9557 71.0056C48.3668 71.0056 47.7668 70.8834 47.2002 70.6167C35.9446 65.3723 29.6613 56.0612 28.5279 42.9501C28.3279 40.6612 30.0002 38.439 32.289 38.239C34.5835 38.039 36.5835 39.5223 36.7891 41.8112L36.8224 42.2334C37.1779 46.3278 38.1168 57.1945 50.7168 63.0667C52.8002 64.039 53.7057 66.5167 52.7335 68.6056C52.0279 70.1167 50.5279 71.0056 48.9557 71.0056Z" fill="#9C192C"/>
<path d="M154.736 71.0056C155.325 71.0056 155.925 70.8834 156.491 70.6167C167.747 65.3723 174.03 56.0612 175.163 42.9501C175.363 40.6612 173.691 38.439 171.402 38.239C169.108 38.039 167.108 39.5223 166.902 41.8112L166.869 42.2334C166.513 46.3278 165.575 57.1945 152.975 63.0667C150.891 64.039 149.986 66.5167 150.958 68.6056C151.663 70.1167 153.163 71.0056 154.736 71.0056Z" fill="#9C192C"/>
</g>
</g>
<defs>
<clipPath id="clip0_304_63">
<rect width="200" height="200" fill="white"/>
</clipPath>
<clipPath id="clip1_304_63">
<rect width="200" height="200" fill="white"/>
</clipPath>
</defs>
</svg>
