<svg width="200" height="200" viewBox="0 0 200 200" fill="none" xmlns="http://www.w3.org/2000/svg">
<g clip-path="url(#clip0_130_298)">
<path d="M200 177.778C200 190.05 190.05 200 177.778 200H22.2222C9.95 200 0 190.05 0 177.778V22.2222C0 9.95 9.95 0 22.2222 0H177.778C190.05 0 200 9.95 200 22.2222V177.778Z" fill="#55ACEE"/>
<path d="M13.0129 119.496C13.4772 125.475 10.6649 129.544 8.86282 131.128C8.41231 131.524 8.01638 131.073 8.4669 130.677C8.91742 130.281 10.0034 125.053 7.6824 121.504C10.2887 120.265 13.0129 119.496 13.0129 119.496Z" fill="#292F33"/>
<path d="M187.198 119.496C186.733 125.475 189.546 129.544 191.348 131.128C191.798 131.524 192.194 131.073 191.744 130.677C191.293 130.281 190.207 125.053 192.528 121.504C189.922 120.265 187.198 119.496 187.198 119.496Z" fill="#292F33"/>
<path d="M17.0627 181.845C20.3063 186.89 19.7589 191.805 18.923 194.054C18.714 194.616 18.1518 194.407 18.3608 193.845C18.5698 193.283 17.0474 188.165 13.3211 186.14C15.0285 183.813 17.0627 181.845 17.0627 181.845Z" fill="#292F33"/>
<path d="M182.882 181.845C179.638 186.89 180.185 191.805 181.021 194.054C181.23 194.616 181.793 194.407 181.584 193.845C181.375 193.283 182.897 188.165 186.623 186.14C184.916 183.813 182.882 181.845 182.882 181.845Z" fill="#292F33"/>
<path d="M56.3031 188.082C60.8878 191.949 61.8112 196.808 61.6741 199.203C61.6398 199.802 61.041 199.768 61.0753 199.169C61.1096 198.57 58.1485 194.127 53.9912 193.288C54.9383 190.562 56.3031 188.082 56.3031 188.082Z" fill="#292F33"/>
<path d="M143.641 188.082C139.057 191.949 138.133 196.808 138.27 199.203C138.305 199.802 138.903 199.768 138.869 199.169C138.835 198.57 141.796 194.127 145.953 193.288C145.006 190.562 143.641 188.082 143.641 188.082Z" fill="#292F33"/>
<path d="M86.9792 132.049C88.7876 135.935 85.4185 136.974 81.5241 138.779C74.7383 137.549 29.5533 164.955 26.8839 159.207C22.9791 150.798 72.2509 131.639 76.1369 129.83C80.0332 128.022 85.1685 128.157 86.9792 132.049Z" fill="#D8390F"/>
<path d="M28.3245 154.166C31.6618 151.476 33.4804 154.497 36.1682 157.843C36.6062 164.725 65.9041 191.798 60.9661 195.771C53.7426 201.583 31.467 168.561 28.7774 165.223C26.085 161.876 24.9818 156.859 28.3245 154.166Z" fill="#D8390F"/>
<path d="M8.47408 138.602C12.668 137.717 12.92 141.234 13.7993 145.435C11.0703 151.768 24.9157 189.179 18.7133 190.483C9.64018 192.389 4.7509 152.858 3.86603 148.664C2.98316 144.46 4.27375 139.488 8.47408 138.602Z" fill="#D8390F"/>
<path d="M63.7614 119.669C65.5698 123.555 62.2007 124.594 58.3063 126.399C51.5205 125.17 6.33548 152.576 3.66614 146.827C-0.238666 138.418 49.0331 119.259 52.9191 117.451C56.8154 115.642 61.9507 115.777 63.7614 119.669Z" fill="#D8390F"/>
<path d="M28.2625 64.1554C32.036 66.1882 33.2706 62.8857 35.3001 59.1037C34.47 52.2575 58.3137 20.2766 52.7316 17.2753C44.5658 12.8849 28.7153 49.4283 26.6825 53.2018C24.6487 56.9855 24.4831 62.1199 28.2625 64.1554Z" fill="#D8390F"/>
<path d="M75.9565 97.926C78.7884 94.7085 75.8497 92.7606 72.6231 89.93C65.7662 89.1938 30.156 50.1465 25.9725 54.9074C19.8526 61.8719 61.7114 94.1616 64.9289 96.9936C68.1561 99.8287 73.1207 101.149 75.9565 97.926Z" fill="#D8390F"/>
<path d="M13.3516 76.2203C17.6365 76.3248 16.8897 78.4226 16.778 82.7133C12.664 88.2481 17.5233 127.842 11.1874 127.682C1.91911 127.449 6.26361 87.8534 6.36818 83.5684C6.47702 79.2741 9.06015 76.115 13.3516 76.2203Z" fill="#D8390F"/>
<path d="M65.462 111.832C63.2807 115.521 60.5179 113.331 56.8267 111.141C54.0015 104.85 5.84005 83.0954 9.06987 77.6423C13.7946 69.6653 57.468 99.4549 61.1577 101.636C64.8534 103.826 67.6471 108.137 65.462 111.832Z" fill="#D8390F"/>
<path d="M48.5249 24.2616C50.5122 29.0689 62.0896 18.8282 62.8426 14.047C63.5923 9.26737 62.3401 7.21501 61.714 6.72876C61.0862 6.2425 61.9481 9.06246 59.7836 12.1052C58.0695 14.5154 47.1539 20.9424 48.5249 24.2616Z" fill="#E2603E"/>
<path d="M52.1223 8.14516C48.4794 11.3294 43.9356 25.452 49.0616 24.5689C52.6004 23.9591 57.1182 13.3997 57.5947 12.0938C58.5314 9.51937 61.1871 5.57077 60.4407 5.29918C59.6942 5.0276 55.7651 4.96092 52.1223 8.14516Z" fill="#D8390F"/>
<path d="M113.139 132.049C111.331 135.935 114.7 136.974 118.594 138.779C125.38 137.549 170.565 164.955 173.234 159.207C177.139 150.798 127.867 131.639 123.981 129.83C120.085 128.022 114.95 128.157 113.139 132.049Z" fill="#D8390F"/>
<path d="M171.794 154.166C168.456 151.476 166.638 154.497 163.95 157.843C163.512 164.725 134.214 191.798 139.152 195.771C146.376 201.583 168.651 168.561 171.341 165.223C174.033 161.876 175.136 156.859 171.794 154.166Z" fill="#D8390F"/>
<path d="M191.644 138.602C187.45 137.717 187.198 141.234 186.319 145.435C189.048 151.768 175.203 189.179 181.405 190.483C190.478 192.389 195.367 152.858 196.252 148.664C197.135 144.46 195.844 139.488 191.644 138.602Z" fill="#D8390F"/>
<path d="M136.357 119.669C134.548 123.555 137.917 124.594 141.812 126.399C148.598 125.17 193.783 152.576 196.452 146.827C200.357 138.418 151.085 119.259 147.199 117.451C143.303 115.642 138.167 115.777 136.357 119.669Z" fill="#D8390F"/>
<path d="M171.856 64.1554C168.082 66.1882 166.848 62.8857 164.818 59.1037C165.648 52.2575 141.804 20.2766 147.387 17.2753C155.552 12.8849 171.403 49.4283 173.436 53.2018C175.469 56.9855 175.635 62.1199 171.856 64.1554Z" fill="#D8390F"/>
<path d="M124.162 97.926C121.33 94.7085 124.269 92.7606 127.495 89.93C134.352 89.1938 169.962 50.1465 174.146 54.9074C180.266 61.8719 138.407 94.1616 135.189 96.9936C131.962 99.8287 126.997 101.149 124.162 97.926Z" fill="#D8390F"/>
<path d="M186.767 76.2203C182.482 76.3248 183.228 78.4226 183.34 82.7133C187.454 88.2481 182.595 127.842 188.931 127.682C198.199 127.449 193.855 87.8534 193.75 83.5684C193.641 79.2741 191.058 76.115 186.767 76.2203Z" fill="#D8390F"/>
<path d="M134.656 111.832C136.837 115.521 139.6 113.331 143.291 111.141C146.117 104.85 194.278 83.0954 191.048 77.6423C186.324 69.6653 142.65 99.4549 138.96 101.636C135.265 103.826 132.471 108.137 134.656 111.832Z" fill="#D8390F"/>
<path d="M151.593 24.2616C149.606 29.0689 138.029 18.8282 137.276 14.047C136.526 9.26737 137.778 7.21501 138.404 6.72876C139.032 6.2425 138.17 9.06246 140.335 12.1052C142.049 14.5154 152.964 20.9424 151.593 24.2616Z" fill="#E2603E"/>
<path d="M57.7666 110.094C57.7666 117.133 64.8055 145.288 100 145.288C135.194 145.288 142.233 117.133 142.233 110.094C142.233 93.1767 123.323 85.4575 100 85.4575C76.6766 85.4575 57.7666 93.1767 57.7666 110.094Z" fill="#E2603E"/>
<path d="M147.996 8.14516C151.639 11.3294 156.183 25.452 151.057 24.5689C147.518 23.9591 143 13.3997 142.523 12.0938C141.587 9.51937 138.931 5.57077 139.677 5.29918C140.424 5.0276 144.353 4.96092 147.996 8.14516Z" fill="#D8390F"/>
<path d="M131.143 100.415C131.143 101.872 123.439 92.4965 99.9994 92.4965C76.5564 92.4965 68.8594 101.872 68.8594 100.415C68.8594 98.9582 78.5519 87.2173 99.9994 87.2173C121.447 87.2173 131.143 98.9582 131.143 100.415Z" fill="#D8390F"/>
<path d="M74.6353 129.215C74.6353 127.758 80.9069 137.134 99.9999 137.134C119.093 137.134 125.368 127.758 125.368 129.215C125.368 130.672 117.47 142.413 99.9999 142.413C82.5294 142.413 74.6353 130.672 74.6353 129.215Z" fill="#D8390F"/>
<path d="M82.5576 92.8899C85.319 92.8899 87.5576 90.6513 87.5576 87.8899C87.5576 85.1285 85.319 82.8899 82.5576 82.8899C79.7962 82.8899 77.5576 85.1285 77.5576 87.8899C77.5576 90.6513 79.7962 92.8899 82.5576 92.8899Z" fill="#292F33"/>
<path d="M117.447 92.8899C120.208 92.8899 122.447 90.6513 122.447 87.8899C122.447 85.1285 120.208 82.8899 117.447 82.8899C114.685 82.8899 112.447 85.1285 112.447 87.8899C112.447 90.6513 114.685 92.8899 117.447 92.8899Z" fill="#292F33"/>
</g>
<defs>
<clipPath id="clip0_130_298">
<rect width="200" height="200" fill="white"/>
</clipPath>
</defs>
</svg>
