<svg width="200" height="200" viewBox="0 0 200 200" fill="none" xmlns="http://www.w3.org/2000/svg">
<g clip-path="url(#clip0_305_264)">
<path d="M116.565 70.9005C116.565 66.1661 127.343 66.0704 127.343 70.9005V193.593H116.565V70.9005Z" fill="#CFB082"/>
<path d="M90.6379 104.268C90.3386 99.5427 101.089 98.7657 101.394 103.586L106.152 177.033L95.3953 177.715L90.6379 104.268Z" fill="#CFB082"/>
<path d="M9.65985 184.383C5.0952 183.127 7.86276 172.71 12.5197 173.992L130.814 206.547L127.954 216.939L9.65985 184.383Z" fill="#CFB082"/>
<path d="M191.439 168.233C195.956 166.813 199.281 177.065 194.673 178.514L77.6333 215.327L74.3995 205.046L191.439 168.233Z" fill="#CFB082"/>
<path d="M163.616 75.3579C165.335 70.9466 175.412 74.7701 173.658 79.2706L129.118 193.593L119.075 189.68L163.616 75.3579Z" fill="#CFB082"/>
<path d="M19.1619 78.2666C17.2325 73.9432 27.0357 69.4635 29.0041 73.8742L79.0061 185.916L69.1639 190.308L19.1619 78.2666Z" fill="#CFB082"/>
<path d="M101.271 148.433C58.0835 148.433 22.9662 188.727 62.5609 201.227H152.795C171.919 175.26 143.57 148.433 101.271 148.433Z" fill="#B9996A"/>
<path d="M13.522 147.611C9.89466 144.569 16.7477 136.25 20.4483 139.354L68.4811 179.643C67.3955 183.97 65.9445 185.819 61.5548 187.9L13.522 147.611Z" fill="#E7C592"/>
<path d="M179.316 130.134C182.493 126.624 190.548 133.785 187.307 137.366L145.238 183.848C140.955 182.601 139.162 181.081 137.247 176.616L179.316 130.134Z" fill="#E7C592"/>
<path d="M140.425 86.3377C142.215 81.955 152.229 85.9425 150.402 90.4138L114.692 173.45C110.24 173.737 108.036 172.919 104.715 169.374L140.425 86.3377Z" fill="#E7C592"/>
<path d="M54.1779 83.1339C52.9202 78.5696 63.2854 75.6144 64.5685 80.2709L91.222 170.711C87.8711 173.656 85.6266 174.354 80.8314 173.574L54.1779 83.1339Z" fill="#E7C592"/>
</g>
<defs>
<clipPath id="clip0_305_264">
<rect width="200" height="200" fill="white"/>
</clipPath>
</defs>
</svg>
