<svg width="200" height="200" viewBox="0 0 200 200" fill="none" xmlns="http://www.w3.org/2000/svg">
<g clip-path="url(#clip0_127_190)">
<path d="M200 177.778C200 190.05 190.05 200 177.778 200H22.2222C9.95 200 0 190.05 0 177.778V22.2222C0 9.95 9.95 0 22.2222 0H177.778C190.05 0 200 9.95 200 22.2222V177.778Z" fill="#55ACEE"/>
<path d="M66.1055 111.799C70.0713 111.38 73.0119 108.545 72.6846 105.47C72.3573 102.399 68.8777 100.258 64.912 100.686C60.951 101.105 58.0056 103.935 58.3329 107.01C58.6602 110.081 62.1398 112.227 66.1055 111.799Z" fill="#BE8E45"/>
<path d="M64.2095 132.968C68.2514 132.35 77.5507 123.822 76.9331 119.78C76.3154 115.738 66.7197 119.894 62.6728 120.506C58.6309 121.124 55.1474 122.71 55.7651 126.757C56.3827 130.804 60.1627 133.586 64.2095 132.968Z" fill="#BE8E45"/>
<path d="M70.8603 151.493C74.5731 150.7 82.8285 136.412 82.0355 132.699C81.2425 128.986 71.3599 139.117 67.647 139.914C63.9342 140.707 61.7385 144.732 62.5361 148.445C63.3245 152.162 67.1474 152.286 70.8603 151.493Z" fill="#BE8E45"/>
<path d="M80.9182 166.705C84.3265 166.012 90.6473 151.122 89.9496 147.713C89.2604 144.305 81.1073 152.151 78.4092 154.349C75.2782 156.892 73.4879 161.78 74.1771 165.192C74.8748 168.601 77.5056 167.399 80.9182 166.705Z" fill="#BE8E45"/>
<path d="M57.4665 145.639C61.6103 144.48 66.2032 144.342 67.3584 148.477C68.5135 152.616 66.0657 155.513 61.9266 156.668C57.792 157.819 42.0191 160 40.8686 155.857C39.7135 151.713 53.3228 146.785 57.4665 145.639Z" fill="#BE8E45"/>
<path d="M60.9731 130.087C62.4307 125.69 57.6625 123.19 53.255 121.732C48.8573 120.279 34.2808 116.386 32.8281 120.783C31.3754 125.181 45.6159 132.079 50.0086 133.536C54.4112 134.984 59.5253 134.49 60.9731 130.087Z" fill="#BE8E45"/>
<path d="M60.3156 105.792C63.7567 102.881 60.999 100.402 58.0777 96.961C55.1659 93.5199 45.0976 80.8382 41.6564 83.7547C38.2105 86.6665 46.0746 99.685 48.9863 103.126C51.9077 106.572 56.8697 108.709 60.3156 105.792Z" fill="#BE8E45"/>
<path d="M86.2864 87.2557C88.1883 83.1688 84.6451 82.076 80.5495 80.1782C73.413 81.4712 25.8931 52.649 23.0858 58.6943C18.9792 67.5377 70.797 87.6871 74.8839 89.589C78.9815 91.4912 84.3822 91.3489 86.2864 87.2557Z" fill="#BE8E45"/>
<path d="M24.8833 64.2398C28.3931 67.0684 30.3056 63.8918 33.1324 60.3725C33.5929 53.1345 64.4049 24.6629 59.2117 20.4846C51.6149 14.3724 28.1882 49.1009 25.3596 52.6107C22.5281 56.1309 21.3679 61.4073 24.8833 64.2398Z" fill="#BE8E45"/>
<path d="M76.1267 162.709C72.2099 162.356 69.8522 165.432 69.4992 169.37C69.1378 173.282 70.0161 188.752 73.8489 187.823C81.6742 185.915 80.7034 174.871 81.0564 170.946C81.4137 167.016 80.0562 163.066 76.1267 162.709Z" fill="#BE8E45"/>
<path d="M53.5896 21.3346C54.0358 27.8471 71.8965 20.2829 74.7002 14.8948C77.4994 9.50732 76.8285 6.56583 76.2776 5.73746C75.7247 4.90845 75.625 8.60746 71.8355 11.3639C68.8344 13.5474 53.283 16.8385 53.5896 21.3346Z" fill="#BE8E45"/>
<path d="M64.3006 3.59527C58.6959 5.93017 47.6546 20.9196 54.1057 21.9143C58.5593 22.6008 68.1479 11.8404 69.2359 10.4768C71.3776 7.78767 76.1129 4.14948 75.3332 3.5285C74.5534 2.90752 69.9054 1.26038 64.3006 3.59527Z" fill="#B57C43"/>
<path d="M134.313 111.799C130.347 111.38 127.407 108.545 127.734 105.47C128.061 102.399 131.541 100.258 135.507 100.686C139.467 101.105 142.413 103.935 142.086 107.01C141.758 110.081 138.279 112.227 134.313 111.799Z" fill="#BE8E45"/>
<path d="M136.209 132.968C132.167 132.35 122.868 123.822 123.485 119.78C124.103 115.738 133.699 119.894 137.746 120.506C141.788 121.124 145.271 122.71 144.653 126.757C144.036 130.804 140.256 133.586 136.209 132.968Z" fill="#BE8E45"/>
<path d="M129.558 151.493C125.845 150.7 117.59 136.412 118.383 132.699C119.176 128.986 129.059 139.117 132.771 139.914C136.484 140.707 138.68 144.732 137.882 148.445C137.094 152.162 133.271 152.286 129.558 151.493Z" fill="#BE8E45"/>
<path d="M119.5 166.705C116.092 166.012 109.771 151.122 110.469 147.713C111.158 144.305 119.311 152.151 122.009 154.349C125.14 156.892 126.931 161.78 126.241 165.192C125.544 168.601 122.913 167.399 119.5 166.705Z" fill="#BE8E45"/>
<path d="M142.952 145.639C138.808 144.48 134.215 144.342 133.06 148.477C131.905 152.616 134.353 155.513 138.492 156.668C142.626 157.819 158.399 160 159.55 155.857C160.705 151.713 147.096 146.785 142.952 145.639Z" fill="#BE8E45"/>
<path d="M139.445 130.087C137.988 125.69 142.756 123.19 147.164 121.732C151.561 120.279 166.138 116.386 167.59 120.783C169.043 125.181 154.803 132.079 150.41 133.536C146.007 134.984 140.893 134.49 139.445 130.087Z" fill="#BE8E45"/>
<path d="M140.103 105.792C136.662 102.881 139.419 100.402 142.341 96.961C145.253 93.5199 155.321 80.8382 158.762 83.7547C162.208 86.6665 154.344 99.685 151.432 103.126C148.511 106.572 143.549 108.709 140.103 105.792Z" fill="#BE8E45"/>
<path d="M114.132 87.2557C112.23 83.1688 115.773 82.076 119.869 80.1782C127.005 81.4712 174.525 52.649 177.333 58.6943C181.439 67.5377 129.621 87.6871 125.535 89.589C121.437 91.4912 116.036 91.3489 114.132 87.2557Z" fill="#BE8E45"/>
<path d="M175.535 64.2398C172.025 67.0684 170.113 63.8918 167.286 60.3725C166.826 53.1345 136.014 24.6629 141.207 20.4846C148.804 14.3724 172.23 49.1009 175.059 52.6107C177.89 56.1309 179.051 61.4073 175.535 64.2398Z" fill="#BE8E45"/>
<path d="M124.292 162.709C128.209 162.356 130.566 165.432 130.919 169.37C131.281 173.282 130.402 188.752 126.57 187.823C118.744 185.915 119.715 174.871 119.362 170.946C119.005 167.016 120.362 163.066 124.292 162.709Z" fill="#BE8E45"/>
<path d="M146.829 21.3346C146.383 27.8471 128.522 20.2829 125.718 14.8948C122.919 9.50732 123.59 6.56583 124.141 5.73746C124.694 4.90845 124.793 8.60746 128.583 11.3639C131.584 13.5474 147.135 16.8385 146.829 21.3346Z" fill="#BE8E45"/>
<path d="M65.4141 105.556C65.4141 116.667 71.1789 161.111 100.003 161.111C128.827 161.111 134.592 116.667 134.592 105.556C130.036 86.4778 119.105 66.6666 100.003 66.6666C80.9012 66.6666 70.499 86.8499 65.4141 105.556Z" fill="#B57C43"/>
<path d="M115.889 128.501C119.877 128.501 123.111 125.267 123.111 121.278C123.111 117.29 119.877 114.056 115.889 114.056C111.9 114.056 108.667 117.29 108.667 121.278C108.667 125.267 111.9 128.501 115.889 128.501Z" fill="#AB6927" fill-opacity="0.5"/>
<path d="M84.1109 128.501C88.0996 128.501 91.3331 125.267 91.3331 121.278C91.3331 117.29 88.0996 114.056 84.1109 114.056C80.1222 114.056 76.8887 117.29 76.8887 121.278C76.8887 125.267 80.1222 128.501 84.1109 128.501Z" fill="#AB6927" fill-opacity="0.5"/>
<path d="M109.389 119.834C113.776 119.834 117.333 116.277 117.333 111.89C117.333 107.502 113.776 103.945 109.389 103.945C105.001 103.945 101.444 107.502 101.444 111.89C101.444 116.277 105.001 119.834 109.389 119.834Z" fill="#A4703C" fill-opacity="0.5"/>
<path d="M90.6109 119.834C94.9985 119.834 98.5554 116.277 98.5554 111.89C98.5554 107.502 94.9985 103.945 90.6109 103.945C86.2234 103.945 82.6665 107.502 82.6665 111.89C82.6665 116.277 86.2234 119.834 90.6109 119.834Z" fill="#A4703C" fill-opacity="0.5"/>
<path d="M90.6111 115.501C92.6055 115.501 94.2222 113.884 94.2222 111.889C94.2222 109.895 92.6055 108.278 90.6111 108.278C88.6167 108.278 87 109.895 87 111.889C87 113.884 88.6167 115.501 90.6111 115.501Z" fill="#8C6238" fill-opacity="0.5"/>
<path d="M109.389 115.501C111.383 115.501 113 113.884 113 111.889C113 109.895 111.383 108.278 109.389 108.278C107.395 108.278 105.778 109.895 105.778 111.889C105.778 113.884 107.395 115.501 109.389 115.501Z" fill="#8C6238" fill-opacity="0.5"/>
<path d="M105.778 131.389H94.2221C93.4248 131.389 92.7777 130.744 92.7777 129.945C92.7777 129.146 93.4248 128.501 94.2221 128.501H105.778C106.576 128.501 107.222 129.146 107.222 129.945C107.222 130.744 106.576 131.389 105.778 131.389ZM117.335 103.945C116.894 103.945 116.462 103.746 116.178 103.367C112.364 98.2813 107.423 98.1701 107.213 98.1672C106.419 98.1585 105.778 97.5085 105.782 96.7155C105.786 95.9197 106.428 95.2783 107.222 95.2783C107.488 95.2783 113.776 95.3505 118.489 101.634C118.968 102.272 118.838 103.178 118.2 103.656C117.94 103.851 117.637 103.945 117.335 103.945ZM82.6651 103.945C82.3647 103.945 82.0599 103.851 81.7999 103.656C81.1614 103.178 81.0329 102.272 81.511 101.634C86.2228 95.3505 92.5119 95.2783 92.7777 95.2783C93.575 95.2783 94.2221 95.9254 94.2221 96.7228C94.2221 97.5187 93.5793 98.1643 92.7834 98.1672C92.5595 98.1701 87.6297 98.2914 83.8221 103.367C83.539 103.746 83.1042 103.945 82.6651 103.945Z" fill="#A4703C" fill-opacity="0.5"/>
<path d="M136.118 3.59527C141.723 5.93017 152.764 20.9196 146.313 21.9143C141.859 22.6008 132.271 11.8404 131.183 10.4768C129.041 7.78767 124.306 4.14948 125.085 3.5285C125.865 2.90752 130.513 1.26038 136.118 3.59527Z" fill="#B57C43"/>
<path d="M118.644 79.3427C118.644 80.1855 114.188 74.7623 100.63 74.7623C87.0698 74.7623 82.6177 80.1855 82.6177 79.3427C82.6177 78.4999 88.224 71.7087 100.63 71.7087C113.035 71.7087 118.644 78.4999 118.644 79.3427Z" fill="#BE8E45"/>
<path d="M112.049 72.821C114.81 72.821 117.049 70.5825 117.049 67.821C117.049 65.0596 114.81 62.821 112.049 62.821C109.287 62.821 107.049 65.0596 107.049 67.821C107.049 70.5825 109.287 72.821 112.049 72.821Z" fill="#292F33"/>
<path d="M89.791 72.821C92.5524 72.821 94.791 70.5825 94.791 67.821C94.791 65.0596 92.5524 62.821 89.791 62.821C87.0296 62.821 84.791 65.0596 84.791 67.821C84.791 70.5825 87.0296 72.821 89.791 72.821Z" fill="#292F33"/>
<path d="M104.963 67.1325C103.129 66.7262 99.1647 66.4923 96.9981 66.8493C99.8797 57.1924 97.5096 7.39526 100.833 7.39526C104.156 7.39526 100.827 56.0976 104.963 67.1325Z" fill="#BE8E45"/>
</g>
<defs>
<clipPath id="clip0_127_190">
<rect width="200" height="200" fill="white"/>
</clipPath>
</defs>
</svg>
