<svg width="200" height="200" viewBox="0 0 200 200" fill="none" xmlns="http://www.w3.org/2000/svg">
<g clip-path="url(#clip0_305_101)">
<path d="M88.3566 113.287H87.9986C76.1548 112.987 60.4787 108.908 53.0547 91.1876C52.2994 89.3898 53.5526 87.4267 55.8688 86.839C58.185 86.2514 60.6634 87.209 61.4186 89.0111L61.4354 89.059C63.1809 93.2335 68.5014 105.931 88.2895 106.432C90.7231 106.497 92.6309 108.077 92.5526 109.966C92.4742 111.773 90.628 113.2 88.3566 113.287ZM58.4367 137.825C59.2815 136.863 60.7361 136.262 62.3417 136.336C79.3157 137.124 87.9538 127.9 90.7959 124.871C92.2281 123.338 94.9862 123.003 96.9499 124.117C98.9192 125.232 99.2661 127.369 97.9178 128.906C88.4182 139.048 76.2723 143.854 61.8159 143.183C59.3878 143.07 57.5304 141.446 57.6759 139.553C57.7318 138.909 58.0059 138.317 58.4367 137.825Z" fill="#FFD5DB"/>
<path d="M85.6435 120.1C87.9988 119.821 89.9345 119.486 91.3611 119.229L92.3626 119.055C94.7459 118.655 96.2508 116.831 95.7361 114.976C95.2214 113.126 92.8549 111.938 90.494 112.352L89.4142 112.539C83.3329 113.605 69.0779 116.125 53.2563 107.537C51.2591 106.458 48.5065 106.836 47.1247 108.386C45.7316 109.94 46.2239 112.077 48.2156 113.157C63.1252 121.253 77.1117 121.105 85.6435 120.1Z" fill="#FFD5DB"/>
<path d="M91.4673 125.893C93.5709 125.027 97.3584 123.177 97.3584 123.177C99.434 122.185 100.083 120.078 98.8074 118.459C97.5374 116.848 94.7905 116.334 92.7428 117.331L91.803 117.788C86.5217 120.361 74.1464 126.411 55.5556 122.389C53.2114 121.884 50.7778 122.951 50.1288 124.775C49.4742 126.599 50.8505 128.492 53.1947 128.997C70.7113 132.784 83.8474 129.036 91.4673 125.893Z" fill="#FFD5DB"/>
<path d="M113.436 113.287H113.794C125.638 112.987 141.314 108.908 148.738 91.1876C149.494 89.3898 148.24 87.4267 145.924 86.839C143.608 86.2514 141.13 87.209 140.374 89.0111L140.358 89.059C138.612 93.2335 133.292 105.931 113.503 106.432C111.07 106.497 109.162 108.077 109.24 109.966C109.319 111.773 111.165 113.2 113.436 113.287ZM143.356 137.825C142.511 136.863 141.057 136.262 139.451 136.336C122.477 137.124 113.839 127.9 110.997 124.871C109.565 123.338 106.807 123.003 104.843 124.117C102.874 125.232 102.527 127.369 103.875 128.906C113.375 139.048 125.521 143.854 139.977 143.183C142.405 143.07 144.263 141.446 144.117 139.553C144.061 138.909 143.787 138.317 143.356 137.825Z" fill="#FFD5DB"/>
<path d="M116.15 120.1C113.794 119.821 111.858 119.486 110.432 119.229L109.43 119.055C107.047 118.655 105.542 116.831 106.057 114.976C106.572 113.126 108.938 111.938 111.299 112.352L112.379 112.539C118.46 113.605 132.715 116.125 148.537 107.537C150.534 106.458 153.286 106.836 154.668 108.386C156.061 109.94 155.569 112.077 153.577 113.157C138.668 121.253 124.681 121.105 116.15 120.1Z" fill="#FFD5DB"/>
<path d="M110.326 125.893C108.222 125.027 104.435 123.177 104.435 123.177C102.359 122.185 101.71 120.078 102.986 118.459C104.256 116.848 107.002 116.334 109.05 117.331L109.99 117.788C115.271 120.361 127.647 126.411 146.237 122.389C148.582 121.884 151.015 122.951 151.664 124.775C152.319 126.599 150.942 128.492 148.598 128.997C131.082 132.784 117.946 129.036 110.326 125.893Z" fill="#FFD5DB"/>
<path d="M96.3953 96.2853C97.7333 99.2679 96.3918 102.766 93.4093 104.097C90.4233 105.432 86.925 104.09 85.5906 101.108C84.2631 98.1285 70.4562 79.2254 76.0061 76.1423C80.7849 74.909 95.0643 93.3062 96.3953 96.2853Z" fill="#FF8FA0"/>
<path d="M83.7123 79.213C85.7766 81.7476 85.3863 85.4739 82.8498 87.5315C80.3109 89.5933 76.5847 89.2029 74.5238 86.6674C72.4704 84.1336 67.1835 64.5883 69.72 62.5307C72.2531 60.474 81.6556 76.6801 83.7123 79.213Z" fill="#EF8091"/>
<path d="M73.3756 71.5266C79.5124 72.6921 76.8395 54.3247 72.5312 50.4232C68.2225 46.5261 65.3368 46.4341 64.4365 46.7433C63.535 47.0541 66.9351 48.0431 68.5682 52.2192C69.8621 55.5266 69.1391 70.7206 73.3756 71.5266Z" fill="#EF8091"/>
<path d="M59.5501 57.3111C60.353 63.0654 71.5526 76.9199 74.0372 71.1892C75.7522 67.2327 68.1153 55.7482 67.1168 54.4105C65.1465 51.776 62.9264 46.5106 62.1626 47.0819C61.3987 47.6532 58.7472 51.5567 59.5501 57.3111Z" fill="#FF8FA0"/>
<path d="M106.567 96.2853C105.229 99.2679 106.571 102.766 109.553 104.097C112.539 105.432 116.037 104.09 117.372 101.108C118.699 98.1285 132.506 79.2254 126.956 76.1423C122.177 74.909 107.898 93.3062 106.567 96.2853Z" fill="#FF8FA0"/>
<path d="M119.25 79.213C117.186 81.7476 117.576 85.4739 120.113 87.5315C122.652 89.5933 126.378 89.2029 128.439 86.6674C130.492 84.1336 135.779 64.5883 133.242 62.5307C130.709 60.474 121.307 76.6801 119.25 79.213Z" fill="#EF8091"/>
<path d="M129.587 71.5266C123.45 72.6921 126.123 54.3247 130.431 50.4232C134.74 46.5261 137.626 46.4341 138.526 46.7433C139.427 47.0541 136.027 48.0431 134.394 52.2192C133.1 55.5266 133.823 70.7206 129.587 71.5266Z" fill="#EF8091"/>
<path d="M143.412 57.3111C142.609 63.0654 131.41 76.9199 128.925 71.1892C127.21 67.2327 134.847 55.7482 135.846 54.4105C137.816 51.776 140.036 46.5106 140.8 47.0819C141.564 47.6532 144.215 51.5567 143.412 57.3111Z" fill="#FF8FA0"/>
<path d="M97.4498 78.4445C96.0164 78.4445 94.7942 77.3389 94.6831 75.8834C91.9164 40.6056 80.0442 19.9723 61.2498 17.7778C59.7276 17.6 58.6331 16.2223 58.8164 14.6945C58.9942 13.1778 60.3387 12.0945 61.8998 12.2611C74.4776 13.7278 96.1776 23.8889 100.222 75.45C100.339 76.9778 99.1998 78.3167 97.672 78.4389L97.4498 78.4445ZM105.328 78.4445L105.105 78.4389C103.578 78.3223 102.433 76.9834 102.555 75.45C106.6 23.8889 128.305 13.7278 140.883 12.2611C142.383 12.05 143.783 13.1723 143.966 14.6945C144.139 16.2167 143.05 17.6 141.528 17.7778C122.733 19.9723 110.861 40.6056 108.094 75.8834C107.983 77.3389 106.766 78.4445 105.328 78.4445Z" fill="#FFD4DB"/>
<path d="M90.5581 149.925C89.8488 155.408 90.2736 184.464 101.789 186.658V147.736L90.5581 149.925Z" fill="#ED5A6D"/>
<path d="M112.128 149.925C112.838 155.408 112.413 184.464 100.897 186.658V147.736L112.128 149.925Z" fill="#ED5A6D"/>
<path d="M102.724 137C102.724 142.556 102.8 155.478 102.8 164.089C100.493 164.089 96.829 164 93.0367 162.422C87.0419 159.922 88.5797 140.75 90.5779 136.306L102.724 137Z" fill="#F47081"/>
<path d="M100.047 137C100.047 142.556 99.4609 155.478 99.4609 164.089C101.684 164.089 105.728 164 109.378 162.422C115.155 159.922 113.673 140.75 111.748 136.306L100.047 137Z" fill="#F47081"/>
<path d="M101.803 115.883C101.803 122.067 101.891 136.45 101.891 146.039C99.2557 146.039 95.0673 145.944 90.7339 144.183C83.8819 141.4 85.6402 120.061 87.9215 115.111L101.803 115.883Z" fill="#FF8FA0"/>
<path d="M101.291 115.883C101.291 122.067 100.65 136.45 100.65 146.039C103.194 146.039 107.796 145.944 111.975 144.183C118.589 141.4 116.892 120.061 114.69 115.111L101.291 115.883Z" fill="#FF8FA0"/>
<path d="M105.196 194.111C108.836 194.111 126.455 192.255 126.916 182.355C126.61 179.98 111.82 178.118 101.718 178.118V194.111C101.715 194.111 101.718 194.111 101.718 194.111V194.111C101.735 194.111 102.002 194.111 105.196 194.111Z" fill="#D24E5F"/>
<path d="M98.4365 194.111C94.7964 194.111 77.1774 192.255 76.7166 182.355C77.0223 179.98 91.8127 178.118 101.915 178.118V194.111C101.917 194.111 101.915 194.111 101.915 194.111V194.111C101.898 194.111 101.631 194.111 98.4365 194.111Z" fill="#D24E5F"/>
<path d="M101.252 74.1721C101.252 86.2221 102.128 123.183 102.128 126.933C97.7378 126.933 85.4679 128.805 86.1562 109.522C86.8414 90.2443 93.5672 74.1721 101.252 74.1721Z" fill="#F47081"/>
<path d="M100.4 126.933C100.4 123.183 101.069 86.2224 101.069 74.1724C108.859 74.1724 115.677 90.239 116.372 109.522C117.067 128.806 104.851 126.933 100.4 126.933Z" fill="#F47081"/>
<path d="M96.9354 81.5459C98.7009 81.2324 99.7728 78.9548 99.3297 76.4588C98.8865 73.9627 97.096 72.1934 95.3305 72.5069C93.565 72.8203 92.4931 75.0979 92.9362 77.594C93.3794 80.09 95.1699 81.8593 96.9354 81.5459Z" fill="#FF8FA0"/>
<path d="M109.877 77.4551C110.319 74.959 109.247 72.6816 107.482 72.3684C105.716 72.0551 103.926 73.8246 103.483 76.3207C103.04 78.8168 104.112 81.0943 105.878 81.4075C107.643 81.7208 109.434 79.9512 109.877 77.4551Z" fill="#FF8FA0"/>
<path d="M96.5355 79.2817C98.301 78.9682 99.3729 76.6907 98.9298 74.1946C98.4866 71.6986 96.6961 69.9293 94.9306 70.2427C93.1651 70.5562 92.0932 72.8337 92.5363 75.3298C92.9795 77.8258 94.77 79.5952 96.5355 79.2817Z" fill="#292F33"/>
<path d="M110.245 75.3311C110.688 72.835 109.615 70.5576 107.85 70.2443C106.084 69.9311 104.294 71.7006 103.851 74.1967C103.408 76.6928 104.481 78.9702 106.246 79.2835C108.012 79.5967 109.802 77.8272 110.245 75.3311Z" fill="#292F33"/>
</g>
<defs>
<clipPath id="clip0_305_101">
<rect width="200" height="200" fill="white"/>
</clipPath>
</defs>
</svg>
