<svg width="200" height="200" viewBox="0 0 200 200" fill="none" xmlns="http://www.w3.org/2000/svg">
<g clip-path="url(#clip0_305_204)">
<path d="M131.692 162.983C129.945 162.173 128.198 160.204 127.43 158.483C133.226 153.794 168.752 116.585 171.255 119.609C173.759 122.634 136.365 156.161 131.692 162.983Z" fill="#8731A6"/>
<path d="M149.98 181.058C148.083 181.388 144.638 180.659 143.026 179.682C145.121 172.527 153.334 121.309 157.114 122.37C160.894 123.431 149.937 172.79 149.98 181.058Z" fill="#9F3CC2"/>
<path d="M151.244 186.386C149.323 186.257 146.149 184.732 144.815 183.401C148.546 176.946 168.664 129.135 172.085 131.061C175.506 132.988 153.162 178.343 151.244 186.386Z" fill="#9F3CC2"/>
<path d="M65.1925 175.408C63.2679 175.467 59.9602 174.261 58.5024 173.066C61.5837 166.278 76.9268 116.727 80.52 118.309C84.1131 119.892 66.3145 167.216 65.1925 175.408Z" fill="#9F3CC2"/>
<path d="M61.6951 161.453C59.9895 162.347 57.3639 162.533 55.5308 162.095C55.3396 154.642 47.4482 103.806 51.3717 103.661C55.2952 103.516 59.1285 153.593 61.6951 161.453Z" fill="#8731A6"/>
<path d="M65.5775 168.408C64.1276 169.675 60.8054 170.841 58.9206 170.842C56.995 163.641 37.4129 115.606 41.1942 114.55C44.9755 113.493 61.2469 161.364 65.5775 168.408Z" fill="#9F3CC2"/>
<path d="M152.209 193.629L148.761 188.479C148.761 188.479 185.419 158.79 187.381 162.191C189.342 165.592 152.209 193.629 152.209 193.629Z" fill="#8731A6"/>
<path d="M115.211 165.146C113.363 164.605 111.344 162.916 110.329 161.328C115.366 155.832 144.983 113.767 147.907 116.387C150.831 119.007 118.821 157.707 115.211 165.146Z" fill="#8731A6"/>
<path d="M164.522 192.885C163.139 191.545 161.701 188.332 161.543 186.454C168.559 183.936 190.356 177.671 191.723 181.351C193.09 185.032 171.181 187.984 164.522 192.885Z" fill="#9F3CC2"/>
<path d="M134.46 179.423C132.698 180.201 130.066 180.212 128.267 179.652C128.573 172.203 124.094 120.953 128.018 121.071C131.943 121.188 132.424 171.41 134.46 179.423Z" fill="#661D81"/>
<path d="M118.151 168.264C116.331 168.892 112.814 168.721 111.068 168.012C111.996 160.616 111.949 108.743 115.85 109.189C119.751 109.634 116.793 160.108 118.151 168.264Z" fill="#9F3CC2"/>
<path d="M47.1364 189.698C46.7715 191.512 45.3808 194.744 44.3811 196.225C41.0599 193.896 15.3325 183.658 17.0017 180.124C18.671 176.591 42.5895 189.342 47.1364 189.698Z" fill="#9F3CC2"/>
<path d="M101.272 148.433C58.0839 148.433 11.191 169.836 47.0929 201.992L150.141 201.227C193.71 201.227 178.892 146.933 101.272 148.433Z" fill="#7C269B"/>
<path d="M126.017 162.812C124.179 163.388 120.669 163.117 118.943 162.359C120.081 154.992 121.505 103.139 125.392 103.695C129.278 104.251 124.89 154.621 126.017 162.812Z" fill="#9F3CC2"/>
<path d="M143.372 189.428C141.447 189.46 139.017 188.447 137.577 187.231C140.755 180.488 156.548 131.526 160.118 133.16C163.688 134.794 144.611 181.253 143.372 189.428Z" fill="#661D81"/>
<path d="M132.683 172.808C130.762 172.678 127.588 171.154 126.254 169.822C129.985 163.368 150.104 115.556 153.525 117.483C156.946 119.409 134.601 164.765 132.683 172.808Z" fill="#9F3CC2"/>
<path d="M153.417 178.724C151.579 178.15 149.59 176.425 148.604 174.819C153.738 169.414 184.105 127.887 186.982 130.559C189.859 133.231 157.159 171.351 153.417 178.724Z" fill="#8731A6"/>
<path d="M168.477 191.947C166.572 192.224 164.033 191.529 162.449 190.508C164.74 183.414 174.155 132.837 177.904 134.001C181.654 135.166 168.662 183.68 168.477 191.947Z" fill="#661D81"/>
<path d="M154.008 193.405C152.289 192.537 149.961 189.895 149.252 188.149C155.204 183.661 192.373 147.478 194.772 150.586C197.171 153.694 158.91 186.747 154.008 193.405Z" fill="#9F3CC2"/>
<path d="M94.5184 161.209C92.8127 162.102 90.1871 162.289 88.3541 161.851C88.1629 154.398 80.2714 103.561 84.195 103.416C88.1185 103.272 91.9517 153.349 94.5184 161.209Z" fill="#8731A6"/>
<path d="M128.698 197.561C126.906 197.098 124.57 195.897 123.142 194.824C125.629 191.657 136.899 166.852 140.341 168.703C143.783 170.553 129.276 193.07 128.698 197.561Z" fill="#8731A6"/>
<path d="M117.711 172.357C116.372 173.741 113.938 174.742 112.06 174.902C109.538 167.886 86.0848 122.098 89.7644 120.728C93.444 119.359 112.806 165.7 117.711 172.357Z" fill="#661D81"/>
<path d="M104.14 165.327C102.242 165.649 99.6871 165.015 98.0793 164.031C100.201 156.885 108.413 106.099 112.189 107.174C115.965 108.249 104.129 157.058 104.14 165.327Z" fill="#661D81"/>
<path d="M110.669 197.528C109.191 197.566 107.095 197.295 105.716 196.947C106.678 194.846 108.048 179.707 111.161 180.151C114.274 180.594 109.82 195.021 110.669 197.528Z" fill="#661D81"/>
<path d="M73.4377 195.952C71.736 196.639 69.1792 197.233 67.424 197.427C67.6307 194.566 62.6505 176.36 66.4643 175.524C70.278 174.688 71.3614 193.405 73.4377 195.952Z" fill="#661D81"/>
<path d="M46.4559 171.544C45.2895 172.96 43.3278 174.705 41.8788 175.714C40.6928 173.102 27.6151 159.492 30.5652 156.935C33.5153 154.378 43.4145 170.299 46.4559 171.544Z" fill="#661D81"/>
<path d="M107.724 175.445C105.996 176.294 102.485 176.56 100.664 176.074C100.668 168.619 94.1851 117.154 98.1111 117.112C102.037 117.07 105.364 167.521 107.724 175.445Z" fill="#9F3CC2"/>
<path d="M86.9948 163.583C85.656 164.967 83.2217 165.969 81.3437 166.128C78.8224 159.113 55.3689 113.324 59.0486 111.955C62.7282 110.585 82.0902 156.927 86.9948 163.583Z" fill="#661D81"/>
<path d="M76.9966 173.364C75.2682 174.213 71.7573 174.48 69.9364 173.993C69.9403 166.538 63.4576 115.073 67.3836 115.031C71.3095 114.989 74.6365 165.44 76.9966 173.364Z" fill="#9F3CC2"/>
<path d="M60.6255 181.503C60.3432 183.408 58.9478 185.64 57.514 186.863C51.3783 182.629 5.64448 159.069 7.83799 155.813C10.0315 152.557 52.7616 178.949 60.6255 181.503Z" fill="#8731A6"/>
<path d="M64.6096 171.751C63.5345 173.349 61.3139 174.762 59.493 175.249C55.7792 168.785 24.6514 127.825 28.0335 125.831C31.4156 123.837 58.6126 166.059 64.6096 171.751Z" fill="#661D81"/>
<path d="M92.38 196.728C90.5701 197.083 87.0525 197.115 85.2961 196.837C86.1123 193.316 85.2789 168.84 89.1845 168.925C93.0901 169.01 90.8984 192.923 92.38 196.728Z" fill="#9F3CC2"/>
<path d="M54.2969 185.624C52.7443 186.763 49.3347 187.642 47.4567 187.483C46.1518 180.143 30.7346 130.615 34.5922 129.884C38.4498 129.154 50.5823 178.237 54.2969 185.624Z" fill="#9F3CC2"/>
</g>
<defs>
<clipPath id="clip0_305_204">
<rect width="200" height="200" fill="white"/>
</clipPath>
</defs>
</svg>
