<svg width="200" height="200" viewBox="0 0 200 200" fill="none" xmlns="http://www.w3.org/2000/svg">
<g clip-path="url(#clip0_130_271)">
<g clip-path="url(#clip1_130_271)">
<path d="M200 177.778C200 190.05 190.05 200 177.778 200H22.2222C9.95 200 0 190.05 0 177.778V22.2222C0 9.95 9.95 0 22.2222 0H177.778C190.05 0 200 9.95 200 22.2222V177.778Z" fill="#55ACEE"/>
<path d="M38.6668 114.65C39.0446 118.2 35.6501 121.472 31.0668 121.956C26.489 122.45 22.4724 119.972 22.0946 116.428C21.7168 112.878 25.1168 109.611 29.6946 109.128C34.2724 108.633 38.289 111.106 38.6668 114.65ZM50.2613 129.745C50.9557 134.289 40.5057 143.878 35.9501 144.572C31.4001 145.267 27.1501 142.139 26.4613 137.589C25.7668 133.045 29.6835 131.256 34.2279 130.561C38.7779 129.872 49.5668 125.2 50.2613 129.745ZM60.1668 141.433C61.1279 145.933 51.1224 163.25 46.6224 164.211C42.1168 165.172 37.4835 165.022 36.5279 160.517C35.5668 156.017 38.2279 151.139 42.7279 150.178C47.2279 149.211 59.2057 136.933 60.1668 141.433ZM81.5724 146.2C82.489 150.706 74.139 170.389 69.6279 171.306C65.1168 172.222 61.6335 173.811 60.7168 169.306C59.8001 164.795 62.1668 158.333 66.3057 154.972C69.8835 152.067 80.6613 141.695 81.5724 146.2Z" fill="#292F33"/>
<path d="M21.8054 104.828C25.1776 108.8 28.3609 111.661 24.3832 115.022C20.4054 118.389 14.6776 115.922 11.3054 111.944C7.94427 107.972 -1.13351 92.9445 2.83871 89.5834C6.82205 86.2167 18.4443 100.856 21.8054 104.828ZM23.6387 131.939C28.5943 133.578 33.9554 136.389 32.322 141.333C30.6887 146.283 24.9443 146.839 19.9943 145.211C15.0554 143.572 -0.961288 135.817 0.672046 130.872C2.31093 125.928 18.6943 130.306 23.6387 131.939ZM30.3832 157.117C35.4109 155.711 40.9776 155.544 42.3776 160.556C43.7776 165.572 40.8109 169.083 35.7887 170.483C30.7776 171.878 11.6665 174.522 10.2665 169.506C8.87205 164.478 25.3665 158.506 30.3832 157.117ZM54.5387 174.828C55.0054 169.622 58.1165 165.556 63.2998 166.022C68.4887 166.494 70.2887 171.717 69.8165 176.911C69.3443 182.1 70.6332 196.7 60.2887 199.222C55.2221 200.45 54.0609 180 54.5387 174.828ZM161.333 114.65C160.955 118.2 164.35 121.472 168.928 121.956C173.505 122.45 177.522 119.972 177.9 116.428C178.278 112.878 174.878 109.611 170.305 109.128C165.728 108.633 161.711 111.106 161.333 114.65ZM149.739 129.744C149.044 134.289 159.5 143.878 164.044 144.572C168.594 145.267 172.844 142.139 173.539 137.589C174.233 133.039 170.316 131.256 165.772 130.561C161.222 129.872 150.433 125.2 149.739 129.744ZM139.833 141.433C138.872 145.933 148.878 163.25 153.378 164.211C157.878 165.172 162.511 165.022 163.466 160.517C164.433 156.017 161.772 151.139 157.272 150.178C152.772 149.211 140.794 136.933 139.833 141.433ZM118.428 146.2C117.505 150.706 125.861 170.389 130.366 171.306C134.878 172.222 138.355 173.811 139.278 169.306C140.189 164.794 137.822 158.333 133.683 154.972C130.116 152.067 119.339 141.694 118.428 146.2Z" fill="#292F33"/>
<path d="M178.195 104.828C174.822 108.8 171.639 111.661 175.611 115.022C179.589 118.389 185.317 115.922 188.689 111.944C192.05 107.972 201.128 92.9445 197.15 89.5834C193.178 86.2167 181.556 100.856 178.195 104.828ZM176.361 131.939C171.406 133.578 166.045 136.389 167.683 141.333C169.311 146.283 175.061 146.839 180.011 145.211C184.95 143.572 200.961 135.817 199.328 130.872C197.695 125.928 181.306 130.306 176.361 131.939ZM169.611 157.117C164.589 155.711 159.022 155.544 157.622 160.556C156.222 165.572 159.189 169.083 164.206 170.483C169.217 171.878 188.333 174.522 189.728 169.5C191.128 164.478 174.633 158.506 169.611 157.117ZM145.461 174.828C144.995 169.622 141.878 165.556 136.7 166.022C131.506 166.494 129.711 171.717 130.183 176.911C130.65 182.1 129.367 196.7 139.711 199.222C144.778 200.45 145.939 180 145.461 174.828Z" fill="#292F33"/>
<path d="M22.2501 64.6445C17.4945 66.7667 15.3612 72.3445 17.489 77.1001C19.6112 81.8501 39.9334 104.833 44.6834 102.711C49.439 100.589 36.8279 74.1612 34.7112 69.4112C32.5834 64.6556 27.0056 62.5167 22.2501 64.6445Z" fill="#B41F1F"/>
<path d="M182.511 77.1001C184.645 72.3445 182.506 66.7667 177.75 64.6445C172.989 62.5167 167.411 64.6556 165.283 69.4112C163.167 74.1612 150.561 100.589 155.317 102.711C160.067 104.833 180.389 81.8501 182.511 77.1001Z" fill="#B41F1F"/>
<path d="M180.46 68.737C176.654 77.9414 154.487 58.3337 153.046 49.1791C151.61 40.0276 154.008 36.098 155.206 35.1669C156.408 34.2359 154.758 39.6353 158.903 45.4612C162.185 50.0759 183.084 62.3817 180.46 68.737Z" fill="#B41F1F"/>
<path d="M33.3335 122.222C33.3335 111.111 44.4446 66.6667 100 66.6667C155.556 66.6667 166.667 111.111 166.667 122.222C138.889 138.889 136.817 161.111 100 161.111C63.1835 161.111 66.6668 138.889 33.3335 122.222Z" fill="#E30E0E"/>
<path d="M173.572 37.879C180.547 43.9759 189.247 71.0162 179.432 69.3254C172.656 68.1577 164.006 47.9398 163.094 45.4394C161.3 40.5102 156.215 32.9499 157.645 32.4298C159.074 31.9098 166.597 31.7822 173.572 37.879Z" fill="#E30E0E"/>
<path d="M19.4814 68.737C23.2865 77.9414 45.4537 58.3337 46.8954 49.1791C48.3309 40.0276 45.9332 36.098 44.7344 35.1669C43.5325 34.2359 45.1828 39.6353 41.0383 45.4612C37.7564 50.0759 16.8564 62.3817 19.4814 68.737Z" fill="#B41F1F"/>
<path d="M26.3692 37.879C19.3942 43.9759 10.6942 71.0162 20.509 69.3254C27.2846 68.1577 35.9348 47.9398 36.8471 45.4394C38.6407 40.5102 43.7256 32.9499 42.2963 32.4298C40.8671 31.9098 33.3441 31.7822 26.3692 37.879Z" fill="#E30E0E"/>
<path d="M149.161 90.2777C149.161 92.5777 137 77.7777 99.9998 77.7777C62.9942 77.7777 50.8442 92.5777 50.8442 90.2777C50.8442 87.9777 66.1442 69.4443 99.9998 69.4443C133.855 69.4443 149.161 87.9777 149.161 90.2777Z" fill="#292F33"/>
<path d="M60.9609 135.739C60.9609 133.439 70.8609 148.239 101 148.239C131.139 148.239 141.044 133.439 141.044 135.739C141.044 138.039 128.578 156.572 101 156.572C73.422 156.572 60.9609 138.039 60.9609 135.739Z" fill="#292F33"/>
<path d="M80.5555 81.111C85.1579 81.111 88.8888 77.38 88.8888 72.7777C88.8888 68.1753 85.1579 64.4443 80.5555 64.4443C75.9531 64.4443 72.2222 68.1753 72.2222 72.7777C72.2222 77.38 75.9531 81.111 80.5555 81.111Z" fill="#FFF1A7"/>
<path d="M119.445 81.111C124.047 81.111 127.778 77.38 127.778 72.7777C127.778 68.1753 124.047 64.4443 119.445 64.4443C114.842 64.4443 111.111 68.1753 111.111 72.7777C111.111 77.38 114.842 81.111 119.445 81.111Z" fill="#FFF1A7"/>
<path d="M80.5557 74.7778C81.6602 74.7778 82.5557 73.8824 82.5557 72.7778C82.5557 71.6733 81.6602 70.7778 80.5557 70.7778C79.4511 70.7778 78.5557 71.6733 78.5557 72.7778C78.5557 73.8824 79.4511 74.7778 80.5557 74.7778Z" fill="#292F33"/>
<path d="M119.444 74.7778C120.549 74.7778 121.444 73.8824 121.444 72.7778C121.444 71.6733 120.549 70.7778 119.444 70.7778C118.34 70.7778 117.444 71.6733 117.444 72.7778C117.444 73.8824 118.34 74.7778 119.444 74.7778Z" fill="#292F33"/>
</g>
</g>
<defs>
<clipPath id="clip0_130_271">
<rect width="200" height="200" fill="white"/>
</clipPath>
<clipPath id="clip1_130_271">
<rect width="200" height="200" fill="white"/>
</clipPath>
</defs>
</svg>
