<svg width="200" height="200" viewBox="0 0 200 200" fill="none" xmlns="http://www.w3.org/2000/svg">
<g clip-path="url(#clip0_127_143)">
<g clip-path="url(#clip1_127_143)">
<path d="M200 177.778C200 190.05 190.05 200 177.778 200H22.2222C9.95 200 0 190.05 0 177.778V22.2222C0 9.95 9.95 0 22.2222 0H177.778C190.05 0 200 9.95 200 22.2222V177.778Z" fill="#55ACEE"/>
<path d="M171.242 60.919C177.216 63.585 179.896 70.5919 177.223 76.5659C174.557 82.5329 149.028 111.405 143.061 108.739C137.086 106.073 152.929 72.874 155.588 66.907C158.261 60.9329 165.268 58.246 171.242 60.919Z" fill="#946B1F"/>
<path d="M142.897 32.2672C147.709 27.8354 155.205 28.1463 159.634 32.9646C164.059 37.7738 183.983 70.7077 175.666 77.0681C168.453 83.5303 146.632 53.8157 142.203 49.0129C137.774 44.1946 138.079 36.6963 142.897 32.2672Z" fill="#946B1F"/>
<path d="M156.732 35.4452C161.528 47.0013 124.42 49.2749 115.008 42.4237C105.603 35.5697 104.243 29.9493 104.481 28.0574C104.721 26.1627 108.051 32.4248 116.908 33.9184C123.922 35.1022 153.418 27.4683 156.732 35.4452Z" fill="#946B1F"/>
<path d="M123.203 14.1532C134.814 13.3732 166.562 29.6645 156.342 36.8809C149.286 41.8623 123.643 31.5869 120.611 30.1762C114.64 27.3909 103.407 25.192 104.215 23.4605C105.023 21.7291 111.592 14.9332 123.203 14.1532Z" fill="#A67F37"/>
<path d="M30.94 60.919C24.966 63.585 22.286 70.5919 24.959 76.5659C27.625 82.5329 53.1541 111.405 59.1211 108.739C65.0951 106.073 49.2528 72.874 46.5939 66.907C43.9209 60.9329 36.914 58.246 30.94 60.919Z" fill="#946B1F"/>
<path d="M59.2844 32.2672C54.4725 27.8354 46.977 28.1463 42.5479 32.9646C38.1225 37.7738 18.1991 70.7077 26.5154 77.0681C33.7286 83.5303 55.55 53.8157 59.9782 49.0129C64.4073 44.1946 64.1028 36.6963 59.2844 32.2672Z" fill="#946B1F"/>
<path d="M45.4498 35.4452C40.6536 47.0013 77.7615 49.2749 87.174 42.4237C96.5781 35.5697 97.939 29.9493 97.7011 28.0574C97.4605 26.1627 94.1303 32.4248 85.2737 33.9184C78.2593 35.1022 48.7633 27.4683 45.4498 35.4452Z" fill="#946B1F"/>
<path d="M78.9786 14.1532C67.3672 13.3732 35.6197 29.6645 45.8399 36.8809C52.8958 41.8623 78.5388 31.5869 81.5703 30.1762C87.5419 27.3909 98.7744 25.192 97.9668 23.4605C97.1591 21.7291 90.59 14.9332 78.9786 14.1532Z" fill="#A67F37"/>
<path d="M33.6811 147.381C36.0819 142.765 31.9027 139.084 27.2707 136.676C22.6583 134.263 6.53261 127.357 4.11636 131.981C1.71176 136.601 17.4751 147.725 22.0873 150.13C26.7114 152.538 31.2765 152.001 33.6811 147.381Z" fill="#946B1F"/>
<path d="M34.2833 152.95C38.2262 155.322 57.3627 149.511 59.7349 145.568C62.1071 141.625 44.9724 142.409 41.0257 140.041C37.0828 137.669 31.8073 139.413 29.4351 143.356C27.0551 147.299 30.3363 150.574 34.2833 152.95Z" fill="#946B1F"/>
<path d="M166.829 147.381C164.428 142.765 168.607 139.084 173.239 136.676C177.851 134.263 193.977 127.357 196.393 131.981C198.798 136.601 183.035 147.725 178.422 150.13C173.798 152.538 169.233 152.001 166.829 147.381Z" fill="#946B1F"/>
<path d="M166.226 152.95C162.284 155.322 143.147 149.511 140.775 145.568C138.403 141.625 155.537 142.409 159.484 140.041C163.427 137.669 168.702 139.413 171.075 143.356C173.455 147.299 170.173 150.574 166.226 152.95Z" fill="#946B1F"/>
<path d="M38.8289 118.621C38.275 122.148 34.1493 124.43 29.5971 123.711C25.0473 123.004 21.8088 119.571 22.3613 116.049C22.9152 112.522 27.0448 110.247 31.5917 110.965C36.1415 111.672 39.3814 115.1 38.8289 118.621Z" fill="#946B1F"/>
<path d="M69.6279 171.306C74.139 170.389 82.489 150.706 81.5723 146.2C80.6612 141.695 69.8834 152.067 66.3057 154.972C62.1668 158.333 59.8001 164.795 60.7168 169.306C61.6334 173.811 65.1168 172.222 69.6279 171.306Z" fill="#946B1F"/>
<path d="M130.367 171.306C125.861 170.389 117.506 150.706 118.428 146.2C119.339 141.695 130.117 152.067 133.683 154.972C137.822 158.333 140.189 164.795 139.278 169.306C138.356 173.811 134.878 172.222 130.367 171.306Z" fill="#946B1F"/>
<path d="M24.9359 115.284C29.648 113.067 27.3137 109.479 25.0845 104.769C22.866 100.063 15.4286 82.9146 10.7096 85.1356C6.00283 87.3541 10.8818 104.219 13.1003 108.926C15.3281 113.641 20.2223 117.506 24.9359 115.284Z" fill="#946B1F"/>
<path d="M160.236 118.621C160.79 122.148 164.916 124.43 169.468 123.711C174.018 123.004 177.256 119.571 176.704 116.049C176.15 112.522 172.02 110.247 167.473 110.965C162.923 111.672 159.684 115.1 160.236 118.621Z" fill="#946B1F"/>
<path d="M174.129 115.284C169.417 113.067 171.751 109.479 173.98 104.769C176.199 100.063 183.636 82.9146 188.355 85.1356C193.062 87.3541 188.183 104.219 185.965 108.926C183.737 113.641 178.843 117.506 174.129 115.284Z" fill="#946B1F"/>
<path d="M33.3335 122.222C33.3335 111.111 44.4446 66.6667 100 66.6667C155.556 66.6667 166.667 111.111 166.667 122.222C166.667 147.152 136.817 161.111 100 161.111C63.1835 161.111 33.3335 147.624 33.3335 122.222Z" fill="#A67F37"/>
<path d="M149.161 90.2777C149.161 92.5777 137 77.7777 99.9998 77.7777C62.9942 77.7777 50.8442 92.5777 50.8442 90.2777C50.8442 87.9777 66.1442 69.4443 99.9998 69.4443C133.855 69.4443 149.161 87.9777 149.161 90.2777Z" fill="#946B1F"/>
<path d="M59.9609 135.739C59.9609 133.439 69.8609 148.239 99.9998 148.239C130.139 148.239 140.044 133.439 140.044 135.739C140.044 138.039 127.578 156.572 99.9998 156.572C72.422 156.572 59.9609 138.039 59.9609 135.739Z" fill="#946B1F"/>
<path d="M91.2222 74.4443C93.9836 74.4443 96.2222 72.2058 96.2222 69.4443C96.2222 66.6829 93.9836 64.4443 91.2222 64.4443C88.4607 64.4443 86.2222 66.6829 86.2222 69.4443C86.2222 72.2058 88.4607 74.4443 91.2222 74.4443Z" fill="#292F33"/>
<path d="M113.111 74.4443C115.873 74.4443 118.111 72.2058 118.111 69.4443C118.111 66.6829 115.873 64.4443 113.111 64.4443C110.35 64.4443 108.111 66.6829 108.111 69.4443C108.111 72.2058 110.35 74.4443 113.111 74.4443Z" fill="#292F33"/>
</g>
</g>
<defs>
<clipPath id="clip0_127_143">
<rect width="200" height="200" fill="white"/>
</clipPath>
<clipPath id="clip1_127_143">
<rect width="200" height="200" fill="white"/>
</clipPath>
</defs>
</svg>
