<svg width="200" height="200" viewBox="0 0 200 200" fill="none" xmlns="http://www.w3.org/2000/svg">
<g clip-path="url(#clip0_103_8)">
<mask id="mask0_103_8" style="mask-type:alpha" maskUnits="userSpaceOnUse" x="5" y="5" width="190" height="190">
<path d="M100 195C152.467 195 195 152.467 195 100C195 47.5329 152.467 5 100 5C47.5329 5 5 47.5329 5 100C5 152.467 47.5329 195 100 195Z" fill="#E91E63"/>
</mask>
<g mask="url(#mask0_103_8)">
<path d="M-25.5 171.337C-25.5 188.067 -11.8818 201.631 4.91484 201.631H217.819C234.615 201.631 248.234 188.067 248.234 171.337V161.492H-25.5V171.337Z" fill="#5BCEFA"/>
<path d="M-25.3023 122.11L-25.5 162.249H248.234V122.11L-25.3023 122.11Z" fill="#F5A9B8"/>
<path d="M-25.5 82.7284L248.234 82.7284V122.868H-25.5V82.7284Z" fill="#EEEEEE"/>
<path d="M-25.5 41.8472L248.234 41.8472V83.4858H-25.5V41.8472Z" fill="#F5A9B8"/>
<path d="M248.234 35.0159C248.234 18.2862 234.615 4.72223 217.819 4.72223L4.91484 4.72223C-11.8818 4.72223 -25.5 18.2862 -25.5 35.0159V44.104L248.234 44.104V35.0159Z" fill="#5BCEFA"/>
</g>
</g>
<defs>
<clipPath id="clip0_103_8">
<rect width="200" height="200" fill="white"/>
</clipPath>
</defs>
</svg>
