<svg width="200" height="200" viewBox="0 0 200 200" fill="none" xmlns="http://www.w3.org/2000/svg">
<g clip-path="url(#clip0_123_5)">
<rect x="5" y="5" width="190" height="190" rx="24" fill="#6F6F6F"/>
<path d="M81.5105 133.375H124.67L127.507 119.27H139.926V153H57.5159V137.898C75.7099 124.968 88.6144 113.929 96.2293 104.781C103.895 95.5815 107.728 86.689 107.728 78.103C107.728 71.6125 105.94 66.604 102.362 63.0776C98.8357 59.5002 93.8273 57.7114 87.3367 57.7114C86.519 57.7114 85.8802 57.737 85.4202 57.7881C84.9603 57.7881 84.5514 57.8136 84.1937 57.8647V81.5527C81.6383 82.6771 79.2874 83.5203 77.1409 84.0825C74.9944 84.5936 73.0013 84.8491 71.1614 84.8491C66.8174 84.8491 63.3421 83.6737 60.7356 81.3228C58.1292 78.9207 56.826 75.7521 56.826 71.8169C56.826 64.0998 60.4801 57.8136 67.7884 52.9585C75.1478 48.0522 84.7558 45.5991 96.6126 45.5991C108.98 45.5991 118.742 48.4355 125.897 54.1084C133.052 59.7301 136.629 67.3706 136.629 77.0298C136.629 86.689 132.157 96.0926 123.214 105.241C114.321 114.389 100.42 123.767 81.5105 133.375Z" fill="white"/>
</g>
<defs>
<clipPath id="clip0_123_5">
<rect width="200" height="200" fill="white"/>
</clipPath>
</defs>
</svg>
