<svg width="200" height="200" viewBox="0 0 200 200" fill="none" xmlns="http://www.w3.org/2000/svg">
<g clip-path="url(#clip0_123_8)">
<path d="M83.5455 21.4528C90.8586 8.78618 109.141 8.78621 116.454 21.4529L195.172 157.795C202.485 170.462 193.344 186.295 178.717 186.295H21.2826C6.65636 186.295 -2.48498 170.462 4.82812 157.795L83.5455 21.4528Z" fill="#6F6F6F"/>
<path d="M107.923 115.714C118.605 116.327 126.833 118.933 132.608 123.533C138.383 128.081 141.271 134.265 141.271 142.085C141.271 151.08 136.978 158.541 128.392 164.469C119.806 170.398 108.818 173.362 95.4278 173.362C83.4177 173.362 73.8863 171.42 66.8336 167.536C59.832 163.652 56.3311 158.464 56.3311 151.974C56.3311 147.988 57.6088 144.768 60.1642 142.315C62.7706 139.862 66.1948 138.635 70.4366 138.635C71.8676 138.635 73.3241 138.763 74.8062 139.018C76.2883 139.274 77.8215 139.657 79.4059 140.168L84.6954 160.79C86.6886 161.199 88.4006 161.505 89.8316 161.71C91.3137 161.914 92.5914 162.016 93.6646 162.016C99.2864 162.016 103.835 160.253 107.31 156.727C110.785 153.149 112.523 148.473 112.523 142.698C112.523 136.872 110.504 132.298 106.467 128.976C102.481 125.603 97.0121 123.916 90.0616 123.916C88.2218 123.916 86.433 124.018 84.6954 124.223C82.9578 124.427 81.2457 124.734 79.5592 125.143V111.497C80.6835 111.651 81.7568 111.778 82.7789 111.881C83.801 111.932 84.7721 111.957 85.692 111.957C92.8469 111.957 98.4431 110.399 102.481 107.281C106.569 104.112 108.613 99.7939 108.613 94.3254C108.613 88.4993 106.774 83.9252 103.094 80.6033C99.4142 77.2302 94.329 75.5437 87.8385 75.5437C87.5318 75.5437 87.0719 75.5693 86.4586 75.6204C85.8453 75.6715 85.3598 75.697 85.002 75.697V97.6218C83.2133 98.5417 81.399 99.2317 79.5592 99.6917C77.7704 100.101 75.9306 100.305 74.0396 100.305C69.5934 100.305 66.0414 99.1295 63.3839 96.7786C60.7774 94.4277 59.4742 91.3101 59.4742 87.426C59.4742 80.6288 63.1283 75.0582 70.4366 70.7141C77.796 66.37 87.4296 64.198 99.3375 64.198C110.837 64.198 120.01 66.6256 126.858 71.4807C133.707 76.2847 137.131 82.6475 137.131 90.5691C137.131 97.0597 134.601 102.503 129.542 106.898C124.482 111.242 117.276 114.18 107.923 115.714Z" fill="white"/>
</g>
<defs>
<clipPath id="clip0_123_8">
<rect width="200" height="200" fill="white"/>
</clipPath>
</defs>
</svg>
