<svg width="200" height="200" viewBox="0 0 200 200" fill="none" xmlns="http://www.w3.org/2000/svg">
<path d="M100 195C152.467 195 195 152.467 195 100C195 47.5329 152.467 5 100 5C47.5329 5 5 47.5329 5 100C5 152.467 47.5329 195 100 195Z" fill="#6F6F6F"/>
<path d="M99.3123 128.099C103.452 128.099 106.953 129.581 109.815 132.545C112.728 135.458 114.184 139.01 114.184 143.201C114.184 147.239 112.728 150.714 109.815 153.627C106.902 156.489 103.401 157.92 99.3123 157.92C95.2237 157.92 91.6973 156.489 88.7332 153.627C85.8201 150.765 84.3635 147.29 84.3635 143.201C84.3635 139.01 85.8201 135.458 88.7332 132.545C91.6462 129.581 95.1726 128.099 99.3123 128.099ZM104.908 113.227V123.27H92.7195V103.798C100.539 101.294 106.442 97.9461 110.428 93.7554C114.414 89.5646 116.407 84.5817 116.407 78.8066C116.407 73.0316 114.644 68.6108 111.118 65.5444C107.643 62.4269 102.66 60.8426 96.1692 60.7915L87.9666 80.7231C87.2 80.7743 86.4845 80.8254 85.8201 80.8765C85.1557 80.8765 84.5168 80.8765 83.9036 80.8765C79.6617 80.8765 76.3653 79.9054 74.0144 77.9634C71.7146 76.0213 70.5647 73.3127 70.5647 69.8374C70.5647 63.9601 73.6056 59.1305 79.6873 55.3486C85.769 51.5156 93.7161 49.5991 103.529 49.5991C115.948 49.5991 125.683 52.18 132.736 57.3418C139.84 62.5036 143.392 69.6074 143.392 78.6533C143.392 87.0859 140.198 94.1642 133.809 99.8882C127.421 105.612 117.787 110.058 104.908 113.227Z" fill="white"/>
</svg>
