<svg width="200" height="200" viewBox="0 0 200 200" fill="none" xmlns="http://www.w3.org/2000/svg">
<g clip-path="url(#clip0_111_78)">
<rect x="5" y="5" width="190" height="190" rx="24" fill="#BE4AC3"/>
<path d="M81.5115 133.375H124.671L127.508 119.27H139.927V153H57.5169V137.898C75.7109 124.968 88.6154 113.929 96.2303 104.781C103.896 95.5815 107.729 86.689 107.729 78.103C107.729 71.6125 105.941 66.604 102.363 63.0776C98.8367 59.5002 93.8283 57.7114 87.3377 57.7114C86.52 57.7114 85.8812 57.737 85.4212 57.7881C84.9612 57.7881 84.5524 57.8136 84.1946 57.8647V81.5527C81.6393 82.6771 79.2884 83.5203 77.1419 84.0825C74.9954 84.5936 73.0023 84.8491 71.1624 84.8491C66.8183 84.8491 63.3431 83.6737 60.7366 81.3228C58.1302 78.9207 56.827 75.7521 56.827 71.8169C56.827 64.0998 60.4811 57.8136 67.7894 52.9585C75.1487 48.0522 84.7568 45.5991 96.6136 45.5991C108.981 45.5991 118.743 48.4355 125.898 54.1084C133.053 59.7301 136.63 67.3706 136.63 77.0298C136.63 86.689 132.158 96.0926 123.215 105.241C114.322 114.389 100.421 123.767 81.5115 133.375Z" fill="#FCB8FF"/>
</g>
<defs>
<clipPath id="clip0_111_78">
<rect width="200" height="200" fill="white"/>
</clipPath>
</defs>
</svg>
