<svg width="200" height="200" viewBox="0 0 200 200" fill="none" xmlns="http://www.w3.org/2000/svg">
<g clip-path="url(#clip0_2_68)">
<rect width="200" height="200" rx="50" fill="#BBBBBB"/>
<mask id="mask0_2_68" style="mask-type:alpha" maskUnits="userSpaceOnUse" x="0" y="0" width="200" height="200">
<rect width="200" height="200" rx="50" fill="#BBBBBB"/>
</mask>
<g mask="url(#mask0_2_68)">
<path d="M95.9702 30.858C86.7 43.7697 86.1546 59.2426 94.76 65.4469C103.363 71.6134 117.861 66.1614 127.142 53.2528C136.41 40.3528 136.958 24.8683 128.35 18.6755C119.75 12.4974 105.252 17.9495 95.9702 30.858Z" fill="white"/>
<path d="M43.342 169.905L112.224 74.0372L109.62 72.1723C98.1887 63.9568 95.5613 47.9068 103.768 36.461C111.981 25.0414 128.045 22.4054 139.477 30.621L160.246 45.5477C171.684 53.7401 174.32 69.8047 166.101 81.2475C157.897 92.6818 141.824 95.303 130.404 87.0906L127.8 85.2257L61.0124 180.276L43.342 169.905Z" fill="white"/>
<path d="M142.73 64.4443C133.46 77.3559 132.914 92.8288 141.52 99.0332C150.12 105.211 164.617 99.7592 173.902 86.8391C183.169 73.9391 183.718 58.4545 175.109 52.2618C166.498 46.0806 152 51.5326 142.73 64.4443Z" fill="white"/>
<path d="M47.1027 183.94C42.1885 181.103 40.5048 174.819 43.342 169.905L61.138 180.179C58.3007 185.094 52.017 186.777 47.1027 183.94Z" fill="white"/>
<path d="M0.96579 5.7688L195.143 199.946" stroke="#DA0000" stroke-width="12"/>
</g>
</g>
<defs>
<clipPath id="clip0_2_68">
<rect width="200" height="200" fill="white"/>
</clipPath>
</defs>
</svg>
