<svg width="200" height="200" viewBox="0 0 200 200" fill="none" xmlns="http://www.w3.org/2000/svg">
<g clip-path="url(#clip0_2_68)">
<rect width="200" height="200" rx="50" fill="#BBBBBB"/>
<mask id="mask0_2_68" style="mask-type:alpha" maskUnits="userSpaceOnUse" x="0" y="0" width="200" height="200">
<rect width="200" height="200" rx="50" fill="#BBBBBB"/>
</mask>
<g mask="url(#mask0_2_68)">
<path d="M110.385 27.858C119.655 40.7697 120.201 56.2426 111.595 62.4469C102.992 68.6134 88.4947 63.1614 79.2128 50.2528C69.9457 37.3528 69.3972 21.8683 78.0057 15.6755C86.6057 9.49743 101.103 14.9495 110.385 27.858Z" fill="white"/>
<path d="M163.013 166.905L94.1311 71.0372L96.7353 69.1723C108.167 60.9568 110.794 44.9068 102.587 33.461C94.3745 22.0414 78.3099 19.4054 66.8787 27.621L46.1088 42.5477C34.6714 50.7401 32.0355 66.8047 40.2541 78.2475C48.4581 89.6818 64.5312 92.303 75.9508 84.0906L78.555 82.2257L145.343 177.276L163.013 166.905Z" fill="white"/>
<path d="M63.6252 61.4443C72.8954 74.3559 73.4408 89.8288 64.8354 96.0332C56.2354 102.211 41.7379 96.7592 32.453 83.8391C23.1858 70.9391 22.6373 55.4545 31.2459 49.2618C39.8575 43.0806 54.3549 48.5326 63.6252 61.4443Z" fill="white"/>
<path d="M159.253 180.94C164.167 178.103 165.85 171.819 163.013 166.905L145.217 177.179C148.055 182.094 154.338 183.777 159.253 180.94Z" fill="white"/>
<path d="M0.96579 5.7688L195.143 199.946" stroke="#DA0000" stroke-width="12"/>
</g>
</g>
<defs>
<clipPath id="clip0_2_68">
<rect width="200" height="200" fill="white"/>
</clipPath>
</defs>
</svg>
