<svg width="200" height="200" viewBox="0 0 200 200" fill="none" xmlns="http://www.w3.org/2000/svg">
<g clip-path="url(#clip0_2_15)">
<rect width="200" height="200" rx="50" fill="#BBBBBB"/>
<mask id="mask0_2_15" style="mask-type:alpha" maskUnits="userSpaceOnUse" x="0" y="0" width="200" height="200">
<rect width="200" height="200" rx="50" fill="#CECECE"/>
</mask>
<g mask="url(#mask0_2_15)">
<path d="M86.34 97.5838C86.34 112.064 82.22 122.984 73.98 130.344C65.74 137.624 54.26 141.264 39.54 141.264H15.3V55.5838H42.18C51.14 55.5838 58.9 57.1838 65.46 60.3838C72.1 63.5838 77.22 68.3038 80.82 74.5438C84.5 80.7838 86.34 88.4638 86.34 97.5838ZM67.5 98.0638C67.5 88.6238 65.42 81.6638 61.26 77.1838C57.1 72.7038 51.06 70.4638 43.14 70.4638H33.42V126.264H41.22C58.74 126.264 67.5 116.864 67.5 98.0638ZM92.1281 55.5838H116.848L137.128 121.104H137.488L158.968 55.5838H183.688V141.264H166.768V100.704C166.768 98.7838 166.808 96.5438 166.888 93.9838C166.968 91.3438 167.048 88.7838 167.128 86.3038C167.208 83.7438 167.288 81.3838 167.368 79.2238C167.448 76.9838 167.528 75.3038 167.608 74.1838H167.128L145.048 141.264H128.368L107.728 74.0638H107.248C107.328 75.1838 107.408 76.8638 107.488 79.1038C107.648 81.2638 107.768 83.6638 107.848 86.3038C108.008 88.8638 108.128 91.5038 108.208 94.2238C108.288 96.9438 108.328 99.3438 108.328 101.424V141.264H92.1281V55.5838Z" fill="white"/>
<path d="M0.96579 5.76881L195.143 199.946" stroke="#DA0000" stroke-width="12"/>
</g>
</g>
<defs>
<clipPath id="clip0_2_15">
<rect width="200" height="200" fill="white"/>
</clipPath>
</defs>
</svg>
