<svg width="200" height="200" viewBox="0 0 200 200" fill="none" xmlns="http://www.w3.org/2000/svg">
<g clip-path="url(#clip0_102_10)">
<rect width="200" height="200" rx="50" fill="#02BCA1"/>
<path d="M157.767 69.3592C163.474 69.3592 168.105 64.7278 168.105 59.0214C168.105 53.315 163.474 48.6837 157.767 48.6837H75.0653C69.3589 48.6837 64.7275 53.315 64.7275 59.0214C64.7275 64.7278 69.3589 69.3592 75.0653 69.3592H157.767Z" fill="white"/>
<path d="M52.2724 59.0214C52.2724 64.6781 47.7215 69.2783 42.0836 69.3581C42.1332 69.3588 42.1829 69.3592 42.2326 69.3592H41.9346C41.9844 69.3592 42.0341 69.3588 42.0836 69.3581C36.4458 69.2783 31.8949 64.6781 31.8949 59.0214C31.8949 53.3647 36.4458 48.7645 42.0836 48.6847C42.0341 48.684 41.9844 48.6837 41.9346 48.6837H42.2326C42.1829 48.6837 42.1332 48.684 42.0836 48.6847C47.7215 48.7645 52.2724 53.3647 52.2724 59.0214Z" fill="white"/>
<path d="M52.2724 100C52.2724 105.657 47.7215 110.257 42.0836 110.337C42.1332 110.337 42.1829 110.338 42.2326 110.338H41.9346C41.9844 110.338 42.0341 110.337 42.0836 110.337C36.4458 110.257 31.8949 105.657 31.8949 100C31.8949 94.3433 36.4458 89.7431 42.0836 89.6633C42.0341 89.6626 41.9844 89.6622 41.9346 89.6622H42.2326C42.1829 89.6622 42.1332 89.6626 42.0836 89.6633C47.7215 89.7431 52.2724 94.3433 52.2724 100Z" fill="white"/>
<path d="M52.2724 140.979C52.2724 146.635 47.7215 151.236 42.0836 151.315C42.1332 151.316 42.1829 151.316 42.2326 151.316H41.9346C41.9844 151.316 42.0341 151.316 42.0836 151.315C36.4458 151.236 31.8949 146.635 31.8949 140.979C31.8949 135.322 36.4458 130.722 42.0836 130.642C42.0341 130.641 41.9844 130.641 41.9346 130.641H42.2326C42.1829 130.641 42.1332 130.641 42.0836 130.642C47.7215 130.722 52.2724 135.322 52.2724 140.979Z" fill="white"/>
<path d="M157.767 110.338C163.474 110.338 168.105 105.706 168.105 100C168.105 94.2935 163.474 89.6622 157.767 89.6622H75.0653C69.3589 89.6622 64.7275 94.2935 64.7275 100C64.7275 105.706 69.3589 110.338 75.0653 110.338H157.767Z" fill="white"/>
<path d="M157.767 151.316C163.474 151.316 168.105 146.685 168.105 140.979C168.105 135.272 163.474 130.641 157.767 130.641H75.0653C69.3589 130.641 64.7275 135.272 64.7275 140.979C64.7275 146.685 69.3589 151.316 75.0653 151.316H157.767Z" fill="white"/>
</g>
<defs>
<clipPath id="clip0_102_10">
<rect width="200" height="200" fill="white"/>
</clipPath>
</defs>
</svg>
