<svg width="200" height="200" viewBox="0 0 200 200" fill="none" xmlns="http://www.w3.org/2000/svg">
<g clip-path="url(#clip0_102_2)">
<rect width="200" height="200" rx="50" fill="#02BCA1"/>
<path d="M166.836 109.444C166.836 104.722 174.028 80.11 181.225 72.9181C188.412 65.7261 181.225 57.9675 174.033 57.9675C157.954 57.9675 130.877 90.5556 130.877 109.444C130.877 133.056 157.949 158.669 174.033 158.669C181.225 158.669 188.417 152.039 181.225 144.842C174.033 137.655 166.836 118.889 166.836 109.444Z" fill="white"/>
<path d="M57.6018 64.0354C57.6018 49.6515 64.671 35.2629 71.8629 35.2629C93.4388 35.2629 134.772 58.0382 141.964 94.0027C149.161 129.967 57.6018 64.0354 57.6018 64.0354ZM80.5235 150.348C87.7154 157.54 102.104 164.737 116.493 164.737C130.877 164.737 101.802 144.955 109.301 135.969C119.595 123.611 80.5235 150.348 80.5235 150.348Z" fill="white"/>
<path d="M15.796 107.027C20.3246 111.154 49.9046 127.375 49.6307 131.285C49.3569 135.195 38.8688 130.869 34.9682 129.967C27.9557 128.352 25.9724 127.143 24.0269 127.483C20.0602 128.999 21.4107 133.155 22.8841 135.53C29.958 147.855 57.2902 157.545 80.3063 157.545C120.03 157.545 159.649 121.585 159.649 107.197C159.649 92.8127 115.52 56.8435 75.7966 56.8435C36.1724 56.8388 15.8527 85.4649 15.796 107.027Z" fill="white"/>
<path d="M48.0582 76.3889C53.2715 76.3889 57.5027 80.6106 57.5027 85.8334C57.5027 91.0514 53.2715 95.2778 48.0582 95.2778C42.8402 95.2778 38.6138 91.0467 38.6138 85.8334C38.6138 80.6106 42.8402 76.3889 48.0582 76.3889Z" fill="#02BCA1"/>
<path d="M86.2138 137.683C85.4771 137.683 84.731 137.513 84.0321 137.15C81.7182 135.941 80.8257 133.089 82.0346 130.775C89.5193 116.448 92.5085 103.537 82.7618 87.1273C81.4302 84.8842 82.1668 81.9895 84.4099 80.6531C86.653 79.3167 89.5477 80.0675 90.8841 82.3011C103.601 103.716 97.7785 121.033 90.4024 135.148C89.5618 136.763 87.9138 137.683 86.2138 137.683Z" fill="white"/>
</g>
<defs>
<clipPath id="clip0_102_2">
<rect width="200" height="200" fill="white"/>
</clipPath>
</defs>
</svg>
