<svg width="200" height="200" viewBox="0 0 200 200" fill="none" xmlns="http://www.w3.org/2000/svg">
<g clip-path="url(#clip0_1_2)">
<rect width="200" height="200" rx="50" fill="#02BCA1"/>
<path d="M86.8459 99.16C86.8459 113.64 82.7259 124.56 74.4859 131.92C66.2459 139.2 54.7659 142.84 40.0459 142.84H15.8059V57.16H42.6859C51.6459 57.16 59.4059 58.76 65.9659 61.96C72.6059 65.16 77.7259 69.88 81.3259 76.12C85.0059 82.36 86.8459 90.04 86.8459 99.16ZM68.0059 99.64C68.0059 90.2 65.9259 83.24 61.7659 78.76C57.6059 74.28 51.5659 72.04 43.6459 72.04H33.9259V127.84H41.7259C59.2459 127.84 68.0059 118.44 68.0059 99.64Z" fill="white"/>
<path d="M92.6341 57.16H117.354L137.634 122.68H137.994L159.474 57.16H184.194V142.84H167.274V102.28C167.274 100.36 167.314 98.12 167.394 95.56C167.474 92.92 167.554 90.36 167.634 87.88C167.714 85.32 167.794 82.96 167.874 80.8C167.954 78.56 168.034 76.88 168.114 75.76H167.634L145.554 142.84H128.874L108.234 75.64H107.754C107.834 76.76 107.914 78.44 107.994 80.68C108.154 82.84 108.274 85.24 108.354 87.88C108.514 90.44 108.634 93.08 108.714 95.8C108.794 98.52 108.834 100.92 108.834 103V142.84H92.6341V57.16Z" fill="white"/>
</g>
<defs>
<clipPath id="clip0_1_2">
<rect width="200" height="200" fill="white"/>
</clipPath>
</defs>
</svg>
